SplineFontDB: 3.0
FontName: CoelacanthPearlHairline
FullName: CoelacanthPearlHairline
FamilyName: Coelacanth
Weight: Regular

StartChar: a
Encoding: 97 97 0
Width: 442
VWidth: 1159
Flags: HMW
AnchorPoint: "Top" 220 537 basechar 0
AnchorPoint: "Ogonek" 354 18 basechar 0
AnchorPoint: "Bottom" 203 -15 basechar 0
LayerCount: 2
Back
SplineSet
318 253 m 5
 317 254 316 252 314 252 c 5
 223 248 131.920225 208.881435826 104 188 c 4
 72 148 86 141.6875 86 112 c 7
 86 67.988637831 126.956054688 46 174 46 c 7
 200.894704313 46 265.447253263 73.375 317 119 c 5
 317 146.887412109 317 174.773935546 317 210 c 7
 317 226.987304688 319 243.444335938 318 253 c 5
257 525 m 7
 284 525 348.289251258 468.15830537 363 441 c 4
 376 417 375 386 375 367 c 5
 375 294.143629807 373 194.143028846 373 127 c 7
 373 87.142780583 362.273046374 78.5821858255 364 73 c 4
 368.337987565 67.2568168904 383.857142857 63 386 63 c 7
 392.428571429 63 420.714285714 79 422 79 c 5
 442 26 l 5
 425.741806402 19.052734375 374.258193598 -7 358 -7 c 7
 343.203396686 -7 320 5.00000000002 319 51 c 5
 257.159324149 9.91836734694 204.153476331 -10 139 -10 c 7
 42 -10 30 56 30 112 c 5
 30 140.21 31 182.98 42 203 c 5
 48 219 59 231 70 236 c 5
 136 272 217.990566038 296.5 319 313 c 5
 319 349 l 5
 319 389.660714286 314.36328125 400.446289062 308 409 c 5
 302.932617188 414.434570312 256 468 222 468 c 7
 143.75 468 119 422.875 119 430 c 7
 119 422.615234375 130 394 130 394 c 5
 58 361 l 5
 58 362 47 384 47 401 c 7
 47 425 54.3808197709 439.509815652 79 459 c 4
 103 478 208 525 257 525 c 7
EndSplineSet
Fore
SplineSet
318 253 m 1
 317 254 315 254 313 254 c 1
 237.504504505 249.875 131.894944575 209.195819919 104 188 c 0
 84.4760890278 173.164863835 86 141.6875 86 112 c 3
 86 67.9886378307 93.9565422671 46 140 46 c 3
 207.421748073 46 256.447253263 73.375 317 119 c 1
 317 146.887412109 317 174.773935546 317 210 c 3
 317 226.987304688 319 243.444335938 318 253 c 1
243 517 m 3
 273.56640625 517 346.346679688 456.774414062 363 428 c 0
 376 404 375 381 375 362 c 1
 375 290.661470853 373 192.744215745 373 127 c 3
 373 84.1903939597 376.287925822 79.8482967109 379 69 c 0
 380 65 385 63 386 63 c 3
 392.428571429 63 420.714285714 79 422 79 c 1
 442 26 l 1
 425.741806402 19.052734375 374.258193598 -7 358 -7 c 3
 343.203396686 -7 320 5 319 51 c 1
 257.159324149 9.91836734694 204.153476331 -10 139 -10 c 3
 42 -10 30 56 30 112 c 1
 30 140.21 31 182.98 42 203 c 1
 48 219 59 231 70 236 c 1
 136 272 217.990566038 296.5 319 313 c 1
 319 344 l 1
 319 384.660714286 317.36328125 396.446289062 311 405 c 1
 305.983398438 410.978515625 248.448242188 460 237 460 c 3
 217.801757812 460 106 418.125 106 391 c 3
 106 384.845703125 112 371 112 371 c 1
 54 349 l 1
 54 349.900390625 43 369.700195312 43 385 c 3
 43 409 54.380859375 431.509765625 79 451 c 0
 101.112304688 470 197.853515625 517 243 517 c 3
EndSplineSet
Validated: 33
Substitution2: "case-1" A
Substitution2: "pcap-1" a.pcap
Substitution2: "smcp-1" a.smcp
EndChar

StartChar: b
Encoding: 98 98 1
Width: 528
VWidth: 1159
Flags: HMW
AnchorPoint: "Bottom" 243 -15 basechar 0
AnchorPoint: "Top" 145 720 basechar 0
LayerCount: 2
Back
SplineSet
66.004626952 386.509006783 m 2
 66.2840441343 401.876951808 l 1
 79.3993997353 409.891891342 l 0
 95.0614335538 419.463134231 203.823869582 500 295 500 c 0
 397.820909173 500 508 377.155864885 508 269 c 0
 508 108.98996361 382.169352464 -11 241 -11 c 0
 157.569583243 -11 97.6702173632 41.5516052944 69.8991438283 56.2539383423 c 0
 66.1781372547 58.2238829989 l 1
 63.2010101268 61.2010101268 l 0
 51.3420820436 73.05993821 54.6296377129 85.0303186558 55 87.9932169524 c 1
 55 92.5391052434 l 1
 56.6134370313 96.4574523194 l 1
 61.0770443099 119.942641846 64.1316182675 283.493529136 66.004626952 386.509006783 c 2
121.729782643 370.563081784 m 1
 120.005213906 271.657680498 118.387188336 142.095785807 113.079101867 95.8041811011 c 1
 148.979222822 73.3675784987 189.339359728 45 241 45 c 0
 350.150442997 45 452 139.003139921 452 269 c 0
 452 346.844135115 358.480022875 444 295 444 c 0
 241.811772808 444 155.468911024 392.464222548 121.729782643 370.563081784 c 1
32.4048053531 689.146288421 m 0
 40.2563737354 695.903001449 48.0932406948 704.456630025 54.9316321282 711.785828553 c 0
 60.0367484381 717.653823132 65.3994848996 724.2097318 71.0033532155 731.324766383 c 0
 123.095352288 797.464146191 l 1
 120.991254099 713.300218648 l 2
 120.737585693 703.153482391 120.516432199 691.288820165 120.349848536 680.085741402 c 0
 120.482705585 668.407402263 120.172519196 656.209000442 120.037018879 651.272930933 c 0
 120.01501054 647.696417499 120.003248603 646.60459722 120.001604606 643.932699818 c 0
 120.007701246 629.630662299 120.027265609 616.795066119 120.056741085 605.398139934 c 0
 120.208512509 546.714516393 120.627555592 518.321223302 120.853009193 460.507228459 c 0
 120.944392591 452.852719741 121.080012978 442.497871284 121.167362766 436.311904236 c 1
 170.293704129 466.185460124 232.393504279 500 295 500 c 0
 398.242410245 500 508 375.486616346 508 269 c 0
 508 117.19004492 390.359846996 -11 241 -11 c 0
 171.333931286 -11 122.589538661 24.7445461461 99.1399399911 38.9253657034 c 1
 98.8527498554 37.9674921074 99.0511879732 38.631691475 98.5021698993 36.7858230743 c 0
 98.0871553568 34.9766686032 97.7885026833 33.4725216064 97.6646802488 32.6796450686 c 0
 97.1218614445 29.2037943825 l 1
 95.7449007942 25.9908861984 l 1
 95.7449007942 25.9908861984 94.7514237322 23.2978664255 93.5739516548 19.7072096391 c 0
 91.1938964217 11.4231599162 88.3301610229 1.54026933787 84.7966833241 -10.1202070679 c 0
 30 -190.949262038 l 1
 30 -2 l 0
 30 14.2360031042 35.0342907602 21.148655959 40.1062596169 36.4068289361 c 0
 40.9971057378 39.5108770852 41.8542066571 42.5054105674 42.6164379006 45.1529208426 c 0
 43.1246107098 46.9179924604 43.8023916468 49.2555569684 44.3654464881 51.1841530855 c 0
 46.0071611461 57.8928809868 48.0561165408 65.1296381415 50.0933730895 73.0627690041 c 0
 54.9859592651 92.1146289244 60.3824146805 116.978945788 61.0051203404 149.535455737 c 0
 62.669094805 236.531936897 65 288.952363382 65 375 c 0
 65 390.86926262 64.9882959983 405.092668878 64.9674295326 417.99859887 c 0
 64.9416941334 433.915969039 64.9031277582 447.545929034 64.8542777241 460.072744371 c 0
 64.4218480005 496.616812307 64.2093778459 530.333129105 64.1035816106 560.929481238 c 0
 63.9999686709 590.894422646 64 617.754791864 64 641 c 0
 64 641.456699929 64.0004702345 642.075753383 64.0011371608 642.632413557 c 1
 49.9956969748 631.582410825 30.9168701706 620 7 620 c 1
 5.1884527897 675.941336702 l 1
 12.5241729702 676.416940413 20.9679445165 679.786479524 32.4048053531 689.146288421 c 0
112.108866067 95.3918510709 m 1
 146.252946937 80.3086992091 180.238802907 45 241 45 c 0
 356.598954502 45 452 145.40995508 452 269 c 0
 452 345.301262442 358.518153135 444 295 444 c 0
 243.172073093 444 171.901273349 402.773056746 120.997551605 370.082512296 c 1
 120.896562757 285.935366539 118.607980578 232.80123731 116.99487966 148.464544263 c 0
 116.618438075 128.783296819 114.644861996 110.816210596 112.108866067 95.3918510709 c 1
EndSplineSet
Fore
SplineSet
122 371 m 1
 121 290 117 172 116 131 c 1
 116 128 111 97 112 96 c 1
 146 76 186 44 242 44 c 3
 344 44 452 134 452 268 c 3
 452 353 353 444 296 444 c 3
 233 444 138 382 122 371 c 1
0 676 m 1
 28 678 50 704 82 744 c 1
 126 714 l 1
 116 689 120 657.12474808 120 641 c 0
 120 595 121 514 121 437 c 1
 157 457 228 500 295 500 c 3
 391 500 508 373 508 269 c 3
 508 116 389 -11 241 -11 c 3
 160 -11 116 32 105 32 c 3
 95 32 92 9 85 -15 c 1
 32 3 l 1
 32 4 42 41 45 48 c 1
 47.3333333333 64 60.0055428872 97.0074536439 61 149 c 0
 62.6567392309 235.618206202 65 288.377521614 65 375 c 3
 65 484.063408115 63.9755859375 509.603515625 64 581 c 0
 64.0066166318 600.349678181 66.6387325248 635.196885382 59 634 c 0
 56.0983946895 633.545357954 23.9542922305 620.762720969 11 620 c 1
 0 676 l 1
EndSplineSet
Validated: 33
Substitution2: "case-1" B
Substitution2: "pcap-1" b.pcap
Substitution2: "smcp-1" b.smcp
EndChar

StartChar: c
Encoding: 99 99 2
Width: 444
VWidth: 1159
Flags: HMW
AnchorPoint: "Top" 252 537 basechar 0
AnchorPoint: "Bottom" 243 -15 basechar 0
LayerCount: 2
Back
SplineSet
114.855541087 454.33381776 m 0
 135.857372609 473.359433964 159.728498443 488.771621403 185.54400795 499.38259518 c 0
 211.641580654 510.109505665 239.835087908 516 269 516 c 0
 341.027904111 516 407.451145858 481.419864751 435.89349417 452.704032321 c 1
 397.055253887 412.382129239 l 1
 373.235359834 434.269056872 314.288132599 460 269 460 c 0
 248.317321587 460 227.613393038 455.800909727 207.742017165 447.717671292 c 0
 188.087360723 439.722589553 169.210350804 427.867444137 152.226090276 412.625301313 c 0
 106.754086055 371.131565095 76 305.322485339 76 230 c 0
 76 178.817317136 90.9552903821 142.778325485 111.821065702 116.056079966 c 0
 152.825042484 63.5433734839 222.237706455 46 249 46 c 0
 287.124326106 46 322.099023181 60.3340458037 355.836188572 79.8928746651 c 0
 367.059258026 86.6182728151 379.065516753 94.3241798707 391.852831619 102.549167502 c 1
 422.442015286 55.6431131374 l 1
 410.51963004 47.760827442 397.810186881 39.534090764 384.297178411 31.6636091786 c 0
 344.513810134 7.91258510377 303.385935034 -10 249 -10 c 0
 206.497685819 -10 125.29440914 10.5919303239 70.4899634718 77.9202604581 c 0
 40.5426045785 114.711174802 20 165.243619203 20 230 c 0
 20 324.147898228 57.0651406145 402.097703536 114.855541087 454.33381776 c 0
EndSplineSet
Fore
SplineSet
391 416 m 1
 368.839285715 436.098360656 313.660714285 460 269 460 c 3
 171.086538462 460 76 366.649681529 76 231 c 3
 76 87.9685349302 198.990001 46 249 46 c 3
 299.8 46 341.673684211 67.2093023256 391 103 c 1
 421 56 l 1
 372.301204819 24 316.34939759 -10 249 -10 c 3
 189.903225806 -10 20 39.7211155378 20 230 c 3
 20 389 133.46835443 516 269 516 c 3
 334.571428571 516 399.102040816 485 422 464 c 1
 415.541666667 430.808510638 420.277777778 433.361702128 391 416 c 1
EndSplineSet
Validated: 1
Substitution2: "case-1" C
Substitution2: "pcap-1" c.pcap
Substitution2: "smcp-1" c.smcp
EndChar

StartChar: d
Encoding: 100 100 3
Width: 525
VWidth: 1159
Flags: HMW
AnchorPoint: "Bottom" 240 -15 basechar 0
AnchorPoint: "Top" 372 732 basechar 0
LayerCount: 2
Back
SplineSet
409 60 m 5
 353.346938776 22.8571428571 300.020408163 -10 229 -10 c 7
 104 -10 20 103 20 230 c 7
 20 320 66.1082822095 418.820094919 131 458 c 4
 184 490 233 500 292 500 c 7
 323.023255814 500 374.279069768 488.857142857 408 478 c 5
 410.5 536.242990654 414.5 591.644859814 418 630 c 5
 419.274014778 648 405.660770089 642 399 642 c 7
 389.481445312 642 362 634 353 632 c 5
 338 686 l 5
 392 698 405 703 445 743 c 5
 493 713 l 5
 488 698 478.682691379 670.039054199 477 655 c 4
 461 512 461 347 461 190 c 7
 461 141.951627603 463.333333334 103.184101562 465 62 c 5
 465.347547744 58.9443359375 467.550679111 55.7242573399 470 57 c 4
 482.783938238 58.0342343507 494.804758956 61.2728160511 510 63 c 5
 517 6 l 5
 496.131578947 -13.6923076923 466.701754386 -27 456 -27 c 7
 441.375 -27 413.116200113 -12.0636380772 411 20 c 4
 410.2 32.1212121212 409.4 49.0909090909 409 60 c 5
290 444 m 7
 249.82278481 444 192.513121132 435.020431431 152 404 c 4
 117.632346743 377.685082721 76 300.898989899 76 231 c 7
 76 129.574561404 139.705882353 46 226 46 c 7
 295.375 46 358 80 406 120 c 5
 406.000325522 201.341688368 406 321.757936508 406 402 c 5
 404.717532467 413.005714286 396.225305481 422.654563422 376 429 c 4
 349.747312323 437.236452341 308.838095238 444 290 444 c 7
EndSplineSet
Fore
SplineSet
409 60 m 1
 353.346938776 22.8571428571 300.020408163 -10 229 -10 c 3
 104 -10 20 103 20 230 c 3
 20 320 66.1082822095 418.820094919 131 458 c 0
 184 490 233 500 292 500 c 7
 323.023255814 500 374.279069768 488.857142857 408 478 c 1
 410.5 536.242990654 414.5 591.644859814 418 630 c 1
 419.274014778 648 419.660714286 648 413 648 c 3
 403.481481481 648 418 646 353 630 c 1
 338 684 l 1
 392 696 405 703 445 743 c 1
 493 713 l 1
 488 698 478.682691379 670.039054199 477 655 c 0
 461 512 461 347 461 190 c 3
 461 141.951627603 463.33359375 88.1843191964 465 47 c 1
 465.34712358 43.9444444444 467.565429968 41.3457093039 470 42 c 0
 472.790697674 42.75 485.804878049 55.2727272726 494 63 c 1
 517 6 l 1
 496.131578947 -13.6923076923 466.701754386 -27 456 -27 c 3
 441.375 -27 413.116200113 -12.0636380772 411 20 c 0
 410.2 32.1212121212 409.4 49.0909090909 409 60 c 1
290 444 m 3
 249.82278481 444 192.513121132 435.020431431 152 404 c 0
 117.632346743 377.685082721 76 300.898989899 76 231 c 3
 76 129.574561404 139.705882353 46 226 46 c 3
 295.375 46 338 82 406 125 c 1
 406 206.341269842 406 321.757936508 406 402 c 1
 404.717532467 413.005714286 396.225305481 422.654563422 376 429 c 0
 349.747312323 437.236452341 308.838095238 444 290 444 c 3
EndSplineSet
Validated: 1
Substitution2: "case-1" D
Substitution2: "pcap-1" d.pcap
Substitution2: "smcp-1" d.smcp
EndChar

StartChar: e
Encoding: 101 101 4
Width: 464
VWidth: 1159
Flags: HMW
AnchorPoint: "Bottom" 243 -15 basechar 0
AnchorPoint: "Ogonek" 364 18 basechar 0
AnchorPoint: "Top" 252 537 basechar 0
LayerCount: 2
Back
SplineSet
80.345343298 269.773124373 m 2
 78.8179358487 257.21573798 78 243.965068254 78 230 c 0
 78 143.246998 125.963647174 44 232 44 c 0
 302.588494526 44 344.695093345 79.8443540366 377.364537746 124.976422988 c 1
 422.727215745 92.1400491809 l 1
 384.599405215 39.4673758218 325.425047933 -12 232 -12 c 0
 80.9574873783 -12 22 129.291429848 22 230 c 0
 22 256.023024937 24.4588916656 280.393944439 29.0150852163 303.060595248 c 0
 57.4543069378 444.543150996 166.99572238 517 256 517 c 0
 329.74842933 517 405.307018325 458.348909645 428 364 c 1
 429.534273815 357.862904739 433.386006168 348.885379967 434.330207121 347.637251668 c 0
 440 340.142418163 l 1
 440 286.031546339 l 1
 413.920241428 284.238774294 l 0
 318.290013854 277.664971156 213.561418075 269.336672636 129.999549242 261.999863389 c 0
 104.448767992 259.756699327 l 1
 99.5512320078 315.542128798 l 1
 125.102013258 317.785292861 l 0
 199.621882964 324.328206234 290.695116247 331.639905615 377.435043849 337.820987879 c 1
 375.886522939 342.370793653 374.63884657 346.550698687 373.611306451 350.660859162 c 1
 356.065205922 423.610966694 299.888907193 461 256 461 c 0
 199.661443234 461 118.142013279 415.210802312 88.9368244692 312.759275485 c 0
 88.6626820278 311.797586387 80.345343298 269.773124373 80.345343298 269.773124373 c 2
EndSplineSet
Fore
SplineSet
256 517 m 7
 329.713867188 517 405.318359375 458.301757812 428 364 c 1
 431 352 434 345 440 344 c 1
 440 286 l 1
 322.918613532 278.221842447 185.105218349 267.333333333 79 258 c 1
 78 250.615384615 78 241.384615385 78 234 c 3
 78 116.628277221 145.876020289 43 234 43 c 3
 313.817825958 43 360.879275538 96.6931818182 393 148 c 1
 438 115 l 1
 401.451171875 56 339.4296875 -12 232 -12 c 3
 80.87890625 -12 22 129.328 22 230 c 3
 22 419 152.5 517 256 517 c 7
258 461 m 3
 198.38953993 461 116.38953993 411.867683657 90 316 c 1
 369 337 l 1
 375 338 l 1
 367.454156426 404.636164739 312.748749122 461 258 461 c 3
EndSplineSet
Validated: 1
Substitution2: "case-1" E
Substitution2: "pcap-1" e.pcap
Substitution2: "smcp-1" e.smcp
EndChar

StartChar: f
Encoding: 102 102 5
Width: 330
VWidth: 1159
Flags: HMW
AnchorPoint: "Bottom" 145 -15 basechar 0
AnchorPoint: "Top" 208 735 basechar 0
LayerCount: 2
Back
SplineSet
-26.8549242272 439.000375841 m 1
 -27.1450757728 494.999624159 l 1
 358.854924227 496.999624159 l 1
 359.145075773 441.000375841 l 1
 -26.8549242272 439.000375841 l 1
402.090960108 704.506454371 m 1
 362.577102337 664.82453098 l 1
 343.068580631 684.250427865 317.422329475 693 298 693 c 0
 286.036862962 693 236.334683069 671.494998676 214.036651553 654.102999481 c 1
 176.399091425 616.384303646 159 586.654261215 159 562 c 0
 159 29 l 1
 103 29 l 1
 103 562 l 0
 103 612.968468796 135.88842285 655.399407901 175.678500023 694.935959392 c 0
 176.746734875 695.9973879 l 1
 177.922650756 696.938120605 l 0
 208.778867163 721.62309373 259.938840208 749 298 749 c 0
 332.539679469 749 371.602496546 734.865789553 402.090960108 704.506454371 c 1
246.693690401 50.6960004708 m 1
 241.624827636 -5.07412262633 l 1
 201.052870055 -1.3865983091 157.359444673 1 118 1 c 0
 96.5253133043 1 66.0969027009 -1.4860202548 40.7693584609 -3.93421045804 c 1
 35.3814447716 51.8059939377 l 1
 61.4554290529 54.3263359129 92.6328466722 57 118 57 c 0
 159.585716787 57 204.684889578 54.5141173133 246.693690401 50.6960004708 c 1
EndSplineSet
Fore
SplineSet
298 749 m 3
 335 749 378 733 410 696 c 1
 413.431762243 677.875211264 393.37522873 657.887955405 380 650 c 1
 352.170454545 674.620689655 333.443181818 692 301 692 c 3
 276.668949879 692 169.981433877 656.477269718 159 556 c 0
 158.239479661 549.041436297 159 529 159 498 c 1
 216.2 498 267.9 498 324 498 c 1
 324 442 l 1
 268.261437908 442 215.738562092 442 160 441 c 1
 159.857142857 395.62987013 159 324.461038961 159 304 c 3
 159 229.233160621 159 125 159 82 c 0
 159 55.7867965643 160.050370103 56.7325053796 193 54 c 0
 219.022977113 51.8419203743 248.968253968 50 275 48 c 1
 270 -8 l 1
 227 -3 167 1 118 1 c 1
 87.2956521739 1 38.9130434783 -4 11 -7 c 1
 9 47 l 1
 30.12 50 53.5349307353 54.6967636518 75 56 c 0
 103 57.7 103 57.1529898899 103 74 c 0
 103 131.541899442 103 210.831681104 103 280 c 3
 103 307.443181818 103 390.6875 103 441 c 1
 73.3896103896 441 41.3116883117 441 8 441 c 1
 8 498 l 1
 40.0947265625 499.301757812 74.7567587721 498.006403327 103 498 c 1
 102.333333333 533.593220339 102 544.779661017 102 558 c 3
 102 606 133.231270424 661.185016339 178 697 c 0
 208 721 261 749 298 749 c 3
EndSplineSet
Validated: 33
Substitution2: "salt-1" f.alt
Substitution2: "case-1" F
Substitution2: "pcap-1" f.pcap
Substitution2: "smcp-1" f.smcp
EndChar

StartChar: g
Encoding: 103 103 6
Width: 467
VWidth: 1159
Flags: HMW
AnchorPoint: "Bottom" 222 -162 basechar 0
AnchorPoint: "Top" 231 537 basechar 0
LayerCount: 2
Back
SplineSet
137 120 m 5
 143.538536658 108.666666666 153.700739198 80 209 80 c 7
 245.701171875 80 281.290039062 92 328 92 c 7
 413.647460938 92 456 53.0967741935 456 -2 c 7
 456 -122.382165605 260 -177 176 -177 c 7
 65 -177 15 -111 15 -59 c 7
 15 6.86021505376 65.3924050633 47.1827956989 93 66 c 5
 63.6382978724 87.7674418605 52.8723404255 113.720930233 47 138 c 5
 74 156 105 168 135 180 c 5
 69 202.01986755 30 253.986754967 30 313 c 7
 30 435 147 514 223 514 c 7
 262 514 300 504 335 486 c 5
 361.950195312 488 384.087890625 487 412 487 c 7
 440.983398438 487 446.466796875 486 459 486 c 5
 458.454427083 480.761904762 455 431 455 431 c 5
 433.041666667 431 413.905842356 427.515692941 393 431 c 4
 387 432 383 431 378 431 c 5
 397.2 407.311688312 410 366.168831169 410 335 c 7
 410 251.406091371 306.24413016 183.079352811 232 156 c 4
 188.293815148 138.797851813 146.666666666 120.09090909 137 120 c 5
224 458 m 7
 171.217026953 458 86 396.285714286 86 314 c 7
 86 251 138.103092784 235.124087592 219 212 c 5
 271 231 354 291.952407917 354 334 c 7
 354 375.03916084 323.916666666 458 224 458 c 7
71 -58 m 7
 71 -86.25 102.993243552 -121 177 -121 c 7
 272.171875 -121 400 -84.1957178656 400 -29 c 7
 400 12.955078125 366.5 30 329 30 c 7
 284.253939353 30 258.559057204 18 209 18 c 7
 196.338694852 18 177.044347426 25.5998046875 168 26 c 5
 94.515625 -7.04343580164 71 -29.1739130435 71 -58 c 7
EndSplineSet
Fore
SplineSet
124 114 m 1
 130.538461538 102.666666665 143.615384615 80 209 80 c 3
 245.700934579 80 281.289719626 92 328 92 c 3
 413.647058824 92 456 34.0806451612 456 -22 c 3
 456 -128.624203822 260 -177 176 -177 c 3
 65 -177 15 -111 15 -59 c 3
 15 6.86021505376 65.3924050633 47.1827956989 93 66 c 1
 63.6382978724 87.7674418605 52.8723404255 113.720930233 47 138 c 1
 74 156 105 168 135 180 c 1
 69 202.01986755 30 253.986754967 30 313 c 3
 30 435 147 514 223 514 c 3
 262 514 300 504 335 486 c 1
 361.950195312 488 384.087890625 487 412 487 c 3
 440.983398438 487 446.466796875 486 459 486 c 1
 458.454427083 480.761904762 455 431 455 431 c 1
 433.041666667 431 413.905842356 427.515692941 393 431 c 0
 387 432 383 431 378 431 c 1
 397.2 407.311688312 410 366.168831169 410 335 c 3
 410 251.406091371 306.24413016 183.079352811 232 156 c 0
 187.644947708 139.822207798 135.999999999 119.727272727 124 114 c 1
224 458 m 3
 171.217026953 458 86 396.285714286 86 314 c 3
 86 251 138.103092784 235.124087592 219 212 c 5
 276 231 354 284.952407917 354 334 c 7
 354 375.03916084 323.916666666 458 224 458 c 3
71 -58 m 3
 71 -86.25 102.993243552 -121 177 -121 c 3
 272.171875 -121 400 -68.2308319664 400 -25 c 3
 400 18.3777777778 370.5 36 329 36 c 3
 284.254237288 36 270.559322034 24 209 24 c 3
 186.455882353 24 152.102941176 32 136 34 c 1
 86.7575757576 4.19607843135 71 -32 71 -58 c 3
EndSplineSet
Validated: 33
Substitution2: "case-1" G
Substitution2: "pcap-1" g.pcap
Substitution2: "smcp-1" g.smcp
EndChar

StartChar: h
Encoding: 104 104 7
Width: 538
VWidth: 1159
Flags: HMW
AnchorPoint: "Top" 149 720 basechar 0
AnchorPoint: "Bottom" 269 -15 basechar 0
LayerCount: 2
Back
SplineSet
125 7 m 1
 69 7 l 1
 69 728 l 1
 125 728 l 1
 125 7 l 1
90.6540697674 353.777470942 m 1
 62.7774709416 402.345930233 l 1
 157.944526795 456.968495498 l 1
 218.264940095 491.22583802 290.635109574 516 321 516 c 0
 413.946027804 516 469.380835645 450.622050808 472.061096081 369.860324789 c 0
 473.578193681 324.147072804 476 152.50876604 476 40 c 0
 476 12 l 1
 420 12 l 1
 420 40 l 0
 420 151.566418859 417.555293166 323.908124574 416.091909669 368.002860822 c 0
 414.265714553 423.029852832 384.358230745 459.628261096 321.124859766 460.001860813 c 1
 311.110103188 459.449541552 236.495353244 437.178420613 185.710467479 408.3365223 c 1
 90.6540697674 353.777470942 l 1
525.955552386 48.2129548614 m 1
 516.397909511 -6.96540559528 l 1
 488.808729283 -2.18658415808 l 0
 489.794057148 -2.35725635227 487.809003828 -2.21001522343 488.808729283 -2.18658415808 c 1
 476.30329942 -0.0204735373238 464.997094235 1 449 1 c 0
 433.5479092 1 418.731954142 -0.919783419961 404.815533859 -3.50110726971 c 1
 404.815533859 -2.50110726971 405.798762578 -3.31873050243 404.815533859 -3.50110726971 c 0
 377.285129714 -8.60765675337 l 1
 367.072030747 46.453151536 l 1
 394.602434891 51.5597010197 l 0
 410.599418581 54.5269436497 428.929860598 57 449 57 c 0
 467.484603573 57 482.899787735 55.6707991832 498.366372157 52.9917762986 c 1
 497.366372157 52.9917762986 499.351700022 52.8211041044 498.366372157 52.9917762986 c 0
 525.955552386 48.2129548614 l 1
187.446869801 50.5777021588 m 1
 179.395084971 -4.84042448818 l 1
 151.686021648 -0.814532073493 l 0
 152.675631052 -0.958313945446 151.686021648 -1.81453207349 151.686021648 -0.814532073493 c 1
 135.612133869 1.52086779653 121.863028348 3 101 3 c 0
 85.7178576535 3 63.7612731971 0.441433788849 45.3346150413 -1.98380553032 c 1
 45.3346150413 -2.98380553032 46.3260646107 -1.85331510398 45.3346150413 -1.98380553032 c 0
 17.5740270985 -5.63753746764 l 1
 10.2665632239 49.883638418 l 1
 38.0271511667 53.5373703553 l 0
 57.0486817337 56.0409042816 80.3030746058 59 101 59 c 0
 124.642132278 59 142.360720386 57.12833813 159.737806477 54.6035945735 c 1
 159.737806477 53.6035945735 160.727415882 54.4598127015 159.737806477 54.6035945735 c 0
 187.446869801 50.5777021588 l 1
21.8266039278 625.351765756 m 1
 -2.15207758417 675.958315064 l 1
 23.1511970703 687.94765582 l 0
 40.6875817855 696.256844842 60.0281678386 711.324276096 75.2893875917 729.469171186 c 0
 93.3122697153 750.897557032 l 1
 136.169041407 714.851792785 l 1
 118.146159283 693.423406939 l 0
 117.502484922 692.658107444 119.146159283 693.423406939 118.146159283 693.423406939 c 1
 98.0377664286 669.515443835 73.272620835 649.728208554 47.1298785822 637.341106512 c 0
 21.8266039278 625.351765756 l 1
EndSplineSet
Fore
SplineSet
125 373 m 1
 125 330.015075377 125 261.422110553 125 191 c 1
 125 143.380952381 125 87.0478515625 125 68 c 1
 126 55.75 125.331054688 55.0439453125 143 53 c 0
 156.8515625 51.3974609375 167.84375 49.6669921875 188 48 c 1
 178 -8 l 1
 150.791015625 -4 132.651367188 0 100 0 c 1
 75.5341796875 0 40.4658203125 -5 16 -8 c 1
 11 47 l 1
 24.5712890625 48.25 35.3134765625 50.3486328125 49 52 c 0
 69.7138671875 54.5 69.7138671875 54.875 69 79 c 1
 69 128.209960938 69 214.487804878 69 276 c 3
 69 506.625140121 69 603.724137931 69 628 c 1
 68.4285714286 636.831168832 67.000472216 645 65 645 c 3
 59.7901322361 645 46.6086956522 635.294117647 18 630 c 1
 -1 683 l 1
 31.1428571429 692 57 699 89 747 c 1
 133 712 l 1
 125 700 125 699.878850192 125 653 c 0
 125 605.098445596 125 520.43523316 125 438 c 1
 196.38271605 482.571428571 285.913580247 516 321 516 c 3
 415 516 467.313257734 450.088775733 472 371 c 0
 473.2 344 475 248 475 184 c 3
 475 137.099295564 475 92.349609375 476 72 c 5
 476.768554688 55 475.7890625 55.09375 486 54 c 4
 494.088867188 53.1337890625 514.237304688 50.2001953125 523 47 c 5
 516 -8 l 5
 491.879882812 -2.6669921875 475.799804688 0 449 0 c 5
 421.990234375 0 397.169921875 -4.5 376 -9 c 5
 367 45 l 5
 382.599609375 47.599609375 394.36328125 50.435546875 409 53 c 4
 420.416992188 55 420 54.9150390625 420 73 c 4
 420 115.140625 419 179.332494215 419 210 c 3
 419 251.871744238 416.848746775 339.893402127 416 358 c 0
 413 422 385.478873239 460 319 460 c 3
 303 460 191.807947021 419.846153846 125 373 c 1
EndSplineSet
Validated: 33
Substitution2: "case-1" H
Substitution2: "pcap-1" h.pcap
Substitution2: "smcp-1" h.smcp
EndChar

StartChar: k
Encoding: 107 107 10
Width: 503
VWidth: 1159
Flags: HMW
AnchorPoint: "Top" 120 720 basechar 0
AnchorPoint: "Bottom" 247 -15 basechar 0
LayerCount: 2
Back
SplineSet
169.628220467 278.910029309 m 1
 212.371779533 315.089970691 l 1
 438.371779533 48.0899706908 l 1
 395.628220467 11.9100293092 l 1
 169.628220467 278.910029309 l 1
67 690 m 1
 123 690 l 1
 123 31 l 1
 67 31 l 1
 67 690 l 1
173.228812991 50.3814077406 m 1
 162.978030123 -4.67239731046 l 1
 144.147990686 -1.16632456066 130.487639979 1 100 1 c 0
 80.4350278454 1 58.8645245817 -1.18968804922 39.5300495779 -3.80990899632 c 1
 32.0096374107 51.6828238688 l 1
 52.6751033747 54.4834215985 76.4141085675 57 100 57 c 0
 133.203620446 57 153.232746603 54.1045897179 173.228812991 50.3814077406 c 1
40.4299248884 638.808589733 m 1
 22.0772527656 691.71586169 l 1
 43.5041281075 699.148496245 57.1953455787 708.699242829 75.497913348 728.906903566 c 1
 117.004039777 691.313799559 l 1
 94.6363917974 666.617929146 70.8772417681 649.370268743 40.4299248884 638.808589733 c 1
362.624273265 487.126586732 m 1
 399.375726735 444.873413268 l 1
 263.200464567 326.429320176 l 1
 262.629662241 325.942405968 171.508685807 248.056783646 136.639551927 222.292080468 c 1
 103.360448073 267.330966407 l 1
 134.573291527 290.39404706 226.652233826 368.859255054 226.652233826 368.859255054 c 1
 362.624273265 487.126586732 l 1
316.921843523 445.02279606 m 1
 321.314484602 500.850250815 l 1
 340.591736401 499.333469358 359.091471587 498 381 498 c 0
 397.496562493 498 416.55883728 499.63177457 433.688156105 501.898348563 c 1
 441.034118836 446.382253316 l 1
 422.071232281 443.873059229 401.03081704 442 381 442 c 0
 356.788318303 442 336.393848212 443.490690969 316.921843523 445.02279606 c 1
472.482345477 49.9952125123 m 1
 460.428158744 -4.69204909589 l 1
 446.543346144 -1.63155349032 438.459991318 0 418 0 c 0
 396.817795435 0 375.951518329 -2.20385615352 356.607816814 -4.88356977052 c 1
 348.923433186 50.5866947705 l 1
 369.526353041 53.4408498992 392.980681549 56 418 56 c 0
 441.925603 56 457.548310158 53.2869781835 472.482345477 49.9952125123 c 1
EndSplineSet
Fore
SplineSet
123 281 m 1
 180.985074627 321.391361178 260.298507463 399.79672476 308 439 c 1
 311 441 310 444 308 445 c 1
 301.181694878 447 290.954915364 448 283 449 c 1
 287 503 l 1
 310.587091619 501 331.130637429 498 357 498 c 1
 386.496159958 498 419.503840042 501 449 505 c 1
 454 448 l 1
 386.5 438.857632212 399 445 327 382 c 1
 227 298 l 1
 299.374416923 211.133918595 363.138196791 137.606341146 427 61 c 1
 436 52 446 57 478 48 c 1
 475 -10 l 1
 450.044335938 -5 443.14140625 0 415 0 c 5
 390.102713815 0 368.570065789 -3.26681857639 343 -7 c 1
 338 49 l 1
 347.729375 49.5998535157 356.810937499 51.4001464843 362 52 c 1
 307.871345029 116.762376238 263.111111111 170.034653465 184 263 c 1
 179.86440678 258.402994792 129.203389831 221.597005208 123 217 c 1
 123 160.125 122.62109375 97.7333984375 123 86 c 0
 124 55 124.064453125 56.490234375 141 54 c 0
 154.088867188 52.0751953125 171.360351562 50.3330078125 187 46 c 1
 180 -9 l 1
 147.525390625 -2.154296875 138.811523438 0 100 0 c 1
 75.6943359375 0 51.388671875 -4.2001953125 25 -9 c 1
 18 48 l 1
 28 49.71484375 39.111328125 52.142578125 48 53 c 1
 67 55.4853515625 67 55 67 79 c 1
 67 129.717773438 67 216.842105263 67 280 c 3
 67 452.042441042 67 565.257832432 67 617 c 0
 67 639.559688048 67.0622577483 645 60 645 c 3
 53.9172374697 645 43 638 16 634 c 1
 7 688 l 1
 42.7177451313 695.633789062 61.3312669837 710.478515625 89 745 c 1
 127 708 l 1
 125.6 693.508474576 123 665.523927257 123 651 c 0
 123 590.631438078 123 398.815616097 123 281 c 1
EndSplineSet
Validated: 33
Substitution2: "case-1" K
Substitution2: "pcap-1" k.pcap
Substitution2: "smcp-1" k.smcp
EndChar

StartChar: l
Encoding: 108 108 11
Width: 245
VWidth: 1159
Flags: HMW
AnchorPoint: "Top" 132 720 basechar 0
AnchorPoint: "Bottom" 122 -15 basechar 0
LayerCount: 2
Back
SplineSet
149 15 m 1
 93 15 l 1
 93 723 l 1
 149 723 l 1
 149 15 l 1
222.118609942 46.7299428018 m 1
 216.145958427 -8.95064119189 l 1
 188.30566643 -5.96431543435 l 0
 154.25892026 -2.3122461579 161.40149868 0 128 0 c 0
 104.210952674 0 76.9688942688 -2.41386147174 51.8599558019 -4.93597762275 c 1
 50.8676779251 -4.81194288816 52.8549488643 -4.83603360973 51.8599558019 -4.93597762275 c 0
 24.0001500541 -7.7344099871 l 1
 18.4032853254 47.9852015084 l 1
 46.2630910731 50.7836338727 l 0
 71.8455588562 53.3533145967 100.585922326 56 128 56 c 0
 165.553579445 56 168.438345365 52.4880274079 194.278317945 49.7162685593 c 0
 222.118609942 46.7299428018 l 1
37.4152750924 625.687114404 m 1
 19.0826222168 678.60132647 l 1
 45.5397282497 687.767652908 l 0
 68.9039771274 695.86242835 74.275673323 702.975811159 99.1574523965 728.612341709 c 0
 118.65846598 748.704889312 l 1
 158.843561187 709.702862145 l 1
 139.342547604 689.610314541 l 0
 116.640669297 666.219808781 99.1258619091 647.067358439 63.8723811253 634.853440842 c 0
 37.4152750924 625.687114404 l 1
EndSplineSet
Fore
SplineSet
149 303 m 7
 149 227.28372231 149 103.382944357 149 67 c 7
 149 55.0300425982 151.294117647 54.7 176 53 c 5
 191.599689094 50.7138671875 205.400310906 48.7138671875 221 47 c 5
 216 -9 l 5
 180.685953776 -4.84643554687 151.257023112 0 113 0 c 5
 84.1466686321 0 49.3736088591 -4.80034722222 22 -8 c 5
 20 48 l 5
 30.9680989584 48.66640625 43.5805431548 50.33359375 54 52 c 5
 92.64 54.619047619 93 53.6243842624 93 69 c 7
 93 123.262416295 93 217.718514277 93 276 c 7
 93 509.638806503 93 570.697390429 93 608 c 7
 93 625.882965455 92.5713867187 642 87 642 c 7
 76.4900927572 642 50.7091385691 630.570312501 37 626 c 5
 18 679 l 5
 61.2927312078 689.817062628 84.4636560392 704.634125256 118 744 c 5
 159 709 l 5
 155.5 694 149 664.976383513 149 650 c 7
 149 581.9609375 149 418.947361748 149 303 c 7
EndSplineSet
Validated: 1
Substitution2: "case-1" L
Substitution2: "pcap-1" l.pcap
Substitution2: "smcp-1" l.smcp
EndChar

StartChar: m
Encoding: 109 109 12
Width: 816
VWidth: 1159
Flags: HMW
AnchorPoint: "Top" 412 537 basechar 0
AnchorPoint: "Bottom" 415 -15 basechar 0
LayerCount: 2
Back
SplineSet
72 473 m 1
 128 473 l 1
 128 33 l 1
 72 33 l 1
 72 473 l 1
44.4551162743 418.025960405 m 1
 33.8941690262 473.02110922 l 1
 50.857526705 476.278653375 59.2887881892 478.976299251 79.2474789271 502.136192742 c 1
 121.668536698 465.578651008 l 1
 95.8690703341 435.641171594 70.8787645097 423.100203518 44.4551162743 418.025960405 c 1
196.053460177 452.492363955 m 1
 231.946539823 409.507636045 l 1
 150.953375761 341.87677667 l 1
 115.060296114 384.86150458 l 1
 196.053460177 452.492363955 l 1
173.012981772 33.1343481768 m 1
 202.630215393 28.357375012 l 1
 202.415205101 27.0243112029 201.700897318 22.1455633687 201.207869183 19.0887889374 c 0
 196.949874655 -7.31077713749 l 1
 170.382436529 -4.27123149111 l 0
 149.557304325 -1.88865551134 134.88101727 0 105 0 c 0
 83.5916616021 0 59.1920515114 -2.20175824133 38.7931880558 -4.2099544252 c 1
 33.3067080778 51.5206344596 l 1
 54.0734855578 53.565050482 79.9612487086 56 105 56 c 0
 126.387327244 56 141.96699654 55.0163003197 155.981669241 53.6444438341 c 0
 156.97691245 53.5470223045 173.012981772 33.1343481768 173.012981772 33.1343481768 c 1
448.867019621 40.2191082344 m 1
 392.890792879 38.5875323906 l 1
 391.80437396 75.8604743775 391 157.205819411 391 186 c 0
 391 209.658408197 391.320108849 233.910401852 391.322909171 257.777337376 c 0
 391.337682977 383.693385592 377.294625028 456 329 456 c 0
 304.389826269 456 277.269793863 443.442712681 249.492449316 423.97385839 c 1
 217.351181844 469.831670431 l 1
 248.722968695 491.81983226 286.023247849 512 329 512 c 0
 447.0215508 512 447.335072523 361.441391302 447.322908785 257.770766862 c 0
 447.320051379 233.417304053 447 209.152394948 447 186 c 0
 447 158.064885564 447.818233548 76.2009397013 448.867019621 40.2191082344 c 1
489.520698789 448.036050645 m 1
 526.479301211 405.963949355 l 1
 526.479301211 405.963949355 481.18612397 366.154352246 462.579394072 348.371067214 c 1
 423.887354725 388.854719361 l 1
 444.244023123 408.310498987 489.354409531 447.889972404 489.520698789 448.036050645 c 1
486.634140145 50.7137493212 m 1
 478.347656828 -4.66976983599 l 1
 457.954691311 -1.61857390048 443.116437582 0 410 0 c 0
 391.980790504 0 372.654769991 -1.97665861269 359.221581957 -3.98952958443 c 1
 350.923013123 51.3921799892 l 1
 366.655371941 53.749565913 388.067930329 56 410 56 c 0
 444.81294834 56 464.814969957 53.9783340301 486.634140145 50.7137493212 c 1
544.445655841 418.105135092 m 1
 513.76913627 464.955440823 l 1
 544.087754149 484.807385441 579.183420218 500 621 500 c 0
 739.265507088 500 752.018320655 403.505342314 754 350 c 1
 756.000522809 309.01370286 756 232.938889829 756 190 c 0
 756 123.428733768 756.653063038 62.5735963753 757.093938858 31.0665685403 c 1
 701.099420517 30.2830408347 l 1
 700.655398303 62.0149245049 700 123.062508684 700 190 c 0
 700 232.860619541 699.952809028 308.625398481 698.050547043 347.5985482 c 1
 696.023034338 402.341391219 692.679185914 444 621 444 c 0
 593.047954844 444 569.505724823 434.513900939 544.445655841 418.105135092 c 1
780.7771158 51.6186547697 m 1
 771.11071296 -3.5407565409 l 1
 757.468870422 -1.15009387226 746.374064452 0 728 0 c 0
 712.131622085 0 697.258200242 -1.95396873242 685.243671642 -4.24406008961 c 1
 674.758281483 50.7655444646 l 1
 689.313152225 53.5398508731 707.597236131 56 728 56 c 0
 748.851777955 56 764.668667703 54.4415773631 780.7771158 51.6186547697 c 1
EndSplineSet
Fore
SplineSet
756 190 m 3
 756 137.327828335 757 88.7868852459 757 64 c 1
 757 55 758 54 762 54 c 1
 772.047802734 53.7269965277 792.012426758 48.9896918402 801 47 c 1
 790 -8 l 1
 767.499904467 -2.85697115385 754.49997877 0 729 0 c 3
 704.724420721 0 686.673262163 -3.5 668 -7 c 1
 659 48 l 1
 671.000266335 49.5 684.249733665 52.25 695 54 c 1
 697 54.5625 700 55 700 72 c 1
 700 94.987654321 700 151.851851852 700 170 c 3
 700 217.71875 699 303.385913479 699 319 c 3
 699 418.005050376 683.008196171 444 622 444 c 3
 576.09823331 444 542.1328125 425.157894737 447 334 c 1
 447 330 447 328 447 327 c 1
 447 307.258333333 447 252.344492744 447 224 c 3
 447 159.308152787 447 92.3833040149 448 70 c 1
 449 55 449 55 460 54 c 1
 470.461538462 52.8002929687 490.5 50.1997070313 502 48 c 1
 495 -7 l 1
 459.999715564 -2.50024414063 450.833396541 0 410 0 c 3
 383.07715941 0 360.192130442 -3 340 -6 c 1
 332 49 l 1
 343.851963141 50.1111886161 358.110777243 52.3335658483 372 54 c 1
 393 57 392 55.8947368421 392 72 c 1
 392 98.7551020408 391 165.036934926 391 186 c 3
 391 234.999883742 393 306 387 358 c 0
 380.886117269 410.986983665 366.66213613 456 329 456 c 3
 273 456 215 397 128 322 c 1
 128 241.522943773 128 113.853061224 128 78 c 1
 128 55.92 129 56 147 54 c 1
 151.8 53.2728794643 165.327455357 50.3638392857 171 50 c 1
 162 -5 l 1
 138.991096048 -1.6923828125 130.624023438 0 105 0 c 3
 75.5451766304 0 44.4548233696 -4.19982910156 15 -7 c 1
 11 48 l 1
 20.7560716712 49.3330078125 25.956233141 50.8840259046 36 52 c 0
 72 56 72 54 72 71 c 1
 72 104.54129759 72 189.513396787 72 232 c 3
 72 252.965073529 72 373.730418153 72 392 c 0
 72 422 70.7826086957 423 68 423 c 3
 59.3683143029 423 48.8950570913 416.333333333 14 415 c 1
 9 470 l 1
 52 475 56.8125 474 94 520 c 1
 128 494 l 1
 128 461.634863281 128 434.980273437 128 395 c 1
 205 461 255.694213868 512 329 512 c 3
 383.049586777 512 422 480 438 402 c 1
 486.157894737 446.86746988 541.807017544 500 621 500 c 7
 740 500 752 404 754 350 c 1
 756 309.024414062 756 232.926757812 756 190 c 3
EndSplineSet
Validated: 33
Substitution2: "case-1" M
Substitution2: "pcap-1" m.pcap
Substitution2: "smcp-1" m.smcp
EndChar

StartChar: n
Encoding: 110 110 13
Width: 533
VWidth: 1159
Flags: HMW
AnchorPoint: "Top" 286 537 basechar 0
AnchorPoint: "Bottom" 277 -15 basechar 0
LayerCount: 2
Back
SplineSet
129 25 m 1
 73 25 l 1
 73 506 l 1
 129 506 l 1
 129 25 l 1
474.384453078 14.8985483441 m 1
 418.407337407 16.4993359842 l 1
 419.207731227 44.4878938201 l 0
 420.110455821 76.0548036298 420 142.632368024 420 190 c 0
 420 240.525480411 418 328.210017505 418 380 c 0
 418 440.02251965 401.114719004 463 321 463 c 0
 298.83644416 463 266.162683701 447.294607588 230.339127895 422.261516769 c 1
 208.262779471 406.205546904 123.147455853 346.125130176 123.147455853 346.125130176 c 1
 124.147455853 346.125130176 123.96441549 346.701825028 123.147455853 346.125130176 c 0
 100.272586029 329.977674323 l 1
 67.9776743228 375.727413971 l 1
 90.8525441469 391.874869824 l 0
 91.6695037835 392.451564676 91.8525441469 391.874869824 90.8525441469 391.874869824 c 1
 90.9114907762 391.916480469 175.693456992 451.76262419 197.828840855 467.861530106 c 1
 236.196732946 494.672574003 276.943567409 519 321 519 c 0
 423.294426313 519 474 467.976925508 474 380 c 0
 474 329.324902363 476 241.64946926 476 190 c 0
 476 142.535744648 476.140121933 76.2916251495 475.184846898 42.8871061799 c 1
 475.184846898 43.8871061799 475.156261405 41.8875148287 475.184846898 42.8871061799 c 0
 474.384453078 14.8985483441 l 1
529.274419259 46.5756068166 m 1
 517.443293449 -8.16034537257 l 1
 490.075317354 -2.24478246739 l 0
 491.052745072 -2.45605257114 491.075042809 -2.22135140204 490.075317354 -2.24478246739 c 1
 476.680474002 0.650500624715 467.270261435 2 448 2 c 0
 431.437248281 2 414.583407917 0.281424027771 400.098230283 -1.88527843707 c 1
 400.098230283 -0.885278437066 401.087227392 -1.73734359439 400.098230283 -1.88527843707 c 0
 372.40631122 -6.02745403209 l 1
 364.12196003 49.356384092 l 1
 391.813879092 53.4985596871 l 0
 392.802876202 53.6464945297 391.813879092 54.4985596871 391.813879092 53.4985596871 c 1
 408.24639629 55.9565464936 427.651049037 58 448 58 c 0
 470.176744107 58 485.993959083 55.930638546 501.906443164 52.4911697218 c 1
 500.906443164 52.4911697218 502.883870882 52.2798996181 501.906443164 52.4911697218 c 0
 529.274419259 46.5756068166 l 1
15.9376007731 428.128598785 m 1
 4.12942755497 482.869507119 l 1
 31.4998817221 488.773593728 l 0
 50.2136967756 492.810354835 59.7106643143 494.306500198 79.2402808977 514.987087859 c 0
 98.4646734439 535.344463211 l 1
 139.179424148 496.895678119 l 1
 119.955031602 476.538302766 l 0
 119.268446154 475.811253647 119.955031602 477.538302766 119.955031602 476.538302766 c 1
 92.0248863336 446.96210422 64.7190814237 438.651262564 43.3080549401 434.032685394 c 0
 15.9376007731 428.128598785 l 1
192.611825974 49.0232044302 m 1
 184.79273568 -6.4282322237 l 1
 157.067017353 -2.51868707695 l 0
 158.057221579 -2.65831368934 157.067017353 -1.51868707695 157.067017353 -2.51868707695 c 1
 139.35840357 -0.0216327443546 125.50461833 2 99 2 c 0
 78.8978537061 2 57.4355161261 -0.0840503210254 37.927907988 -2.13516946831 c 1
 37.927907988 -1.13516946831 38.9224257122 -2.03060132588 37.927907988 -2.13516946831 c 0
 10.0814117127 -5.06307745636 l 1
 4.2255957366 50.6299150944 l 1
 32.072092012 53.5578230824 l 0
 51.8699339352 55.6394587374 75.1733373893 58 99 58 c 0
 128.480152059 58 147.255817184 55.4187597031 164.886107647 52.932749577 c 0
 192.611825974 49.0232044302 l 1
EndSplineSet
Fore
SplineSet
73 421 m 3
 73 434.09765625 69.3076171875 436 67 436 c 3
 52.818359375 436 36.455078125 429 19 427 c 1
 9 482 l 1
 46.1875 492.22265625 56.8125 485.06640625 94 528 c 1
 136 498 l 1
 130 487.563476562 130 432.400390625 129 416 c 1
 185.754882812 458.041015625 256.961914062 517 321 517 c 3
 424 517 474 467 474 378 c 3
 474 327.333007812 476 239.640625 476 188 c 3
 476 149.794921875 476 94.6845703125 476 70 c 0
 476 53.6015625 478.666992188 53.4287109375 484 53 c 1
 489.125 52 517.953125 48 525 47 c 1
 523 -10 l 1
 487.151367188 -3.845703125 472.444335938 0 432 0 c 3
 408.827148438 0 387.103515625 -4.5 369 -9 c 1
 367 48 l 1
 380.39453125 50 406.069335938 52 415 54 c 1
 419 54.4169921875 420 55.9658203125 420 83 c 3
 420 118.430664062 420 191.655273438 420 220 c 3
 420 262.729492188 418 357.1171875 418 373 c 3
 418 430.03515625 405.053710938 460 321 460 c 3
 274.956054688 460 175 387.900390625 129 357 c 1
 129 258.362304688 129 103.098632812 129 62 c 1
 130 55 142 54 149 53 c 1
 158.696289062 51.75 178.090820312 49.25 189 48 c 1
 187 -8 l 1
 154.599609375 -4.36328125 142.663085938 0 106 0 c 3
 73 0 40 -4.2001953125 7 -7 c 1
 7 49 l 1
 24.0908203125 50.6669921875 38.181640625 52.677734375 54 54 c 0
 73.0556640625 55.5927734375 74 56 73 69 c 1
 73 98.09375 73 166.671875 73 202 c 3
 73 235.751953125 73 396.2265625 73 421 c 3
EndSplineSet
Validated: 1
Substitution2: "case-1" N
Substitution2: "pcap-1" n.pcap
Substitution2: "smcp-1" n.smcp
EndChar

StartChar: o
Encoding: 111 111 14
Width: 550
VWidth: 1159
Flags: W
HStem: -11 56<187.407 362.078> 461 56<198.623 363.762>
VStem: 20 56<152.781 332.952> 474 56<165.478 347.309>
AnchorPoint: "Bottom" 278 -15 basechar 0
AnchorPoint: "Ogonek" 413 18 basechar 0
AnchorPoint: "Top" 275 537 basechar 0
LayerCount: 2
Back
SplineSet
275 464 m 4
 201.356997728 464 76 385.202940327 76 238 c 4
 76 131.055239446 167.905286348 45 275 45 c 4
 394.790175771 45 474 153.666205904 474 254 c 4
 474 355.056631152 398.700623389 464 275 464 c 4
EndSplineSet
Fore
SplineSet
275 517 m 3
 436.282226562 517 530 379 530 254 c 3
 530 128.572953737 431.922851562 -11 275 -11 c 3
 138.782226562 -11 20 97.9962264151 20 238 c 3
 20 419 171.474609375 517 275 517 c 3
275 461 m 0
 201.357421875 461 76 385.202940327 76 238 c 0
 76 131.055239446 167.905286348 45 275 45 c 0
 394.790175771 45 474 153.666205904 474 254 c 0
 474 355.056631152 398.700195312 461 275 461 c 0
EndSplineSet
Validated: 1
Substitution2: "case-1" O
Substitution2: "pcap-1" o.pcap
Substitution2: "smcp-1" o.smcp
EndChar

StartChar: p
Encoding: 112 112 15
Width: 526
VWidth: 1159
Flags: HMW
AnchorPoint: "Top" 269 537 basechar 0
AnchorPoint: "Bottom" 141 -154 basechar 0
LayerCount: 2
Back
SplineSet
68 476 m 1
 124 476 l 1
 124 -128 l 1
 68 -128 l 1
 68 476 l 1
31.2444415141 401.702411338 m 1
 15.0271439514 455.302777566 l 1
 36.0880255146 461.674946401 52.6713458008 471.852611963 73.6870328164 498.668887524 c 1
 117.764139059 464.126034351 l 1
 91.448578938 430.54705541 63.0788239117 411.334204708 31.2444415141 401.702411338 c 1
113.383878479 387.418613979 m 1
 90.6161215207 438.581386021 l 1
 149.712620081 464.879701429 l 1
 193.944852027 483.395519453 242.129595638 509 290 509 c 0
 412.296915738 509 507 380.36885824 507 291 c 0
 507 127.93183881 377.07068569 9 251 9 c 0
 224.384748012 9 184.453833476 13.8143408509 161.812126699 23.0768572595 c 1
 91.0236677605 53.2411155023 l 1
 112.97633224 104.758884498 l 1
 183.391312661 74.753772288 l 1
 191.422683749 71.4682113887 232.259116447 65 251 65 c 0
 343.197859492 65 451 157.471055739 451 291 c 0
 451 350.723192176 373.731655354 453 290 453 c 0
 262.96801025 453 219.392766532 433.389845157 171.902223226 413.459647285 c 1
 113.383878479 387.418613979 l 1
167.115429236 -108.249065164 m 1
 164.552539514 -164.190387961 l 1
 142.248079095 -163.16853382 126.25852059 -162 97 -162 c 0
 82.1309498045 -162 61.1432092087 -166.139322294 40.9991576627 -170.001155943 c 1
 30.4553590363 -115.002716779 l 1
 49.953091002 -111.264789619 73.3848850396 -106 97 -106 c 0
 127.824765533 -106 145.766843366 -107.271003357 167.115429236 -108.249065164 c 1
EndSplineSet
Fore
SplineSet
68 80 m 3
 68 206.243333333 68 372.133333333 68 393 c 1
 68 406.333333333 68.6396078054 413 64 413 c 3
 56.3170731706 413 34 399.181818182 1 394 c 1
 -9 451 l 1
 35.6440677966 458 52.3389830508 468 85 514 c 1
 109.731707317 505.285714286 120.195121951 496.571428571 124 453 c 1
 174.985714286 475.909090909 234.271428571 509 290 509 c 3
 412 509 507 374 507 285 c 3
 507 122 377 3 251 3 c 3
 210.8984375 3 178 8.677734375 124 33 c 1
 124 -10.546875 124 -74.4845360825 124 -89 c 1
 124.733333333 -106.5 124.6 -106 135 -107 c 1
 162.661016949 -107.8 182.322033898 -109.4 193 -110 c 1
 191 -165 l 1
 155.823529412 -164 139 -162 100 -162 c 3
 76.7741935484 -162 44.5161290323 -170.307692308 20 -174 c 1
 11 -119 l 1
 23.9807692308 -116.380952381 38.5961538462 -113.666666667 52 -111 c 1
 68 -108 68 -109 68 -95 c 1
 68 -65.1219512195 68 -11.7682926829 68 80 c 3
290 453 m 3
 258.168607553 453 173.12244898 414.940591398 124 392 c 1
 124 231.214007782 124 177.657226562 124 95 c 1
 162.702148438 75.2001953125 202.396484375 59 254 59 c 3
 344.022460938 59 450 152.938476562 450 284 c 3
 450 353.736328125 366.968687253 453 290 453 c 3
EndSplineSet
Validated: 1
Substitution2: "case-1" P
Substitution2: "pcap-1" p.pcap
Substitution2: "smcp-1" p.smcp
EndChar

StartChar: q
Encoding: 113 113 16
Width: 574
VWidth: 1159
Flags: HMW
AnchorPoint: "Top" 307 537 basechar 0
AnchorPoint: "Bottom" 438 -154 basechar 0
LayerCount: 2
Back
SplineSet
562.097923646 -111.202643238 m 1
 558.995449563 -167.116636608 l 1
 531.038452879 -165.565399567 l 0
 511.307039856 -164.47057171 493.569941359 -164 464 -164 c 0
 442.977305221 -164 418.357463757 -167.528848926 396.098591242 -170.980776078 c 0
 368.429338602 -175.271750132 l 1
 359.847390493 -119.933244852 l 1
 387.516643133 -115.642270797 l 0
 388.504830727 -115.489021724 387.516643133 -114.642270797 387.516643133 -115.642270797 c 1
 410.142330697 -112.133457619 437.138789969 -108 464 -108 c 0
 494.09292443 -108 513.361618583 -108.498434252 534.140926961 -109.651406197 c 0
 562.097923646 -111.202643238 l 1
414.562390381 424.446688457 m 2
 388.706580537 439.840294052 348.273274901 458 318 458 c 0
 185.194035247 458 93 335.505509894 93 237 c 0
 93 163.188096309 174.236542041 56 249 56 c 0
 296.779094875 56 340.890221218 69.5577919432 381.658738428 84.2203910471 c 0
 477.87164717 118.823840131 l 1
 496.823840131 66.1283528295 l 1
 400.610931389 31.5249037453 l 0
 358.328654908 16.3178736235 307.351820836 0 249 0 c 0
 130.662354069 0 37 138.626620641 37 237 c 0
 37 364.101856257 149.930651345 514 318 514 c 0
 376.552777127 514 494.895776585 469.019439417 483.844441365 422.933199583 c 0
 471.855194928 372.935685642 434.853550093 410.124420108 434.853550093 410.124420108 c 0
 414.562390381 424.446688457 l 2
459.850402608 516.994173584 m 1
 514.228548584 503.614441142 l 1
 507.538682363 476.425368154 l 0
 496.575543607 431.868785114 493.538393968 422.984854376 492.02182185 319.461877628 c 1
 491.769369143 298.349474125 494 163.718907602 494 119 c 0
 494 -38.4600981533 494.05240512 -96.9718470215 494.110293647 -125.433284497 c 0
 494.110293647 -126.433284497 494.108259722 -124.433286565 494.110293647 -125.433284497 c 0
 494.167243525 -153.433226581 l 1
 438.167359357 -153.547126337 l 1
 438.110409478 -125.547184253 l 0
 438.108375554 -124.547186322 438.110409478 -126.547184253 438.110409478 -125.547184253 c 0
 438.052343687 -96.9985930205 438 -38.4748124725 438 119 c 0
 438 163.128275217 435.743095688 296.487047068 436.026275502 320.169132328 c 0
 437.536167101 423.236089013 441.988219585 444.398372431 453.160536387 489.805100596 c 0
 459.850402608 516.994173584 l 1
EndSplineSet
Fore
SplineSet
438 104 m 1
 438 205.306122449 433 295.885714286 438 396 c 1
 439 394.555555556 437 404.666666667 435 409 c 1
 410 428 362.85 458 318 458 c 3
 187.984616295 458 93 338 93 237 c 3
 93 163.93838217 173.837833105 56 251 56 c 3
 334.006023878 56 409.73255814 97.6645962733 438 104 c 1
438 45 m 1
 386.34 27.5806451613 323.34 0 249 0 c 3
 131 0 37 139 37 237 c 3
 37 364 150 514 318 514 c 3
 380.556521739 514 425.12173913 481 445 481 c 1
 453.5 481 455.8 503.114285714 463 524 c 1
 514 501 l 1
 509.125 482.957446809 505.5 472.808510638 501 448 c 1
 497.545454545 431 492 398.007727422 492 321 c 3
 492 296.979175701 494 164 494 119 c 1
 494 -17.71875 494 -68.03125 494 -91 c 3
 494 -108.041594579 495 -108 506 -109 c 1
 528.188679245 -109.5 541.924528302 -110 562 -111 c 1
 559 -167 l 1
 524 -165 497 -164 445 -164 c 1
 420.275229358 -164 390.605504587 -171 368 -175 c 1
 363 -119 l 1
 378.888888889 -117.5 392.333333333 -114.5 407 -113 c 1
 438 -110 437 -107 437 -104 c 1
 438 -91.8861788618 438 -11.9349593496 438 45 c 1
EndSplineSet
Validated: 33
Substitution2: "case-1" Q
Substitution2: "pcap-1" q.pcap
Substitution2: "smcp-1" q.smcp
EndChar

StartChar: r
Encoding: 114 114 17
Width: 406
VWidth: 1159
Flags: HMW
AnchorPoint: "Top" 178 537 basechar 0
AnchorPoint: "Bottom" 161 -15 basechar 0
LayerCount: 2
Back
SplineSet
394.999556362 448.53874928 m 1
 339.005233021 447.741407761 l 1
 338.920255956 453.709030311 332.54225505 463.84656171 324.823929861 469.201202666 c 1
 308.505107381 463.752620408 265.5868747 438.173778515 232.186264713 408.748940195 c 1
 122.63076497 311.097976255 l 1
 85.3692350296 352.902023745 l 1
 195.046157162 450.661216055 l 1
 239.673837931 489.976734298 291.136416599 526 327 526 c 0
 358.45547476 526 394.392421964 491.175535405 394.999556362 448.53874928 c 1
70 480 m 1
 126 480 l 1
 126 30 l 1
 70 30 l 1
 70 480 l 1
44.8335036391 408.045543992 m 1
 25.3123976489 460.532936964 l 1
 40.0111319409 465.999688764 56.7214889403 480.283664121 74.2802592798 505.743404231 c 1
 120.37989697 473.949955144 l 1
 99.5956552016 443.813369063 75.6611020603 419.510941341 44.8335036391 408.045543992 c 1
226.771212214 54.6678192384 m 1
 225.140897161 -1.30844423842 l 1
 189.001171623 -0.255870613491 145.24475243 1 112 1 c 0
 88.6682933099 1 61.1090486559 -1.568231292 36.3916216188 -4.05667744133 c 1
 30.7821342818 51.6616647075 l 1
 55.8199106472 54.1823622741 84.7856496075 57 112 57 c 0
 146.549135557 57 190.566362924 55.7222896 226.771212214 54.6678192384 c 1
EndSplineSet
Fore
SplineSet
126 220 m 3
 126 185.985351562 126 100.514648438 126 84 c 1
 126 54.8330078125 127.19140625 56.4306640625 152 56 c 0
 177.333984375 55.560546875 203.768554688 54.5 228 54 c 1
 226 -3 l 1
 195.88671875 -2 146.415039062 0 112 0 c 3
 81.6904296875 0 45.3193359375 -4.7998046875 14 -8 c 1
 9 48 l 1
 26.6083984375 50 49 53 63 54 c 1
 70.615234375 54.240234375 70.384765625 54.2001953125 70 85 c 1
 70 112.36328125 70 227.681640625 70 257 c 3
 70 283.11328125 70 369 70 401 c 1
 70 415.76953125 68.92578125 417 68 417 c 3
 64 417 47 403 10 402 c 1
 5 457 l 1
 38 458 54 473 88 524 c 1
 104.12109375 515 126 510 126 481 c 3
 126 467.5 126 412 126 388 c 1
 208 461 274.298828125 517 327 517 c 3
 356 517 395 482.046875 395 439 c 3
 395 436.413085938 391.8125 421.857421875 344 423 c 1
 340.200195312 438.567382812 332.919921875 459 325 459 c 3
 310.857421875 459 254 435.416015625 126 315 c 1
 126 286.422851562 126 233.90234375 126 220 c 3
EndSplineSet
Validated: 33
Substitution2: "case-1" R
Substitution2: "pcap-1" r.pcap
Substitution2: "smcp-1" r.smcp
EndChar

StartChar: s
Encoding: 115 115 18
Width: 396
VWidth: 1159
Flags: HMW
AnchorPoint: "Top" 210 537 basechar 0
AnchorPoint: "Bottom" 205 -15 basechar 0
LayerCount: 2
Back
SplineSet
32.4547529499 114.638967522 m 1
 87.0732144386 127.001154408 l 1
 89.4240596008 116.614679334 92 101.806660454 92 87 c 0
 92 78.7705145215 91.390280341 69.3336197522 90.6977517188 62.8619353343 c 1
 120.733209956 54.8735758898 152.265339114 49 189 49 c 0
 262.290632982 49 321 92.0820806758 321 135 c 0
 321 183.883611955 314.564862771 198.144816486 207.485315261 232.326039968 c 0
 206.866531504 232.523564018 l 1
 206.257572799 232.749569294 l 0
 145.773015285 255.197444721 50 272.398839973 50 372 c 0
 50 443.206279083 120.793526919 514 210 514 c 0
 250.480780276 514 289.027638448 507.73068454 322.599466935 502.352742582 c 0
 342.376891618 499.184555241 l 1
 345.766659609 479.443901475 l 0
 348.253481724 464.961643547 351.800898371 447.912151691 354.699047893 431.108482656 c 1
 299.513812245 421.590617006 l 1
 297.873155436 431.103257335 296.430653589 438.485639199 294.209485623 450.142987834 c 1
 268.357993052 454.114597908 237.710157633 458 210 458 c 0
 148.894598632 458 106 406.761686279 106 372 c 0
 106 321.205927976 146.608442705 314.48032829 225.125884551 285.479043201 c 1
 334.223870784 250.495212977 377 214.000556145 377 135 c 0
 377 42.3643224247 274.266884883 -7 189 -7 c 0
 134.760627373 -7 89.844428753 4.25486431535 50.9587858315 15.9734243935 c 0
 26.239996459 23.422667779 l 1
 31.6625590729 48.6636184298 l 0
 34.4930908878 61.8391811559 36 73.2513336354 36 87 c 0
 36 94.6308633814 34.0336743227 107.662996605 32.4547529499 114.638967522 c 1
EndSplineSet
Fore
SplineSet
82 156 m 1
 105 79.7064220183 67.9838720166 48 192 48 c 3
 276.324324324 48 322 104.515671201 322 136 c 3
 322 192.195652174 295.605174917 202.176610726 214 230 c 0
 148.678261317 252.271530761 50 274.581395349 50 372 c 3
 50 443 121 514 210 514 c 3
 259 514 304 505 344 499 c 1
 341.9 490.074380165 353.8 443.958677686 358 409 c 1
 313 390 l 1
 293.79661017 429.594936709 310.004999875 458 210 458 c 3
 139.428571429 458 106 400.027027026 106 371 c 3
 106 330.603960396 125.19227382 320.518007677 230 285 c 0
 339.985611511 247.727272727 377 211.363636363 377 135 c 3
 377 42.5570469799 274 -7 189 -7 c 3
 123 -7 73 9 25 24 c 1
 31 43 36 64 36 87 c 1
 36 104.666666667 29.6470588235 129.246376812 24 140 c 1
 82 156 l 1
EndSplineSet
Validated: 33
Substitution2: "case-1" S
Substitution2: "pcap-1" s.pcap
Substitution2: "smcp-1" s.smcp
EndChar

StartChar: t
Encoding: 116 116 19
Width: 336
VWidth: 1159
Flags: HMW
AnchorPoint: "Top" 160 599 basechar 0
AnchorPoint: "Bottom" 174 -15 basechar 0
LayerCount: 2
Back
SplineSet
279.086006902 87.4270723769 m 1
 312.68121404 42.6234781306 l 1
 280.194880383 18.2641577081 237.779265137 -8 182 -8 c 0
 152.010509417 -8 74 10.5934966778 74 133 c 0
 74 238.872060684 79.0529167128 339.706982336 81.8622466083 439.462226107 c 1
 68.4382870144 438.965701991 l 1
 58.8953318413 438.463208727 47.7712403937 438.183807997 39.0427914734 438.078220358 c 1
 38.3654116516 494.074123392 l 1
 46.7964217594 494.176112927 56.4883940289 494.414049559 65.9308536106 494.911251134 c 1
 139.290895296 497.624685243 l 1
 138.608841506 467.902556059 l 0
 136.056604199 356.68269618 130 247.427559229 130 133 c 0
 130 43.0687399355 170.862670593 48 182 48 c 0
 219.366683007 48 249.420466217 65.1828752107 279.086006902 87.4270723769 c 1
86.374625134 569.56151527 m 1
 142.342171741 567.655281605 l 1
 141.559696531 544.681593453 140.772550878 520.798304073 140.073607337 497.400178411 c 1
 160.59578179 497.990342953 l 1
 205.215420379 499.603039932 250.945906752 501.319945382 291.827338791 503.921032691 c 1
 295.383157287 448.034038186 l 1
 253.306880406 445.356928693 207.574999006 443.65175733 162.41203071 442.019422672 c 1
 82.4634899736 439.720309871 l 1
 83.2551337588 469.308454592 l 0
 84.1673440261 503.402841369 85.2662251305 537.018585203 86.374625134 569.56151527 c 1
EndSplineSet
Fore
SplineSet
10 498 m 1
 93 499 84 483.892857143 87 602 c 1
 143 590 l 1
 142.142857143 558.651685393 140.857421875 533.393554688 140 501 c 1
 202.833007812 503.25 264.583007812 505.5 322 510 c 1
 321 453 l 1
 261.129882812 449 201.258789062 447 138 445 c 1
 139 427.352539062 130 222.655634673 130 140 c 3
 130 69.5555555561 152.733333334 49 185 49 c 3
 231.162226562 49 275.126308595 84.4651162792 307 110 c 1
 307 110 330 56.8849487305 330 56 c 1
 295.915039062 29.25390625 248.375976562 -8 182 -8 c 3
 153.841666667 -8 73 7.63829787234 73 139 c 3
 73 243.211594706 79 346.841796875 82 444 c 1
 58.6669921875 443 37.7890625 442 12 442 c 1
 10 498 l 1
EndSplineSet
Validated: 33
Substitution2: "case-1" T
Substitution2: "pcap-1" t.pcap
Substitution2: "smcp-1" t.smcp
EndChar

StartChar: u
Encoding: 117 117 20
Width: 539
VWidth: 1159
Flags: HMW
AnchorPoint: "Bottom" 277 -15 basechar 0
AnchorPoint: "Ogonek" 428 18 basechar 0
AnchorPoint: "Top" 278 537 basechar 0
LayerCount: 2
Back
SplineSet
486.303101912 61.2591588497 m 1
 511.528972011 11.2626041913 l 1
 493.453501587 2.14258638138 472.520451944 -10.0710676383 453.998216897 -17.000986755 c 0
 451.035981881 -18.1092789784 447.251103745 -19.6661290234 442.494223147 -20.9381959598 c 0
 411.382654042 -29.257933565 l 1
 407.468335197 2.70807766543 l 0
 406.455005135 10.9833667843 400.626376468 102.931818444 404.036745423 169.434013055 c 0
 408.734547787 261.041159162 409.145290131 355.953398114 419.685409389 424.82601504 c 1
 414.399737073 422.142382204 411.105004058 420.53448288 406.584768761 418.396796251 c 1
 382.643746864 469.021172499 l 1
 401.37260129 477.878326842 420.170826637 488.407118622 434.909249843 498.735351062 c 0
 456.842126976 514.105234932 l 1
 489.138442223 472.120025109 l 1
 484.406172761 457.980213392 l 0
 466.561850433 404.662168008 466.003385023 284.348530642 459.963254577 166.565986945 c 0
 458.111492055 130.456617762 459.398704928 82.4084762405 460.921116946 48.066003665 c 1
 468.042677561 51.7740597143 477.906475005 57.0226225311 486.303101912 61.2591588497 c 1
51.1753073003 390.99394397 m 1
 25.0668867097 440.535344579 l 1
 45.6458183287 451.380484107 68.4216143111 472.718579052 90.4133984744 494.410838062 c 0
 146.650276578 549.881777423 l 1
 137.904003321 471.37627267 l 0
 127.921348275 381.773152567 125.01119962 287.901960537 127.991254099 168.699781352 c 0
 128.939981072 130.750702435 134.364811877 100.417953213 144.44630096 81.1375706085 c 1
 157.197260292 61.5679740711 182.942071221 48 208 48 c 0
 261.395930903 48 360.157134784 104.747611481 410.594118848 135.00980192 c 1
 439.405881152 86.99019808 l 1
 389.842865216 57.2523885186 288.591895628 -8 208 -8 c 0
 163.879685381 -8 119.913526667 14.4910611141 96.4479506962 52.2711963982 c 0
 96.0151832813 52.9679622266 l 1
 95.6239447713 53.6888663002 l 0
 77.8154085556 86.503239053 73.0507745149 125.619074076 72.0087459006 167.300218648 c 0
 69.7426959122 257.94221818 70.7343285627 333.053711833 75.8359866137 406.573531789 c 1
 68.0610584198 400.937489044 59.8576091694 395.569535013 51.1753073003 390.99394397 c 1
EndSplineSet
Fore
SplineSet
360 464 m 1
 393.471830986 469.043478261 429.676056338 494.434782609 457 514 c 1
 490 471 l 1
 465.414285714 429.190031152 459 176.710316051 459 128 c 3
 459 107.604903991 459 87.2098765435 461 69 c 1
 464.333333333 58 468 56 475 56 c 3
 482.674418604 56 498.790697674 68.3636363635 508 73 c 1
 530 22 l 1
 514.515151515 13.5641848524 478.004758266 -8.82225639594 457 -17 c 0
 454.683015256 -17.8670599102 444.625 -22 439 -22 c 3
 416.713072708 -22 407.875725339 33.3142857142 404 66 c 1
 349.811764706 35.3793103448 276.023529411 -8 208 -8 c 3
 164.338983051 -8 119.779661017 14 96 53 c 1
 79 84 72 115.990385504 72 168 c 3
 72 230.915490103 71 268 75 390 c 1
 75 396 74 399 70 399 c 3
 64.1860465117 399 38.6046511627 382.82352941 20 374 c 1
 4 432 l 1
 32.8986486487 439.831168831 59.1013513516 463.025974026 95 499 c 1
 138 471 l 1
 127.239130435 390.273722628 127 261.996350365 127 168 c 3
 127 91.6850204463 151.746031746 49 209 49 c 3
 264.236111111 49 353.152777777 101.023440317 403 130 c 1
 408 341 417 395.231980539 417 405 c 3
 417 421.833316535 410.608695652 418.363636364 375 410 c 1
 360 464 l 1
EndSplineSet
Validated: 33
Substitution2: "case-1" U
Substitution2: "pcap-1" u.pcap
Substitution2: "smcp-1" u.smcp
EndChar

StartChar: v
Encoding: 118 118 21
Width: 545
VWidth: 1159
Flags: HMW
AnchorPoint: "Top" 278 537 basechar 0
AnchorPoint: "Bottom" 253 -15 basechar 0
LayerCount: 2
Back
SplineSet
40.3624246581 473.30499583 m 1
 90.3049958301 498.637575342 l 1
 102.971285586 473.666289756 l 0
 158.310233979 364.566884091 211.4764324 214.333111904 250.644704979 72.6815714966 c 1
 259.428287502 92.1423607025 267.889712518 108.795269625 277.240140956 126.083186509 c 1
 329.260765246 218.134428608 408.356460151 369.463753511 435.95782588 472.260910331 c 0
 443.218736211 499.303084452 l 1
 497.303084452 484.781263789 l 1
 490.04217412 457.739089669 l 0
 459.594083643 344.33973246 379.676282815 193.578564357 326.243613976 98.9737324311 c 1
 310.927294705 70.5899528087 295.429992519 38.3453720534 284.080776583 5.78430847406 c 0
 277.533472851 -13 l 1
 215.271169672 -13 l 1
 209.886399396 8.065642984 l 0
 170.941088756 160.422747891 111.996610452 332.079921585 53.028714414 448.333710244 c 1
 52.028714414 448.333710244 52.5763469227 449.225541872 53.028714414 448.333710244 c 0
 40.3624246581 473.30499583 l 1
4.03511994166 453.735433287 m 1
 14.6429766598 508.721553134 l 1
 42.1360365834 503.417624775 l 0
 58.2626659645 500.306494652 73.0169559439 499 87 499 c 0
 107.530035327 499 126.984301761 500.28045057 143.881141377 504.304587846 c 0
 171.119322974 510.791610532 l 1
 184.093368344 456.315247339 l 1
 156.855186748 449.828224654 l 0
 133.364324668 444.233660469 109.66688988 443 87 443 c 0
 69.4893812393 443 51.0562958917 444.664164054 31.5281798652 448.431504928 c 1
 32.5281798652 448.431504928 30.546284868 448.620930941 31.5281798652 448.431504928 c 0
 4.03511994166 453.735433287 l 1
365.611053235 454.148673608 m 1
 375.27855642 509.307892077 l 1
 402.858165655 504.474140485 l 0
 422.310238174 501.064864968 439.553499053 499 452 499 c 0
 465.955117011 499 483.376313417 503.081310098 497.660042845 507.483960685 c 1
 498.367149626 508.191067467 496.704407942 507.1894069 497.660042845 507.483960685 c 0
 524.417820127 515.731466666 l 1
 540.912832089 462.215912101 l 1
 514.155054806 453.96840612 l 0
 513.199419903 453.673852335 515.155054806 453.96840612 514.155054806 453.96840612 c 1
 497.553167933 448.85123365 475.596994138 443 452 443 c 0
 433.930098969 443 414.245499248 445.62473736 393.19066247 449.314922015 c 0
 365.611053235 454.148673608 l 1
EndSplineSet
Fore
SplineSet
539 461 m 1
 509.245117188 450.186523438 487.40234375 449.178710938 482 430 c 0
 469.88671875 387 415.223803268 259.686823172 375 187 c 0
 340.249044336 124.202940443 298 50 269 -13 c 1
 215 -13 l 1
 179.788907285 135.000261426 120.336914062 302.599609375 67 421 c 0
 61.7607421875 432.631835938 57.154296875 438.599609375 51 443 c 1
 34.5576171875 448 21.5771484375 448.833007812 6 453 c 1
 12 508 l 1
 32.2529296875 501.555664062 62.6318359375 498 86 498 c 3
 117.649414062 498 146.982421875 500.057617188 174 510 c 1
 183 455 l 1
 168.674804688 450.713867188 156.953125 447.62890625 127 443 c 1
 124.77734375 442 122 441.471679688 122 439 c 3
 122 436 121.681640625 433.637695312 124 429 c 0
 162 353 220 186 250 72 c 1
 295 161 373 291 421 425 c 0
 423.559570312 432.14453125 424 436.482421875 424 440 c 3
 424 444.764648438 417.655273438 443.090820312 365 453 c 1
 375 509 l 1
 400 503 433 498 451 498 c 3
 477.212890625 498 505.8828125 507 528 514 c 1
 539 461 l 1
EndSplineSet
Validated: 1
Substitution2: "case-1" V
Substitution2: "pcap-1" v.pcap
Substitution2: "smcp-1" v.smcp
EndChar

StartChar: w
Encoding: 119 119 22
Width: 793
VWidth: 1159
Flags: HMW
AnchorPoint: "Top" 408 537 basechar 0
AnchorPoint: "Bottom" 383 -15 basechar 0
LayerCount: 2
Back
SplineSet
782 461 m 5
 718 440 726.570860145 448.082644785 721 418 c 4
 691.648442208 354.786077863 636.554546348 212.682099288 631 204 c 4
 585.669905154 130.004857731 558 72.3076923077 540 -10 c 5
 486 -10 l 5
 466.666846742 106.252687787 436.600108046 210.664815081 408 314 c 5
 393.333333333 287.565217391 357.382471766 209.440268215 333 165 c 4
 304.469340012 111.938322726 274 54.4972375691 256 -12 c 5
 211 -12 l 5
 194.969216418 124.181510676 127.747494027 311.791761954 71 425 c 4
 67.1272726156 433.168440705 74.0963266631 436.874421729 68 438.984375 c 4
 48.3446691176 446.603365385 28.6893382353 449.143028846 8 455.4921875 c 5
 16 508.4921875 l 5
 41.0107421875 504.4921875 77.13671875 499.4921875 104 499.4921875 c 5
 132.118811881 499.4921875 151.099009901 503.4921875 175 509.4921875 c 5
 183 457 l 5
 161.62890625 451.221516926 131.021484376 444 133 444 c 4
 131 444 130 444 129 443 c 5
 129 441 128.524742716 438.917597238 129 438 c 4
 164.798253676 354 217.100873162 217 245 116 c 5
 283 189 341 310 386 391 c 5
 386.4453125 401.6953125 380.333984376 408.884765624 377 418.015625 c 5
 375.814433477 428.760612998 375.597695254 436.76252637 365 441 c 4
 351.838755161 445.426200564 340.999461207 447.327844099 325 450.4921875 c 5
 333 504.4921875 l 5
 348.959681919 501.159179688 370.99975903 499.4921875 390 499.4921875 c 5
 415.811291881 499.4921875 442.339521585 505.206054688 466 509.4921875 c 5
 476 454.4921875 l 5
 457.130859376 450.937835693 431.521484376 449.23688168 436 446.984375 c 5
 434.285714286 445.734375 427.482460485 444.650390624 432 437.984375 c 7
 432 431.984375 435.680398075 428.182281274 436 422.4921875 c 4
 452.01654895 361.261462744 483.943989166 253.431205171 519 112 c 5
 558.2 205.296167247 643.305298808 310.634858132 663 415 c 4
 668.54881856 431.9824861 670 444 654 445 c 5
 647.454659599 446.737379808 650.625 445.352764423 600 453 c 5
 610 508 l 5
 634.444335938 503.5 668.666992188 499 687 499 c 5
 713.866210938 499 743.333007812 506.3125 765 512 c 5
 782 461 l 5
EndSplineSet
Fore
SplineSet
782 460 m 1
 718 439 726.571289062 447.083007812 721 417 c 0
 706 336 636.382835403 212.786738099 631 204 c 0
 585.669905154 130.004857731 558 72.3076923077 540 -10 c 1
 486 -10 l 1
 466.666846742 106.252687787 436.600108046 210.664815081 408 314 c 1
 393.333333333 287.565217391 357.019370765 209.671525314 333 165 c 0
 304.469340012 111.938322726 274 54.4972375691 256 -12 c 1
 211 -12 l 1
 195.198227612 124.181510676 120.045898438 332 73 424 c 0
 65.5458984375 439.240234375 68.310546875 435.993164062 53 441.4921875 c 0
 38.2587890625 447.4921875 23.5166015625 449.4921875 8 454.4921875 c 1
 16 507.4921875 l 1
 41.0107421875 503.4921875 77.13671875 498.4921875 104 498.4921875 c 1
 132.911132812 498.4921875 152.42578125 502.4921875 177 508.4921875 c 1
 185 456 l 1
 169.286132812 450.221679688 146.780273438 443 135 443 c 0
 133 443 132 443 131 442 c 1
 131 440 130.606445312 437.918945312 131 437 c 0
 169 353 219.666666667 217 245 116 c 1
 283 189 341 310 386 391 c 1
 382.666666667 405.083333333 379.333984375 418.213867188 376 429 c 1
 375.09375 434.142578125 371.533203125 438.653320312 365 440 c 0
 352.244140625 443.25390625 339.799804688 446.328125 323 449.4921875 c 1
 331 503.4921875 l 1
 349.759765625 500.159179688 375.666015625 498.4921875 398 498.4921875 c 1
 421.43359375 498.4921875 445.518554688 504.206054688 467 508.4921875 c 1
 477 453.4921875 l 1
 465.434570312 449.62890625 449.739257812 447.192382812 439 444.4921875 c 1
 436 443.2421875 432 442.825195312 432 439.4921875 c 3
 432 433.4921875 434.1015625 428.654296875 436 421.4921875 c 0
 452.315429688 359.942382812 483.943989166 253.431205171 519 112 c 1
 558.2 205.296167247 632 295 663 414 c 0
 667.388671875 430.848632812 670 443 654 444 c 1
 647.455078125 445.737304688 650.625 444.352539062 600 452 c 1
 610 507 l 1
 634.444335938 502.5 668.666992188 498 687 498 c 1
 713.866210938 498 743.333007812 505.3125 765 511 c 1
 782 460 l 1
EndSplineSet
Validated: 33
Substitution2: "case-1" W
Substitution2: "pcap-1" w.pcap
Substitution2: "smcp-1" w.smcp
EndChar

StartChar: x
Encoding: 120 120 23
Width: 553
VWidth: 1159
Flags: W
HStem: -6 56<35.375 84.6889 353.364 379.796 443.044 517.268> 445 57<46 124.126 371.875 397> 447 59<179.31 210.037 459.311 517.362>
AnchorPoint: "Top" 297 537 basechar 0
AnchorPoint: "Bottom" 270 -15 basechar 0
LayerCount: 2
Back
SplineSet
431.665699103 480.134155763 m 1
 474.334300897 443.865844237 l 1
 117.334300897 23.8658442373 l 1
 74.6656991027 60.1341557627 l 1
 431.665699103 480.134155763 l 1
113.134043376 439.839924886 m 1
 158.865956624 472.160075114 l 1
 452.865956624 56.1600751138 l 1
 407.134043376 23.8399248862 l 1
 113.134043376 439.839924886 l 1
59.4400898848 444.166658224 m 1
 62.5599101152 500.079686417 l 1
 84.0550761269 498.880304879 106.969542238 498 126 498 c 0
 146.331688754 498 173.882231827 499.609792979 195.415848895 502.842128869 c 1
 203.728682355 447.462558631 l 1
 178.264692604 443.640248253 149.084758846 442 126 442 c 0
 105.307556306 442 81.6299937335 442.928511889 59.4400898848 444.166658224 c 1
507.171963787 50.8301944793 m 1
 499.966582644 -4.70432165785 l 1
 479.384061729 -2.03382196876 455.292777005 0 438 0 c 0
 418.500638054 0 393.236576643 -1.63290324781 372.377137075 -3.74264274328 c 1
 366.74200355 51.9731114933 l 1
 389.192212096 54.2437425664 415.578859997 56 438 56 c 0
 459.265886209 56 484.72091546 53.7431281196 507.171963787 50.8301944793 c 1
153.384366225 53.3383243851 m 1
 148.361727525 -2.43598063509 l 1
 127.304943504 -0.539755871813 110.283255355 1 89 1 c 0
 77.3044460705 1 62.1500247164 -0.810782270114 49.3665584566 -2.49432586789 c 1
 42.0546653774 53.0262668847 l 1
 55.2205578988 54.7601748571 72.1892675882 57 89 57 c 0
 113.090876084 57 132.480748346 55.2207560909 153.384366225 53.3383243851 c 1
388.456938799 443.164978992 m 1
 391.291343862 499.093202171 l 1
 405.301172516 498.383193395 416.647891812 499 433 499 c 0
 454.547801576 499 476.247133504 498.924904108 499.93778012 501.212317 c 1
 505.319742853 445.471537699 l 1
 478.268599806 442.859657392 454.345260351 443 433 443 c 0
 418.525929838 443 405.720796461 442.290058195 388.456938799 443.164978992 c 1
EndSplineSet
Fore
SplineSet
29 50 m 1xc0
 71 57 70.546875 57 82 69 c 1
 95 82 243 257 243 257 c 1
 243 257 143.115384615 397.692545071 137 405 c 1
 109 447 115.1 439.469387755 46 445 c 1
 46 502 l 1xc0
 68.9629629629 500 101.555555556 498 126 498 c 3
 151.591666667 498 188.941666667 500.4 209 506 c 1
 217 452 l 1
 209.647058824 449.5 203 448 192 447 c 0xa0
 186.636950953 446.512450087 179 445 179 441 c 1
 185.558441558 436.199278086 274.753246753 305.800845287 280 301 c 1
 379 418 l 1
 383 422.166666667 393 433.722222222 397 443 c 1
 390.4 443 377.933333333 444 364 446 c 1
 373 502 l 1
 395.857142857 497.5 410.142578125 498 433 498 c 3
 460.692382812 498 494.846041166 499 517 505 c 1
 520 448 l 1
 473 443 474 443 452 417 c 0
 407.719110184 364.668039309 360.014705882 306.728087543 313 255 c 1
 351.35971223 199.408707157 395.989699677 136.097925458 437 78 c 0
 461 44 449.546511629 60 520 50 c 1
 517 -8 l 1
 497.23255814 -4 464.093023256 0 442 0 c 0
 415.357798165 0 381.449541284 -3 354 -7 c 1
 347 49 l 1
 356.672413793 50.875 372.603448276 52.75 380 54 c 1
 379.142857143 60 377 66 377 68 c 1
 369.714285714 77.4117647059 279.857142857 205.647385818 275 208 c 1
 270.572815534 203.260568926 168.747572816 83.4788621472 161 74 c 1
 156.142857143 70.6666666667 144 57.3333333333 144 54 c 1
 149.102040816 53.125 174.612244898 48.75 194 47 c 1
 186 -5 l 1
 160.034883721 -3 135.860351562 0 109 0 c 0
 85.404296875 0 57.3837890625 -4 36 -6 c 1
 29 50 l 1xc0
EndSplineSet
Validated: 33
Substitution2: "case-1" X
Substitution2: "pcap-1" x.pcap
Substitution2: "smcp-1" x.smcp
EndChar

StartChar: y
Encoding: 121 121 24
Width: 529
VWidth: 1159
Flags: HMW
AnchorPoint: "Top" 262 537 basechar 0
AnchorPoint: "Bottom" 333 -15 basechar 0
LayerCount: 2
Back
SplineSet
307.34238631 265.34627732 m 1
 357.506727177 240.455738848 l 1
 293.672365074 111.80409464 218.719322144 -2.41616750624 181.144008371 -150.870430083 c 1
 126.855991629 -137.129569917 l 1
 167.120521606 21.9493706312 245.710778697 141.134060052 307.34238631 265.34627732 c 1
178.665615597 -118.549471461 m 1
 170.297115286 -173.920657131 l 1
 165.50552883 -173.196482775 167.845977581 -173 155 -173 c 0
 130.160656036 -173 113.286841567 -173.880857475 97.9360609413 -174.66920417 c 1
 95.0639390587 -118.742905205 l 1
 110.404564683 -117.955080025 128.849109589 -117 155 -117 c 0
 168.248457057 -117 175.576189811 -118.082552425 178.665615597 -118.549471461 c 1
239.172856917 31.7554309256 m 1
 184.827143083 18.2445690744 l 1
 152.635199291 147.732545812 93.4729769238 364.798513991 65.5146910064 437.407365958 c 1
 117.774371494 457.530134042 l 1
 148.323898076 378.191720384 206.499566334 163.179563563 239.172856917 31.7554309256 c 1
35.7829382498 445.576989141 m 1
 42.5937817897 501.161271184 l 1
 65.8325536612 498.313782048 68.8755295097 497 87 497 c 0
 112.017260684 497 129.88160073 498.644434073 149.248175287 501.416682432 c 1
 157.183465338 445.981755068 l 1
 135.98558677 442.947362802 114.535473691 441 87 441 c 0
 64.9408767403 441 55.824139148 443.121304212 35.7829382498 445.576989141 c 1
481.141088557 503.861477488 m 1
 498.540317794 450.633037515 l 1
 482.879775411 445.513943906 464.099460353 441 443 441 c 0
 426.774688112 441 410.156272814 443.340804538 391.759471799 446.170096304 c 1
 400.271778201 501.519356821 l 1
 418.022964565 498.789355807 432.491919944 497 443 497 c 0
 456.012406254 497 468.848718418 499.843366756 481.141088557 503.861477488 c 1
420.83684564 477.280702858 m 1
 471.16315436 452.719297142 l 1
 441.794696058 392.543339943 400.581202734 318.721003982 356.958595126 239.407270252 c 1
 307.890518361 266.394745916 l 1
 351.581319591 345.832467893 392.574898917 419.371987359 420.83684564 477.280702858 c 1
EndSplineSet
Fore
SplineSet
178 -175 m 1
 154.035714286 -174 161.297619048 -173 117 -173 c 1
 96.7594936709 -173 93.1265822785 -175 76 -176 c 1
 77 -156.423728814 80 -142.440677966 73 -121 c 1
 160 -111 114 -130 184 23 c 1
 151.751233553 153.282226562 96 354 68 432 c 0
 66.80859375 435.3203125 63.806640625 443.630859375 60 444 c 0
 44.5458984375 445.5 33.63671875 446.75 20 449 c 1
 28 506 l 1
 48.611328125 502 77.8115234375 498 101 498 c 1
 125.854492188 498 143.874023438 500.333007812 165 505 c 1
 176 451 l 1
 161.43359375 447.8671875 147.143554688 444.4453125 130 444 c 1
 128.666992188 444 126 444 126 441 c 3
 126 438.599609375 126.270507812 433.987304688 128 429 c 0
 152.219726562 359.180664062 198.476509785 192.438409161 221 102 c 1
 272 194 340 330 387 411 c 0
 394.458984375 423.854492188 402 439.086914062 402 445 c 1
 398.618164062 445.700195312 386.217773438 447.099609375 371 452 c 1
 382 507 l 1
 395.291015625 503.25 420.607421875 498 432 498 c 1
 458.161132812 498 482.202148438 504 502 510 c 1
 514 456 l 1
 468.361328125 442.25 469.400390625 450.193359375 452 416 c 0
 402.130859375 318 320.322492125 176.922698268 255 43 c 0
 231.575007512 -5.025390625 184 -110 178 -175 c 1
EndSplineSet
Validated: 33
Substitution2: "case-1" Y
Substitution2: "pcap-1" y.pcap
Substitution2: "smcp-1" y.smcp
EndChar

StartChar: z
Encoding: 122 122 25
Width: 592
VWidth: 1159
Flags: HMW
AnchorPoint: "Bottom" 305 -15 basechar 0
AnchorPoint: "Top" 312 537 basechar 0
LayerCount: 2
Back
SplineSet
498.281711415 175.034505637 m 1
 552.627307366 161.523169627 l 1
 508.357570015 -16.5395517186 l 1
 478.649013501 -4.87028868516 l 0
 470.643595677 -1.72583007638 461.561739128 0 448.06571724 0 c 1
 419.978078385 -0.13184659086 l 0
 378.116230367 -0.328350895717 301.055942292 -0.731549685447 261.024219656 -0.443640197593 c 1
 250.751026044 -0.310222098733 242.30302399 -0.120818493381 233 -3.5527136788e-015 c 0
 178.059393286 0.713514372907 126.658857468 -2.3982134481 96.8522482393 -7.80323658793 c 1
 -10.2443669841 -27.5201710578 l 1
 73.7078926817 41.3256718303 l 0
 150.846820347 104.584177507 224.347284039 196.713474874 284.385202956 268.799572684 c 1
 327.558034641 321.824308616 381.199634596 385.504213088 433.076499916 442.714998659 c 1
 396.193297905 442.241775281 353.5316286 443 297 443 c 0
 206.704895338 443 165.249636219 444.559996855 134.066305477 452.15281344 c 1
 126.745345925 432.724655831 118.563750892 410.570848908 112.404328396 393.732045944 c 0
 102.785581447 367.436044211 l 1
 50.1935779817 386.673538109 l 1
 59.8123249305 412.969539842 l 0
 69.0262059249 438.158707608 82.6747312881 475.010292506 91.4874203414 497.609703698 c 0
 102.275401327 525.274587453 l 1
 129.25971328 512.882120573 l 0
 150.618316207 503.073244222 176.823421004 499 297 499 c 0
 399.630809146 499 461.089858888 497.028798133 497.122186186 502.851806754 c 0
 579.692837461 516.195646862 l 1
 521.797139462 455.828894618 l 0
 455.34507851 386.540584119 384.092267539 302.565878739 327.614797044 233.200427316 c 1
 282.812739166 179.4076646 231.665753893 115.29783305 171.888959116 55.3187172757 c 1
 191.334185498 56.023911855 212.292588154 56.2736497776 233.727211403 55.9952780471 c 0
 243.254880466 55.8715420853 252.007190849 55.6781864237 261.589201829 55.5537447227 c 1
 300.576470019 55.2733469861 377.971687702 55.671587573 419.715210873 55.8675364474 c 0
 447.93428276 56 l 1
 455.454493293 56 459.495856599 55.8557800127 468.40326205 54.8567426327 c 1
 491.52604341 147.861707662 l 1
 492.52604341 147.861707662 491.767317268 148.832164732 491.52604341 147.861707662 c 0
 498.281711415 175.034505637 l 1
EndSplineSet
Fore
SplineSet
448 -0 m 1
 448 -1 233 -1 233 -0 c 1
 156 1 87 -5 71 -16 c 1
 58 40 l 1
 164 94 306 312 434 443 c 1
 394.566037736 443 363.433962264 443 324 443 c 3
 257.835564981 443 212.028731806 440.415116943 144 450 c 0
 132.471543898 451.624297567 133 450 103 368 c 1
 50 386 l 1
 50 386 102 530 104 526 c 1
 142 508 129 499 297 499 c 3
 418 499 481 496 515 507 c 1
 540 466 l 1
 473 424 279 162 172 55 c 1
 182.810810811 55 361.189189189 56 372 56 c 3
 450.006409993 56 451.324324324 56.4444444444 463 61 c 1
 470.846153846 60.6363636364 471.994457892 68.0598407855 480 103 c 0
 484.165935019 121.182208134 493.411764706 152.576271186 499 178 c 1
 552 159 l 1
 507 -22 l 1
 488 -10 480 0 448 -0 c 1
EndSplineSet
Validated: 33
Substitution2: "case-1" Z
Substitution2: "pcap-1" z.pcap
Substitution2: "smcp-1" z.smcp
EndChar

StartChar: A
Encoding: 65 65 26
Width: 733
VWidth: 1159
Flags: HMW
AnchorPoint: "Top" 382 679 basechar 0
AnchorPoint: "Bottom" 368 -15 basechar 0
LayerCount: 2
Back
SplineSet
501.517158251 244.889535954 m 1
 500.913916169 188.892785164 l 1
 481.896484375 189.09765625 l 0
 402.033178507 189.958008077 336.583033344 190.474609076 232.088867188 191.700195312 c 0
 213.061272188 191.923365269 l 1
 213.718037169 247.919513884 l 1
 232.745632169 247.696343927 l 0
 337.142610798 246.471897579 402.534819068 245.9558534 482.499726456 245.09440704 c 0
 501.517158251 244.889535954 l 1
660.029821817 1.49150874634 m 0
 637.585972022 2.46204415146 617.610380341 3.2646484375 597.002929688 3.2646484375 c 0
 572.670984368 3.2646484375 547.920494113 1.72543522256 525.214197456 -2.30033369867 c 1
 515.438004654 52.8397248278 l 1
 540.072308093 57.2073244711 565.682285652 58.9434240066 590.269077458 59.2291545216 c 1
 590.040379358 59.7852950759 589.807320039 60.3501573669 589.638716643 60.7543942409 c 0
 500.985136926 273.306731973 453.572207018 372.847281335 384.869427975 593.149190049 c 0
 384.009679842 595.90604128 383.818998081 596.51542365 382.518539212 600.60465077 c 1
 381.703456033 598.39592425 379.741756798 593.145837409 378.266600058 589.287322828 c 0
 320.636063529 438.546488969 247.61972923 278.82172674 159.814358936 77.0518219635 c 0
 157.146499197 70.9212879916 154.021449658 65.0269175795 150.384806064 59.1831487292 c 1
 169.547105874 58.7059482748 190.522604056 57.3728770984 210.76791938 54.74695151 c 1
 203.564758502 -0.787852652556 l 1
 179.739912139 2.30235724058 155.968835707 3.4072265625 131.09375 3.4072265625 c 0
 114.867566788 3.4072265625 98.2622280296 2.79603643704 83.0059843081 1.82415497535 c 1024
71.91093183 58.7160915568 m 2
 86.0675135605 65.9401559748 101.489437278 83.3662758783 108.465820312 99.3974609375 c 0
 196.495867958 301.683656777 269.267957318 461.001742533 325.958984375 609.28515625 c 0
 337.088754579 638.396897015 340.423892247 650.364312243 344.232003431 666.934767806 c 0
 349.190994786 688.513115163 l 1
 414.651234185 688.955765947 l 1
 420.106410664 667.799997372 l 0
 424.511206021 650.717721198 429.072227049 639.507329842 438.330078125 609.821289062 c 0
 506.189127143 392.224879858 552.059202465 296.327476083 641.323242188 82.3115234375 c 0
 644.503411942 74.6868734485 649.441670606 64.5485118009 650.563869857 63.1598019211 c 1
 655.576959734 59.575014318 661.413738565 58.269927788 668.605834589 57.3644136264 c 2
 695.879455081 54.5517546361 l 1
 697.651544831 31.7258755088 l 1
 697.729783177 30.7289408264 697.609553977 32.2655132458 697.687166075 31.268529614 c 0
 700.140450418 -0.245685132537 l 1
 676.455468545 0.779776825852 l 1
 49.252944539 -0.611784805006 l 1
 45.8383476988 25.633547082 l 0
 44.8801906222 32.998150182 43.6866926944 41.2475469094 42.6253258642 48.951873566 c 1
 56.8020669336 53.3499260749 l 0
 71.91093183 58.7160915568 l 2
EndSplineSet
Fore
SplineSet
237 247 m 1
 284 245 467 245 511 245 c 1
 480 326 414 470 383 585 c 1
 353 505 272 325 237 247 c 1
525 -8 m 1
 525 -8 515 46 515 47 c 1
 527 53 594 49 584 72 c 0
 566 114 553 146 537 189 c 1
 458 190 315 191 211 192 c 1
 193 150 180 117 160 75 c 0
 150 53 187 57 209 51 c 1
 205 -6 l 1
 183 1 157 0 131 0 c 3
 102 0 74 -1 49 -4 c 1
 47 13 45 23 41 47 c 1
 90 57 98 74 108 96 c 0
 198 298 275 460 332 609 c 0
 347 648 347 654 355 689 c 1
 409 689 l 1
 415 657 419 650 432 610 c 0
 502 392 555 285 645 70 c 0
 653 50 663 56 697 52 c 1
 698 35 699 16 700 -3 c 1
 663 -2 629 0 597 0 c 3
 572 0 549 1 525 -8 c 1
EndSplineSet
Validated: 33
Position2: "cpsp-1" dx=0 dy=0 dh=50 dv=100
Substitution2: "c2pc-1" a.pcap
Substitution2: "c2sc-1" a.smcp
EndChar

StartChar: B
Encoding: 66 66 27
Width: 691
VWidth: 1159
Flags: HMW
AnchorPoint: "Bottom" 313 -15 basechar 0
AnchorPoint: "Top" 327 679 basechar 0
LayerCount: 2
Back
SplineSet
152.654514909 679.422573958 m 0
 156.581167949 679.160089097 160.66144067 678.947589192 165.286528556 678.770818108 c 0
 172.994605503 678.476215031 181.761132196 678.311523438 191.860351562 678.311523438 c 0
 252.362782603 678.311523438 299.689306942 688.311523438 357.708007812 688.311523438 c 0
 495.816675558 688.311523438 564.67578125 602.740778983 564.67578125 510.171875 c 0
 564.67578125 441.04112503 530.371823102 384.914321172 457.601454447 360.556494231 c 1
 458.590998584 360.412263861 456.604205862 360.701847558 457.59375 360.557617188 c 0
 561.35057892 345.434607244 628.3638 276.267520937 628.3638 191.9674 c 0
 628.3638 71.046403738 513.582307013 -3.4833984375 363.708007812 -3.4833984375 c 0
 304.471372686 -3.4833984375 263.956027865 1.6025390625 197.6875 1.6025390625 c 0
 184.5651062 1.6025390625 173.371848163 1.50395776299 163.706939263 1.33435781969 c 0
 152.027419422 1.12940545819 142.435655484 0.814261668718 134.435456978 0.448243868189 c 0
 122.367012936 -1.15220251822 112.018868017 -1.21948367446 107.540233029 -1.21482862537 c 1
 105.305430831 54.6936813082 l 1
 111.889274349 55.2278018827 119.563034554 55.7797754017 128.937319021 56.2492081316 c 0
 137.23597893 57.5998795123 144.796052737 60.3495608203 148.263782265 62.829806352 c 0
 151.066492157 64.8344057968 151.447334464 65.518531225 151.848963711 68.2050205187 c 0
 151.957180053 68.9288772786 l 1
 152.103065037 69.6460920004 l 0
 155.198400771 84.8636990221 153.443359375 171.001469464 153.443359375 287.483398438 c 0
 153.443359375 445.350051976 150.764717551 580.363069748 145.428392305 595.936382421 c 0
 144.538174652 598.534357097 l 1
 144.169688498 601.255786471 l 0
 144.169688498 601.255786471 142.122553786 614.123915671 137.300294578 622.44678605 c 0
 136.898046326 623.14103742 136.338709315 623.993364659 135.899184007 624.620203149 c 0
 122.429519416 625.995408919 111.256166913 627.906749264 101.595158948 629.861045808 c 1
 110.445056332 685.10971264 l 1
 122.567266645 683.671627877 135.044301934 682.326204221 141.065351058 681.87175755 c 0
 141.927239837 681.806705351 l 1
 142.783475161 681.688615873 l 0
 145.274362374 681.345079977 149.446295355 680.336256164 152.654514909 679.422573958 c 0
206.802384288 57.5726410995 m 1
 270.841825077 57.1156407259 310.99494 52.5166015625 363.708007812 52.5166015625 c 0
 499.908085735 52.5166015625 572.3638 115.428688091 572.3638 191.9674 c 0
 572.3638 243.125129007 533.317771047 292.928795962 449.516849275 305.14314548 c 0
 213.932229205 339.480630435 l 1
 440.121197251 413.762033362 l 0
 490.442060656 430.287615323 508.67578125 460.672574132 508.67578125 510.171875 c 0
 508.67578125 571.908247626 469.518930872 632.311523438 357.708007812 632.311523438 c 0
 308.630576109 632.311523438 261.080977954 622.928578967 196.930582398 622.331024958 c 1
 198.103944511 617.663317923 198.796944764 614.143810176 199.263832745 611.38508729 c 1
 211.279598193 569.954712932 209.443359375 445.200281122 209.443359375 287.483398438 c 0
 209.443359375 170.421180002 213.31344682 90.7563703079 206.802384288 57.5726410995 c 1
376.554794587 342.083460794 m 2
 380.22081482 324.07023638 l 1
 377.993741056 323.616986185 l 1
 375.737262332 323.345698419 l 0
 352.737246542 320.580494899 344.276515857 320.9453125 258.376953125 320.9453125 c 0
 231.15420918 320.9453125 l 1
 231.15420918 376.9453125 l 1
 258.376953125 376.9453125 l 0
 345.428817813 376.9453125 350.77451937 376.747792945 369.052734375 378.9453125 c 0
 369.30002543 378.975043353 375.924271053 345.181578423 376.554794587 342.083460794 c 2
EndSplineSet
Fore
SplineSet
77 51 m 5
 122 54 151 55 152 70 c 4
 153 79 153 172 153 287 c 3
 153 444 147 581 145 596 c 0
 140 611 145 625 126 626 c 0
 114 627 86 631 75 633 c 1
 84 690 l 1
 115 685 125 678 192 678 c 3
 252 678 300 688 358 688 c 3
 496 688 565 603 565 510 c 3
 565 441 531 385 458 361 c 1
 562 346 628 276 628 192 c 3
 628 71 514 -4 364 -4 c 7
 305 -4 264 1 198 1 c 7
 123 1 113 -2 82 -4 c 5
 77 51 l 5
340 377 m 0
 394 389 510 413 510 509 c 3
 510 561 482 633 360 633 c 3
 331 633 225 625 217 621 c 0
 207 617 203 615 205 580 c 0
 209 501 209 408 210 377 c 1
 297 377 322 373 340 377 c 0
354 320 m 0
 333 321 234 321 210 321 c 1
 211 222 211 133 210 77 c 4
 210 58 213 56 226 56 c 4
 237 56 326 50 366 50 c 7
 474 50 574 101 574 193 c 3
 574 258 520 311 354 320 c 0
EndSplineSet
Validated: 33
Position2: "cpsp-1" dx=0 dy=0 dh=50 dv=100
Substitution2: "c2pc-1" b.pcap
Substitution2: "c2sc-1" b.smcp
EndChar

StartChar: C
Encoding: 67 67 28
Width: 732
VWidth: 1159
Flags: W
HStem: -16 56<307.203 538.098> 632 56<286.57 553.553>
VStem: 43 56<215.879 444.931> 607 52<491.378 596.716> 636 53<131.551 187.717>
AnchorPoint: "Top" 417 679 basechar 0
AnchorPoint: "Bottom" 403 -15 basechar 0
LayerCount: 2
Back
SplineSet
656.587175186 500.844638591 m 1
 603.037016514 518.984975771 l 1
 603.037016514 518.984975771 603.076710128 515.297976511 602.889047033 519.564757103 c 0
 600.99617507 562.601824955 599.235844654 597.009281402 616.259759606 640.844855271 c 1
 668.461369547 620.571919627 l 1
 655.656562901 587.600300044 656.870761136 566.684195767 658.834960938 522.025390625 c 0
 659.269249049 512.151248442 658.63120159 506.878591388 656.587175186 500.844638591 c 1
629.400776787 170.843370582 m 1
 684.142793062 159.040334777 l 1
 676.403436466 123.145502999 663.376475244 94.9366646603 651.735135573 61.7929843494 c 0
 648.101277327 51.4471444896 l 1
 638.408033869 46.3205121247 l 0
 575.993010413 13.3100053053 514.585399261 -15.708984375 428.0703125 -15.708984375 c 0
 201.15801725 -15.708984375 43.310546875 120.719587518 43.310546875 319.893554688 c 0
 43.310546875 502.35727084 166.666564736 688.265625 414.19921875 688.265625 c 0
 510.553712123 688.265625 554.040262933 669.853297482 638.787864895 638.233522462 c 1
 619.212135105 585.766477538 l 1
 531.814103611 618.375141723 503.005816394 632.265625 414.19921875 632.265625 c 0
 200.961101877 632.265625 99.310546875 477.914807521 99.310546875 319.893554688 c 0
 99.310546875 156.2327694 223.883179081 40.291015625 428.0703125 40.291015625 c 0
 497.755687828 40.291015625 544.073451072 60.2732434514 602.641203614 90.7851567685 c 1
 613.358306832 120.108470908 623.93001556 145.47019498 629.400776787 170.843370582 c 1
EndSplineSet
Fore
SplineSet
43 320 m 3xe8
 43 503 166 688 414 688 c 3
 497 688 533 677 607 650 c 0
 620 645 618 648 628 668 c 1
 679 644 l 1
 655 595 657 577 659 522 c 0
 660 486 645 478 607 477 c 1xf0
 598 540 605 589 597 593 c 0
 535 621 488 632 412 632 c 3
 228 632 99 516 99 318 c 3
 99 133 278 40 428 40 c 3
 506 40 617 65 636 199 c 1
 689 186 l 1
 683 135 663 99 648 52 c 1
 582 17 519 -16 428 -16 c 3
 201 -16 43 121 43 320 c 3xe8
EndSplineSet
Validated: 33
Position2: "cpsp-1" dx=0 dy=0 dh=50 dv=100
Substitution2: "c2pc-1" c.pcap
Substitution2: "c2sc-1" c.smcp
EndChar

StartChar: D
Encoding: 68 68 29
Width: 804
VWidth: 1159
Flags: W
HStem: -7 56<72.4 136.461 194.518 520.556> 0 56<193.955 360.789> 619 55<194 382.876> 632 56<195.179 511.021>
VStem: 138 56<56.0862 619.037> 711 57<218.181 449.885>
AnchorPoint: "Top" 382 679 basechar 0
AnchorPoint: "Bottom" 368 -15 basechar 0
LayerCount: 2
Back
SplineSet
86.7855656389 623.61263813 m 1
 92.1860532081 679.351625688 l 1
 122.565179793 676.408226415 141.222407674 674.139648438 177.30859375 674.139648438 c 0
 261.777910324 674.139648438 304.782412065 688.139648438 386.513671875 688.139648438 c 0
 532.293022392 688.139648438 767.565429688 596.180338302 767.565429688 342.34375 c 0
 767.565429688 70.3741086694 552.682994511 -2.65625 364.340820312 -2.65625 c 0
 295.739152892 -2.65625 258.39391652 4.34375 185.22265625 4.34375 c 0
 157.032300822 4.34375 129.170993326 1.71851103125 96.7296887833 -3.31187014926 c 1
 88.1488187953 52.0268023163 l 1
 122.448024173 57.3452714614 153.489053248 60.34375 185.22265625 60.34375 c 0
 262.684472341 60.34375 300.703856051 53.34375 364.340820312 53.34375 c 0
 542.782845941 53.34375 711.565429688 113.934853906 711.565429688 342.34375 c 0
 711.565429688 551.556764751 517.500439005 632.139648438 386.513671875 632.139648438 c 0
 313.263297377 632.139648438 269.112788461 618.139648438 177.30859375 618.139648438 c 0
 138.708830619 618.139648438 116.25856979 620.757032036 86.7855656389 623.61263813 c 1
194.498801232 45.598855 m 1
 138.499245643 45.375754375 l 1
 138.284851318 99.189978091 138.19921875 170.644613063 138.19921875 241.380859375 c 0
 138.19921875 398.844591899 138.163965706 553.665668648 138.127932733 630.916627169 c 1
 194.127926642 630.942747831 l 1
 194.163966733 553.676528048 194.19921875 398.853824623 194.19921875 241.380859375 c 0
 194.19921875 170.693340834 194.284933807 99.2808235387 194.498801232 45.598855 c 1
EndSplineSet
Fore
SplineSet
364 49 m 3x8c
 580 49 711 142 711 340 c 3
 711 526 551 632 387 632 c 3x9c
 298 632 275 619 208 619 c 0
 194 619 194 617 194 597 c 0
 194 531 194 458 194 388 c 3
 194 269 193 170 194 71 c 0
 194 62 195 56 207 56 c 0x6c
 252 57 301 49 364 49 c 3x8c
71 682 m 1
 116 678 134 674 177 674 c 1x6c
 261 674 305 688 387 688 c 3
 533 688 768 596 768 342 c 3
 768 70 552 -7 364 -7 c 3x9c
 295 -7 258 0 185 0 c 3x4c
 150 0 119 -3 73 -11 c 1
 63 43 l 1
 114 53 138 52 138 61 c 0
 138 109 138 177 138 241 c 3
 138 392 138 543 138 616 c 0
 138 621 94 623 67 624 c 1
 71 682 l 1
EndSplineSet
Validated: 33
Position2: "cpsp-1" dx=0 dy=0 dh=50 dv=100
Substitution2: "c2pc-1" d.pcap
Substitution2: "c2sc-1" d.smcp
EndChar

StartChar: E
Encoding: 69 69 30
Width: 683
VWidth: 1159
Flags: W
HStem: -14 55<95.7273 142.082> 1 53<201.292 550.927> 311 55<199 482.271> 623 56<85 143.092 198.915 530.427> 667 20G<558 581>
VStem: 144 55<54.0551 311 366 622.835> 493 50<261.16 311.781 367.967 419.612> 524 54<547 625.272>
AnchorPoint: "Top" 349 679 basechar 0
AnchorPoint: "Bottom" 340 -15 basechar 0
LayerCount: 2
Back
SplineSet
598.375946483 641.956795886 m 0
 595.978145051 634.365335627 584.959340604 607.674669674 580.140354851 565.893341523 c 1
 524.509160865 572.309746723 l 1
 527.061344615 594.437562041 530.654352793 611.045463719 534.89522168 626.931812708 c 1
 490.175594542 624.090801799 421.624896939 623.139648438 348.677734375 623.139648438 c 0
 297.84251365 623.139648438 247.371774386 623.620417216 198.275276447 624.596633608 c 1
 198.542204586 622.013273886 199.045905322 614.880147462 199.203628085 609.662129553 c 1
 199.494889219 596.362295328 199.561523438 474.100603915 199.561523438 345.940429688 c 0
 199.561523438 225.01941582 199.387692475 115.442262014 199.09248817 76.9249426467 c 1
 199.084235234 69.3544419054 199.016515728 62.3602102832 198.716421064 56.1096840866 c 1
 235.570187595 58.5316992132 274.099236044 59.3037109375 312.853515625 59.3037109375 c 0
 390.993797396 59.3037109375 468.673492818 56.5007478173 546.327292015 57.144509288 c 1
 552.558145474 80.979518578 558.69127425 100.682868029 565.864630208 127.754708574 c 1
 619.99652004 113.411121045 l 1
 610.474208455 77.4744545297 603.640868256 57.1667058989 595.515270321 22.9532205914 c 0
 590.492831014 1.80583491042 l 1
 568.760513718 1.4274135764 l 0
 482.718036969 -0.0708301861555 396.674301182 3.3037109375 312.853515625 3.3037109375 c 0
 261.448771446 3.3037109375 211.928450609 1.93265153797 166.95013733 -2.75861183491 c 0
 155.553485856 -3.94728899358 144.340923464 -5.36413425063 133.525940389 -7.01031202754 c 0
 130.51277017 -7.49247317427 127.26644446 -8.00759718506 124.025143336 -8.53582179512 c 1
 114.861315911 46.7086991629 l 1
 117.993424443 47.2373606007 121.54695003 47.8066169474 124.917512784 48.3245771994 c 0
 132.806429845 49.5908235813 139.169324234 50.7632056182 142.188823917 51.5078980609 c 1
 142.804182129 56.2125625612 143.079077417 64.6536493241 143.092722109 77.1700605107 c 1
 143.387763218 115.666086767 143.561523438 225.003349629 143.561523438 345.940429688 c 0
 143.561523438 473.419829986 143.452376406 597.690439047 143.222153165 608.203104822 c 1
 142.984182895 616.07598953 142.253810437 622.007375354 141.670613372 624.777119844 c 1
 136.077188402 625.876342446 125.982417033 626.397207131 110.647708749 627.058202365 c 1
 112.918156606 683.012371777 l 1
 178.748110559 680.506986999 265.47152097 679.139648438 348.677734375 679.139648438 c 0
 439.758100511 679.139648438 524.660563803 680.846618666 558.487606769 685.25326165 c 0
 570.842575751 686.862741304 l 1
 580.309141749 678.762135678 l 0
 584.891765493 674.840753025 601.840804857 668.690473914 598.375946483 641.956795886 c 0
480.448064531 300.695097228 m 2
 480.166626986 304.034381368 479.894663426 308.023340495 479.690791592 311.693614801 c 0
 456.601491591 311.038184879 298.27606693 313.276519613 256.238604251 311.318023198 c 1
 226.025213751 310.926182595 l 1
 225.299004999 366.921473655 l 1
 254.581244556 367.301238064 l 1
 299.235668022 369.29162981 448.001065352 367.264687716 475.803897819 367.624357867 c 1
 480.185276314 374.644063315 483.882924595 389.657283689 485.4388845 398.305710225 c 1
 486.312187206 403.417218157 485.713935461 400.504135934 486.361045361 403.372965227 c 1
 541.224853759 392.212553193 l 1
 541.046309505 391.22862131 541.209828817 392.135177302 540.915519314 390.493014136 c 0
 540.799899411 389.816281946 540.628220028 388.819048035 540.387503799 387.460950101 c 0
 538.093566142 373.96629524 536.679741545 361.987712062 535.938683334 350.154631727 c 0
 535.475400533 342.757017734 535.262695312 335.319525471 535.262695312 327.434570312 c 0
 535.262695312 314.32587039 536.522036877 299.44252347 538.505939845 285.773239784 c 0
 541.964039018 261.946601407 l 1
 506.415638421 251.162634002 l 1
 498.287337548 277.956863324 l 0
 480.448064531 300.695097228 l 2
EndSplineSet
Fore
SplineSet
85 684 m 1xa6
 149 681 253 679 349 679 c 7xb6
 452 679 546 681 570 687 c 1
 592 671 599 660 599 647 c 3
 599 629 580 605 578 543 c 1
 524 547 l 1x2d
 517 575 544 628 528 627 c 0
 487 623 396 623 318 623 c 3
 276 623 237 623 213 623 c 0
 205 623 199 619 199 608 c 0
 198 536 200 433 199 366 c 1
 244 368 469 367 474 368 c 0
 483 369 483 397 494 429 c 1
 547 419 l 1
 539 387 535 357 535 327 c 3
 535 307 538 286 543 262 c 1
 493 248 l 1
 476 291 485 312 477 312 c 0
 443 311 255 311 199 311 c 1
 199 221 198 132 199 72 c 0
 199 57 206 54 212 54 c 0
 260 58 342 56 377 56 c 1
 415 56 499 56 533 55 c 0
 552 55 555 96 568 141 c 1
 622 126 l 1
 607 65 603 57 591 0 c 1
 500 -3 404 1 313 1 c 3x76
 233 1 158 0 97 -14 c 1
 87 41 l 1
 125 49 143 49 143 57 c 1
 143 95 144 225 144 346 c 3
 144 482 143 607 143 619 c 0
 143 625 143 626 82 628 c 1
 85 684 l 1xa6
EndSplineSet
Validated: 33
Position2: "cpsp-1" dx=0 dy=0 dh=50 dv=100
Substitution2: "c2pc-1" e.pcap
Substitution2: "c2sc-1" e.smcp
EndChar

StartChar: F
Encoding: 70 70 31
Width: 618
VWidth: 1159
Flags: W
HStem: -7 54<97.2222 142.415 200.906 299.982> 307 56<200 472.044> 620 56<82 144.999 200 515.444> 669 20G<533.5 557.5>
VStem: 145 55<57.5585 307 363 619.873> 482 54<258.315 306.24 363 403.655> 514 56<550 626.653>
AnchorPoint: "Top" 334 679 basechar 0
AnchorPoint: "Bottom" 245 -15 basechar 0
LayerCount: 2
Back
SplineSet
155 307 m 1
 155 363 l 1
 511 363 l 1
 511 307 l 1
 155 307 l 1
199.268025862 16.1113215646 m 1
 143.26952469 16.521036638 l 1
 143.474382226 44.5202872242 l 0
 143.718093977 77.8300032196 143.814453125 134.445166687 143.814453125 217.107421875 c 0
 143.814453125 371.496602598 144.198718536 570.390275039 144.633453353 634.644517698 c 0
 144.822892926 662.643876845 l 1
 200.82161122 662.264997699 l 1
 200.632171647 634.265638552 l 0
 200.199939584 570.381305419 199.814453125 371.362011795 199.814453125 217.107421875 c 0
 199.814453125 134.387036891 199.71898375 77.7467542135 199.472883399 44.1105721508 c 0
 199.268025862 16.1113215646 l 1
78.4549506038 624.856005906 m 1
 80.7255714323 680.809953765 l 1
 108.702545362 679.674643351 l 0
 161.404731994 677.535979552 234.077005534 675.737304688 305.677734375 675.737304688 c 0
 403.876284067 675.737304688 498.874502593 677.475010604 534.94884671 686.630749035 c 0
 544.152151338 688.966565581 l 1
 552.877888329 685.222454344 l 0
 565.114545366 679.97184856 578.846679688 659.194731066 578.846679688 640.568359375 c 0
 578.846679688 623.311687851 574.591214846 603.59647944 572.023635887 574.34197484 c 0
 569.575571664 546.449198327 l 1
 513.79001864 551.345326773 l 1
 516.238082863 579.238103285 l 0
 518.007331029 599.396579207 520.364503023 615.81393867 521.720195758 627.305674477 c 1
 469.661012081 620.221975366 389.230141626 619.737304688 305.677734375 619.737304688 c 0
 233.138873759 619.737304688 159.926424146 621.549879496 106.431924533 623.720695491 c 0
 78.4549506038 624.856005906 l 1
480.923450301 415.215986346 m 1
 535.227705096 401.539440324 l 1
 528.389432085 374.387312927 l 0
 524.492255742 358.913138615 523.236328125 347.508311307 523.236328125 333.489257812 c 0
 523.236328125 319.100888766 525.613906279 303.283228198 529.371152616 287.157407097 c 0
 535.724848776 259.887816981 l 1
 481.185668543 247.180424662 l 1
 474.831972384 274.450014778 l 0
 474.605054664 275.423928711 474.831972384 275.450014778 474.831972384 274.450014778 c 1
 470.45384939 293.240592185 467.236328125 313.103754624 467.236328125 333.489257812 c 0
 467.236328125 351.327090106 469.200677874 368.669408011 474.08517729 388.063858948 c 0
 480.923450301 415.215986346 l 1
307.292262199 47.4492045858 m 1
 298.664048336 -7.88210594928 l 1
 270.998393068 -3.56799901752 l 0
 271.986452185 -3.72207426508 270.998393068 -2.56799901752 270.998393068 -3.56799901752 c 1
 235.630643783 1.94715147776 205.845538455 4.46875 174.28515625 4.46875 c 0
 158.11827652 4.46875 140.788543211 2.12593862995 126.00815806 -1.9074375746 c 1
 126.00815806 -2.9074375746 126.972882734 -1.6441766714 126.00815806 -1.9074375746 c 0
 98.9958671844 -9.27874286418 l 1
 84.2532566052 44.7458388863 l 1
 111.26554748 52.1171441758 l 0
 112.230272155 52.380405079 111.26554748 53.1171441758 111.26554748 52.1171441758 c 1
 131.217308496 57.5617220605 152.923822742 60.46875 174.28515625 60.46875 c 0
 208.910049067 60.46875 242.094626683 57.6159462947 279.626606932 51.7633115175 c 0
 307.292262199 47.4492045858 l 1
EndSplineSet
Fore
SplineSet
299 -8 m 1xec
 256 0 216 0 177 0 c 3
 150 0 125 1 99 -7 c 1
 83 47 l 1
 144 64 142 44 143 84 c 1
 143 108 144 155 144 217 c 3
 144 365 145 555 145 616 c 0
 145 622 144 622 77 624 c 1
 82 681 l 1
 135 678 221 676 306 676 c 7xec
 416 676 523 678 544 689 c 1
 571 680 579 654 579 641 c 3
 579 621 572 593 570 550 c 1
 514 545 l 1xda
 516 588 522 627 519 627 c 0
 444 620 313 619 205 620 c 0
 202 620 200 613 200 602 c 0
 200 519 200 439 200 363 c 1
 298 363 449 362 463 363 c 0
 470 363 472 378 481 415 c 1
 535 402 l 1
 528 374 523 351 523 327 c 3
 523 313 528 285 536 260 c 1
 482 247 l 1
 465 304 473 307 462 307 c 0
 419 307 296 307 200 307 c 1
 200 203 200 145 200 78 c 0
 200 47 200 66 308 48 c 1
 299 -8 l 1xec
EndSplineSet
Validated: 33
Position2: "cpsp-1" dx=0 dy=0 dh=50 dv=100
Substitution2: "c2pc-1" f.pcap
Substitution2: "c2sc-1" f.smcp
EndChar

StartChar: G
Encoding: 71 71 32
Width: 770
VWidth: 1159
Flags: W
HStem: -12 56<301.522 581.713> 299 55<685.911 720> 632 56<302.134 545.029>
VStem: 38 56<230.907 436.218> 594 53<661.474 683> 629 56<78.0865 293.115 541.887 570.526>
AnchorPoint: "Top" 424 679 basechar 0
AnchorPoint: "Bottom" 424 -15 basechar 0
LayerCount: 2
Back
SplineSet
541.322839685 298.705596026 m 1
 548.54630094 354.237763349 l 1
 604.452486809 346.96565086 655.628849529 346.650611324 691.99463479 351.086695132 c 1
 698.775535334 295.498752304 l 1
 656.209670542 290.3063512 601.315291219 290.9019541 541.322839685 298.705596026 c 1
629.274115829 307.703390292 m 1
 685.266899796 306.804422208 l 1
 683.556680046 200.282325788 682.258584209 134.936553734 681.264063403 61.0800292379 c 1
 625.269139722 61.8340332621 l 1
 626.266798929 135.923626052 627.565518066 201.28232032 629.274115829 307.703390292 c 1
673.7150999 83.6921359581 m 1
 683.977686464 28.640530014 l 1
 603.283889525 13.5977885352 497.683082723 -12.451171875 435.975585938 -12.451171875 c 0
 221.696397591 -12.451171875 38.2861328125 123.355141522 38.2861328125 333.548828125 c 0
 38.2861328125 541.827458676 216.867402508 687.828125 425.798828125 687.828125 c 0
 514.183788445 687.828125 578.190271655 658.753396049 643.628459053 631.904359829 c 1
 622.371540947 580.095640171 l 1
 555.129951675 607.684605233 501.373944605 631.828125 425.798828125 631.828125 c 0
 241.569526306 631.828125 94.2861328125 505.764068413 94.2861328125 333.548828125 c 0
 94.2861328125 161.84079603 243.061563392 43.548828125 435.975585938 43.548828125 c 0
 484.111135307 43.548828125 591.795737487 68.4209275427 673.7150999 83.6921359581 c 1
598.661846002 650.821772388 m 1
 652.799733922 665.142704325 l 1
 678.189773906 569.159904809 l 1
 624.051885986 554.838972872 l 1
 598.661846002 650.821772388 l 1
EndSplineSet
Fore
SplineSet
38 334 m 3xf4
 38 542 217 688 426 688 c 3
 487 688 532 674 577 659 c 0
 597 652 598 650 594 683 c 1
 647 688 l 1xf8
 685 544 l 1
 632 528 l 1
 614 614 476 632 425 632 c 3
 235 632 94 499 94 335 c 3
 94 160 244 44 436 44 c 3
 491 44 576 66 621 73 c 0
 624 73 626 80 626 84 c 0
 627 132 628 196 629 279 c 0
 629 292 629 292 595 294 c 0
 566 296 547 298 515 301 c 1
 520 357 l 1
 599 345 674 345 720 354 c 1
 726 299 l 1
 686 292 685 294 685 278 c 0
 683 200 682 152 681 98 c 0
 681 88 687 87 709 77 c 1
 704 32 l 1
 622 18 503 -12 436 -12 c 7
 222 -12 38 124 38 334 c 3xf4
EndSplineSet
Validated: 33
Position2: "cpsp-1" dx=0 dy=0 dh=50 dv=100
Substitution2: "c2pc-1" g.pcap
Substitution2: "c2sc-1" g.smcp
EndChar

StartChar: H
Encoding: 72 72 33
Width: 893
VWidth: 1159
Flags: W
HStem: -7 54<69 135.888 192.016 265 636.309 710.716 767.736 828> 322 55<192 711> 627 57<192.594 269.228 635.525 710.772> 634 55<71.7719 134.547 767.102 821.527>
VStem: 136 56<53.8598 322 377 619.878> 711 56<55.3636 321 377 617.916>
AnchorPoint: "Top" 458 679 basechar 0
AnchorPoint: "Bottom" 455 -15 basechar 0
LayerCount: 2
Back
SplineSet
136 653 m 1
 192 653 l 1
 192 37 l 1
 136 37 l 1
 136 653 l 1
767 48 m 1
 767 638 l 0
 767 639 712 638 711 638 c 1
 711 48 l 0
 767 48 l 1
61.1056441856 632.798086308 m 1
 73.2894556925 687.456614802 l 1
 100.61871994 681.364709048 l 0
 122.171032603 676.560530775 142.992414231 674.171875 164.573242188 674.171875 c 0
 189.436695332 674.171875 216.305616854 676.049139874 242.372699195 679.373654473 c 0
 270.147720856 682.915994341 l 1
 277.232400591 627.365951019 l 1
 249.45737893 623.823611152 l 0
 221.241276008 620.225017152 192.220200862 618.171875 164.573242188 618.171875 c 0
 138.799857211 618.171875 113.658686294 621.083604107 88.4349084327 626.706180554 c 0
 61.1056441856 632.798086308 l 1
152.492323486 321.625962879 m 1
 152.609361316 377.625840577 l 1
 750.633653077 376.375990246 l 1
 750.516615246 320.376112548 l 1
 152.492323486 321.625962879 l 1
629.802704525 629.783604025 m 1
 637.206455588 685.292022037 l 1
 664.960664594 681.590146506 l 0
 689.267612935 678.348068979 706.062636816 676.740234375 726.56640625 676.740234375 c 0
 745.441011559 676.740234375 765.877822876 679.602047587 791.053237882 686.577350284 c 0
 818.036672242 694.053597346 l 1
 832.989166366 640.086728626 l 1
 806.005732006 632.610481564 l 0
 777.113229468 624.605292739 751.276295895 620.740234375 726.56640625 620.740234375 c 0
 702.907257393 620.740234375 682.700074595 622.728116337 657.556913531 626.081728494 c 0
 629.802704525 629.783604025 l 1
833.678766289 52.7347230886 m 1
 826.704259367 -2.82926032864 l 1
 798.922267658 0.657993132387 l 0
 799.914481648 0.533448365922 798.922267658 -0.342006867613 798.922267658 0.657993132387 c 1
 774.65683934 3.70384023265 754.202424022 5.4072265625 731.767578125 5.4072265625 c 0
 710.103929597 5.4072265625 686.329620828 3.92229927593 664.485389302 1.01940276216 c 1
 664.485389302 2.01940276216 665.476674583 1.15113541582 664.485389302 1.01940276216 c 0
 636.729401439 -2.66911154011 l 1
 629.352372835 52.8428641856 l 1
 657.108360698 56.5313784878 l 0
 658.099645979 56.6631111415 657.108360698 57.5313784878 657.108360698 56.5313784878 c 1
 681.689000748 59.7979184083 707.591356751 61.4072265625 731.767578125 61.4072265625 c 0
 757.124984874 61.4072265625 780.358040137 59.4276516867 805.89677458 56.2219765497 c 0
 833.678766289 52.7347230886 l 1
271.659952725 52.8386762409 m 1
 263.692191866 -2.59159334978 l 1
 235.977057071 1.39228707966 l 0
 236.966883313 1.25000563575 235.977057071 0.392287079658 235.977057071 1.39228707966 c 1
 208.299072102 5.37082744961 187.118949855 6.9111328125 164.276367188 6.9111328125 c 0
 141.790681231 6.9111328125 119.235461141 5.29060351609 96.3034213823 2.43551132343 c 0
 68.5179422346 -1.02384534161 l 1
 61.5992289045 54.5471129537 l 1
 89.3847080522 58.0064696187 l 0
 90.3770465932 58.130018071 89.3847080522 59.0064696187 89.3847080522 58.0064696187 c 1
 114.202598852 61.0963546444 139.097371274 62.9111328125 164.276367188 62.9111328125 c 0
 189.773514869 62.9111328125 214.286741398 61.0857230428 243.944817929 56.8225566703 c 1
 244.944817929 56.8225566703 244.934644172 56.6802752264 243.944817929 56.8225566703 c 0
 271.659952725 52.8386762409 l 1
EndSplineSet
Fore
SplineSet
73 687 m 1xdc
 105 679 135 674 167 674 c 3
 199 674 231 677 268 684 c 1
 278 627 l 1xec
 193 614 193 625 192 612 c 1
 192 573 192 473 192 377 c 1
 711 377 l 1
 711 446 711 583 711 607 c 0
 711 623 711 612 632 625 c 1
 636 682 l 1
 671 677 700 673 728 673 c 3
 755 673 782 677 820 689 c 1
 832 634 l 1
 767 617 767 622 767 610 c 0
 767 502 767 361 767 232 c 3
 767 155 767 94 767 65 c 0
 767 48 767 59 833 48 c 1
 833 48 828 -6 828 -7 c 1
 795 -2 764 0 732 0 c 3
 702 0 671 -2 637 -8 c 1
 635 8 632 27 629 47 c 1
 712 63 711 48 711 69 c 0
 711 163 711 228 711 321 c 1
 192 322 l 1
 192 234 192 129 192 67 c 0
 192 47 192 61 271 46 c 1
 271 46 265 -8 265 -9 c 1
 229 -3 199 0 170 0 c 3
 137 0 104 -2 69 -7 c 1
 69 -7 62 46 62 47 c 1
 136 60 136 48 136 64 c 0
 136 183 136 337 136 463 c 3
 136 539 136 588 136 609 c 0
 136 627 136 615 63 632 c 1
 73 687 l 1xdc
EndSplineSet
Validated: 33
Position2: "cpsp-1" dx=0 dy=0 dh=50 dv=100
Substitution2: "c2pc-1" h.pcap
Substitution2: "c2sc-1" h.smcp
EndChar

StartChar: I
Encoding: 73 73 34
Width: 453
VWidth: 1159
Flags: W
HStem: -13 55<70.2364 197.041> 634 55<75.6538 206.152 263.766 390.218>
VStem: 202 57<56.248 620.751>
AnchorPoint: "Top" 233 679 basechar 0
AnchorPoint: "Bottom" 234 -15 basechar 0
LayerCount: 2
Back
SplineSet
363.095300493 55.7498299705 m 1
 357.315813373 0.0488647307405 l 1
 313.298981162 4.61601565365 273.336427105 6.716796875 231.313476562 6.716796875 c 0
 186.056320222 6.716796875 139.948429291 3.81594376464 99.873631928 -1.64675575442 c 1
 92.3100730366 53.8401127542 l 1
 135.398698547 59.7136350012 183.676382792 62.716796875 231.313476562 62.716796875 c 0
 275.218776059 62.716796875 317.366519324 60.4946113332 363.095300493 55.7498299705 c 1
258.180664062 78.943359375 m 1
 202.180664062 78.943359375 l 1
 202.180664062 159.872464441 204 256.310778871 204 362 c 0
 204 466.261774593 205.580078125 549.696327511 205.580078125 608.384765625 c 1
 261.580078125 608.384765625 l 1
 261.580078125 548.770469365 260 465.738225407 260 362 c 0
 260 255.689221129 258.180664062 159.055269935 258.180664062 78.943359375 c 1
96.6754105975 631.291595079 m 1
 106.701483662 686.386766001 l 1
 150.58879685 678.400269158 188.776808797 675.358398438 230.303710938 675.358398438 c 0
 272.007163528 675.358398438 315.592189819 678.953454525 359.865855754 684.673721773 c 1
 367.041549352 629.135361865 l 1
 321.103765269 623.200086431 275.209335774 619.358398438 230.303710938 619.358398438 c 0
 185.990877603 619.358398438 143.782482934 622.719175006 96.6754105975 631.291595079 c 1
205.829101562 612.647460938 m 1
 261.829101562 612.647460938 l 1
 261.829101562 533.925213438 260 427.780899902 260 283 c 0
 260 214.644483764 258.795898438 153.707981516 258.795898438 75.658203125 c 1
 202.795898438 75.658203125 l 1
 202.795898438 154.32131536 204 215.355516236 204 283 c 0
 204 428.219100098 205.829101562 534.752520938 205.829101562 612.647460938 c 1
EndSplineSet
Fore
SplineSet
76 693 m 1
 129 681 179 675 230 675 c 3
 281 675 334 681 390 689 c 1
 394 634 l 1
 316 620 262 624 262 615 c 0
 262 541 261 425 261 283 c 3
 261 212 260 142 259 60 c 0
 259 52 315 51 391 46 c 1
 386 -10 l 1
 335 -3 282 0 231 0 c 3
 175 0 120 -4 71 -13 c 1
 65 42 l 1
 148 59 202 47 202 73 c 0
 203 153 205 257 205 362 c 3
 205 466 208 551 207 610 c 0
 207 625 161 617 70 637 c 1
 76 693 l 1
EndSplineSet
Validated: 33
Position2: "cpsp-1" dx=0 dy=0 dh=50 dv=100
Substitution2: "c2pc-1" i.pcap
Substitution2: "c2sc-1" i.smcp
EndChar

StartChar: J
Encoding: 74 74 35
Width: 401
VWidth: 1356
Flags: HMW
AnchorPoint: "Top" 211 679 basechar 0
AnchorPoint: "Bottom" 266 -65 basechar 0
LayerCount: 2
Back
SplineSet
41.8349426238 634.319295047 m 1
 51.6606595735 689.450550125 l 1
 79.2262871122 684.53769165 l 0
 119.016558478 677.446107335 153.370082983 674.708007812 187.625976562 674.708007812 c 0
 233.838875015 674.708007812 278.728186219 679.758187507 331.039111053 686.589477728 c 0
 358.803369092 690.21521566 l 1
 366.054844956 634.686699583 l 1
 338.290586918 631.06096165 l 0
 285.520533427 624.16971376 237.975773115 618.708007812 187.625976562 618.708007812 c 0
 150.32453498 618.708007812 112.2484387 621.769914829 69.4005701625 629.406436572 c 1
 68.4005701625 629.406436572 68.4160834647 629.581895804 69.4005701625 629.406436572 c 0
 41.8349426238 634.319295047 l 1
77.514547439 -176.890370912 m 1
 43.0765614474 -132.731282144 l 1
 65.1561058316 -115.512289148 l 0
 135.312490529 -60.8000054301 183 -25.492221267 183 105 c 0
 183 655 l 1
 239 655 l 1
 239 105 l 0
 239 -45.9687786706 171.192820633 -103.834265138 99.5940918231 -159.671377916 c 0
 77.514547439 -176.890370912 l 1
EndSplineSet
Fore
SplineSet
183 602 m 3
 183 629 184 611 65 635 c 1
 70 691 l 1
 122 680 166 675 209 675 c 7
 250 675 289 682 338 691 c 1
 343 635 l 1
 242 616 239 629 239 608 c 0
 240 495 240 387 240 231 c 3
 240 127 239 80 236 52 c 0
 227 -24 198 -75 135 -131 c 0
 116 -148 95 -162 76 -178 c 1
 46 -130 l 1
 67 -115 82 -101 100 -88 c 0
 108 -83 114 -77 121 -70 c 0
 155 -38 182 10 184 105 c 1
 184 136 183 590 183 602 c 3
EndSplineSet
Validated: 33
Position2: "cpsp-1" dx=0 dy=0 dh=50 dv=100
Substitution2: "c2pc-1" j.pcap
Substitution2: "c2sc-1" j.smcp
EndChar

StartChar: K
Encoding: 75 75 36
Width: 754
VWidth: 1159
Flags: W
HStem: -9 54<67.3571 132.893 189.997 252.75 505.222 542.044 635.354 699> 632 53<70.4151 131.214 190.12 251 457.517 485.916> 638 54<574.067 628.944>
VStem: 133 56<54.9606 301 377 621.02>
AnchorPoint: "Top" 369 679 basechar 0
AnchorPoint: "Bottom" 374 -15 basechar 0
LayerCount: 2
Back
SplineSet
621.477342566 67.8756142048 m 1
 586.522657434 24.1243857952 l 1
 208.522657434 326.124385795 l 1
 243.477342566 369.875614205 l 1
 621.477342566 67.8756142048 l 1
537.859462311 660.328874616 m 1
 574.140537689 617.671125384 l 1
 186.140537689 287.671125384 l 1
 149.859462311 330.328874616 l 1
 537.859462311 660.328874616 l 1
133 637 m 1
 189 637 l 1
 189 46 l 1
 133 46 l 1
 133 637 l 1
90.3888834871 625.82991476 m 1
 98.4052123764 681.253181274 l 1
 126.662859949 677.166042229 152.493839967 675.522460938 179.177734375 675.522460938 c 0
 207.199500017 675.522460938 235.632034376 677.86856925 263.02699481 681.521579454 c 1
 270.428857565 626.012909611 l 1
 241.127793311 622.105727961 210.306842291 619.522460938 179.177734375 619.522460938 c 0
 150.16663905 619.522460938 121.357148749 621.35071649 90.3888834871 625.82991476 c 1
272.036251295 56.1588933724 m 1
 265.464481186 0.545838811255 l 1
 233.947991944 4.27012843343 205.225093929 6.1298828125 172.168945312 6.1298828125 c 0
 148.888262972 6.1298828125 122.891304565 4.67381525282 95.8088128459 1.96944863937 c 1
 90.2445139998 57.6923216661 l 1
 118.87080804 60.5508471914 146.578587795 62.1298828125 172.168945312 62.1298828125 c 0
 207.354860246 62.1298828125 238.717725152 60.0961288998 272.036251295 56.1588933724 c 1
475.363512975 620.793507121 m 1
 480.71442174 676.537276059 l 1
 490.101179835 675.636230307 497.934757823 675.276367188 506.7890625 675.276367188 c 0
 540.42926527 675.276367188 576.636535234 679.312044036 610.388211349 685.861714287 c 1
 621.056264309 630.887241611 l 1
 584.220987164 623.73918419 544.830855914 619.276367188 506.7890625 619.276367188 c 0
 496.343580307 619.276367188 486.348652019 619.739030936 475.363512975 620.793507121 c 1
689.462318318 56.2272595034 m 1
 682.616862227 0.647229538346 l 1
 657.658092383 3.72125024588 635.782414973 5.9443359375 609.103515625 5.9443359375 c 0
 566.030817571 5.9443359375 537.2727091 2.67545501271 505.393460696 -0.964315968988 c 1
 499.041004901 54.6742165905 l 1
 530.872138163 58.3084940895 563.13930223 61.9443359375 609.103515625 61.9443359375 c 0
 639.001806479 61.9443359375 663.866502523 59.3797413072 689.462318318 56.2272595034 c 1
EndSplineSet
Fore
SplineSet
458 681 m 1xd0
 475 677 491 675 507 675 c 3
 546 675 585 681 627 692 c 1
 642 638 l 1xb0
 603 629 581 624 562 608 c 0
 462 525 336 422 232 337 c 1
 634 59 l 1
 663 51 685 50 707 45 c 1
 698 -9 l 1
 669 -5 641 0 609 0 c 3
 566 0 543 -5 506 -10 c 1
 499 45 l 1
 502 46 545 51 543 53 c 1
 522 66 307 218 189 301 c 1
 189 223 188 118 189 67 c 0
 189 51 192 61 259 47 c 1
 252 -9 l 1
 225 -3 200 0 172 0 c 3
 141 0 108 -2 68 -7 c 1
 62 47 l 1
 133 61 133 49 133 63 c 0
 133 169 133 276 133 388 c 3
 133 464 133 521 133 594 c 0
 133 631 132 614 60 632 c 1
 72 685 l 1
 105 678 137 675 168 675 c 3
 196 675 223 679 250 685 c 1
 258 629 l 1
 190 613 190 629 189 606 c 1
 189 530 190 455 190 377 c 1
 272 441 383 531 461 595 c 0
 478 609 483 614 486 619 c 0
 486 619 467 623 454 627 c 1
 458 681 l 1xd0
EndSplineSet
Validated: 33
Position2: "cpsp-1" dx=0 dy=0 dh=50 dv=100
Substitution2: "c2pc-1" k.pcap
Substitution2: "c2sc-1" k.smcp
EndChar

StartChar: L
Encoding: 76 76 37
Width: 682
VWidth: 1159
Flags: W
HStem: -15 21G<597.5 617.5> 1 55<67 128 185.781 574.583> 635 53<63.7273 126.525 185.502 267.717>
VStem: 128 55<56.088 621.405> 588 55<59 142.764>
AnchorPoint: "Top" 207 679 basechar 0
AnchorPoint: "Bottom" 335 -15 basechar 0
LayerCount: 2
Back
SplineSet
183.022622664 11.2716503006 m 1
 127.026533113 11.9334320238 l 1
 127.357423975 39.9314767991 l 0
 127.345606444 38.9315466285 126.357423975 39.9314767991 127.357423975 39.9314767991 c 1
 127.547877775 56.0465608277 127.583984375 162.904927274 127.583984375 302.7421875 c 0
 127.583984375 471.888033356 127.775418786 614.615004173 127.829207256 634.191191662 c 1
 128.829207256 634.191191662 127.826459618 633.191195437 127.829207256 634.191191662 c 0
 127.906141106 662.191085969 l 1
 183.905929719 662.037218269 l 1
 183.828995869 634.037323963 l 0
 183.775620024 614.611310327 183.583984375 471.819034192 183.583984375 302.7421875 c 0
 183.583984375 162.679055131 183.557106909 56.4965735731 183.353513525 39.2696950759 c 0
 183.022622664 11.2716503006 l 1
52.3592607055 633.688330785 m 1
 65.1808227112 688.200783929 l 1
 92.437049283 681.790002926 l 0
 113.30781492 676.881109631 134.356433981 674.87890625 155.6875 674.87890625 c 0
 182.724207356 674.87890625 209.416942893 677.824196945 233.943854981 682.504666417 c 1
 232.943854981 682.504666417 232.961580343 682.317218994 233.943854981 682.504666417 c 0
 261.447544835 687.753194248 l 1
 271.944600498 632.74581454 l 1
 244.440910644 627.497286708 l 0
 243.458636006 627.309839286 245.440910644 627.497286708 244.440910644 627.497286708 c 1
 216.841619414 622.230515271 186.767706203 618.87890625 155.6875 618.87890625 c 0
 130.856506764 618.87890625 105.375501688 621.218684276 79.6154872773 627.277549782 c 0
 52.3592607055 633.688330785 l 1
587.59972872 148.37805489 m 1
 643.37805489 143.40027128 l 1
 640.889163085 115.511108195 l 0
 640.978052078 116.507149733 640.889163085 114.511108195 640.889163085 115.511108195 c 1
 638.298080888 86.4768553613 629.310071163 84.1967760332 615.975412521 17.3548565611 c 0
 608.00436973 -22.6011569084 l 1
 573.560328122 -0.838148541285 l 0
 570.543175794 1.06819892199 565.787092342 3.34566102155 557.350362308 3.58122000013 c 0
 541.72089392 4.01760490215 438.411589316 5.6025390625 319.291992188 5.6025390625 c 0
 152.491767676 5.6025390625 118.92749424 0.603733113525 95.4708022215 -1.87138823587 c 1
 95.4708022215 -0.871388235867 96.4652811777 -1.76645203711 95.4708022215 -1.87138823587 c 0
 67.6253914498 -4.80960180103 l 1
 61.7489643195 50.8812197424 l 1
 89.5943750912 53.8194333076 l 0
 113.285247824 56.3192651184 152.345905025 61.6025390625 319.291992188 61.6025390625 c 0
 439.122885181 61.6025390625 541.958782912 60.0327863888 558.913309567 59.5594049999 c 0
 561.970399224 59.4740490724 564.572031995 59.2882129221 567.729157984 58.9200053913 c 1
 578.214333646 102.358854029 584.625614153 115.051750375 585.110836915 120.488891805 c 1
 585.110836915 121.488891805 585.199725908 121.484933344 585.110836915 120.488891805 c 0
 587.59972872 148.37805489 l 1
EndSplineSet
Fore
SplineSet
266 688 m 1x78
 279 635 l 1
 184 609 184 635 184 599 c 0
 184 542 184 178 183 162 c 1
 184 81 185 56 195 56 c 0x78
 279 57 508 56 549 55 c 0
 581 55 569 67 588 148 c 1
 643 142 l 1
 639 68 625 47 610 -15 c 1xb8
 585 -7 578 -2 532 -1 c 0
 518 -1 426 1 319 1 c 1
 94 1 113 -4 67 -4 c 1
 62 51 l 1
 129 59 129 47 128 63 c 0
 128 74 128 178 128 303 c 3
 128 455 128 585 128 601 c 0
 128 632 128 612 55 633 c 1
 65 688 l 1
 95 679 128 675 159 675 c 3
 197 675 234 680 266 688 c 1x78
EndSplineSet
Validated: 33
Position2: "cpsp-1" dx=0 dy=0 dh=50 dv=100
Substitution2: "c2pc-1" l.pcap
Substitution2: "c2sc-1" l.smcp
EndChar

StartChar: M
Encoding: 77 77 38
Width: 998
VWidth: 1159
Flags: W
HStem: -10 57<92.1579 154.475 213.246 268.138 742.868 810.951 867.036 934.321> -3 21G<470.5 526> 630 56<850 921> 637 56<105.625 172.577>
VStem: 156 57<55.3373 303.454> 175 59<396.935 621.805> 471 53<-3 77.4723> 792 58<405.77 623.979> 812 55<54.6358 280.699>
AnchorPoint: "Top" 516 679 basechar 0
AnchorPoint: "Bottom" 497 -15 basechar 0
LayerCount: 2
Back
SplineSet
260.290939238 54.6525354134 m 1
 250.388748262 -0.465035413444 l 1
 227.185390187 3.70358231609 206.179101026 5.6318359375 181.572265625 5.6318359375 c 0
 162.755888674 5.6318359375 141.941205879 3.54070676788 123.166964769 -0.40537395278 c 1
 111.648242466 54.3971719415 l 1
 134.554634814 59.2117725797 158.734712709 61.6318359375 181.572265625 61.6318359375 c 0
 209.190593642 61.6318359375 234.159470542 59.3472051831 260.290939238 54.6525354134 c 1
209.980238127 46.9482042187 m 1
 154.019761873 49.0517957813 l 1
 155.315689762 83.52652135 177.3079326 611.388548285 178.007999406 640.66925537 c 1
 233.992000594 639.33074463 l 1
 233.246942484 608.168249715 211.27766127 81.4627070792 209.980238127 46.9482042187 c 1
794.001267052 640.266370576 m 1
 849.998732948 639.733629424 l 1
 848.165117664 446.998735344 862.329909306 263.994057618 867.990324337 48.736032268 c 1
 812.009675663 47.263967732 l 1
 806.394941993 260.784791913 792.137457933 444.357743496 794.001267052 640.266370576 c 1
912.537388133 54.1480171269 m 1
 901.658099281 -0.785042810319 l 1
 880.965239903 3.31310126926 861.411241253 5.4443359375 840.4453125 5.4443359375 c 0
 816.980768744 5.4443359375 791.490538541 2.79468177184 766.410775825 -2.50852087915 c 1
 754.8255523 52.2800052541 l 1
 783.685554502 58.3825526315 812.822391178 61.4443359375 840.4453125 61.4443359375 c 0
 865.286473421 61.4443359375 888.831089004 58.8429617766 912.537388133 54.1480171269 c 1
892.179216624 683.329143299 m 1
 897.762314263 627.608150659 l 1
 864.900253518 624.315458174 828.682400723 622.212696522 791.976777812 625.150936479 c 1
 756.071000937 547.022314941 559.401365053 117.7131843 530.731172446 45.8120799481 c 1
 528.049831413 36.0507679419 525.791433349 27.1898061922 523.754239305 18.7400859444 c 0
 489.555348801 -123.107500163 l 1
 468.818394002 21.3233846983 l 0
 464.259798344 53.0735626281 452.215664812 82.3283720549 437.787100235 118.321049855 c 1
 368.954906673 282.904516858 309.15382761 458.191331456 237.540718468 622.490834642 c 1
 232.686914411 622.461245112 232.473540303 622.46401203 228.41349284 622.507188274 c 1
 193.052595465 623.983378485 161.027735423 627.355064765 125.676485014 632.972955405 c 1
 134.465510176 688.278949987 l 1
 167.739187453 682.991219624 196.867801963 679.912722256 229.881087234 678.494633095 c 1
 236.130740292 678.443364788 243.985187421 678.537461607 250.78191753 678.843276414 c 1
 278.753647668 679.602254621 285.355604331 652.967176669 285.884168356 651.707042172 c 1
 360.548786228 481.571924167 420.446384839 304.923305483 489.611337265 139.54418452 c 1
 493.171802572 130.662449962 495.471240996 125.026414213 499.368344977 115.136294422 c 1
 564.164113724 263.372271473 738.064617148 642.026974878 746.262553805 659.770287783 c 0
 746.562847834 660.420233146 l 1
 746.895966142 661.053982049 l 0
 753.18173733 673.012497998 770.447722991 683.77837687 782.9378906 682.31191241 c 0
 821.387107919 677.797608641 856.185036274 679.722620626 892.179216624 683.329143299 c 1
EndSplineSet
Fore
SplineSet
934 -9 m 1x2280
 897 -1 859 0 820 0 c 3
 796 0 771 -1 744 -11 c 1
 734 43 l 1
 787 62 813 46 812 66 c 0x2280
 805 253 796 457 792 624 c 1
 716 456 639 290 567 128 c 0
 550 89 528 43 524 -3 c 1
 471 -3 l 1
 470 39 456 73 438 119 c 0
 355 326 250 583 234 622 c 1x67
 226 463 220 266 213 96 c 0
 211 43 207 64 278 48 c 1
 267 -6 l 1
 243 0 216 0 186 0 c 3
 156 0 124 0 93 -10 c 1
 85 47 l 1
 155 61 155 50 156 82 c 1x8a
 156 84 175 568 175 572 c 1
 177 604 178 618 173 622 c 0
 164 630 154 628 96 637 c 1
 107 693 l 1x96
 152 682 202 676 246 678 c 1
 270 679 280 653 282 650 c 0
 361 468 425 290 500 115 c 1
 498 124 746 659 747 660 c 0
 754 674 767 684 784 682 c 0
 832 676 873 681 920 686 c 1
 928 630 l 1
 857 622 850 628 850 616 c 0x27
 849 440 863 267 867 70 c 0
 867 46 873 63 937 46 c 1
 934 -9 l 1x2280
EndSplineSet
Validated: 33
Position2: "cpsp-1" dx=0 dy=0 dh=50 dv=100
Substitution2: "c2pc-1" m.pcap
Substitution2: "c2sc-1" m.smcp
EndChar

StartChar: N
Encoding: 78 78 39
Width: 874
VWidth: 1159
Flags: W
HStem: -10 55<78.125 138.573 197.563 275.4> 625 53<71 140.683 764.722 827.075> 637 54<631.833 707.092>
VStem: 141 57<55.8633 573> 701 56<129 316.233> 708 57<393.69 623.074>
AnchorPoint: "Bottom" 447 -15 basechar 0
AnchorPoint: "Top" 450 679 basechar 0
LayerCount: 2
Back
SplineSet
284.585551814 49.0151170882 m 1
 274.152812401 -6.0044971265 l 1
 246.643005293 -0.788127419849 l 0
 247.625498404 -0.974426337943 245.643493217 -0.819362172227 246.643005293 -0.788127419849 c 1
 219.647745922 4.33067449167 193.985082186 6.255859375 170.170898438 6.255859375 c 0
 150.942269926 6.255859375 130.110513747 2.69536243912 109.022822819 -1.36445757263 c 1
 109.022822819 -2.36445757263 110.004790429 -1.1754083415 109.022822819 -1.36445757263 c 0
 81.5277297227 -6.65783604431 l 1
 70.9409727793 48.3323501476 l 1
 98.4360658753 53.6257286193 l 0
 120.052956727 57.7874306459 144.328551153 62.255859375 170.170898438 62.255859375 c 0
 197.003462695 62.255859375 226.216531023 60.0829661165 257.075744707 54.2314867948 c 0
 284.585551814 49.0151170882 l 1
195.615657606 12.2937225049 m 1
 139.616964692 12.6763345818 l 1
 139.808270731 40.6756810385 l 0
 140.758158981 179.700305873 140.953125 311.692468905 140.953125 455.26171875 c 0
 140.953125 526.495939402 140.937347441 562.991212895 140.844756991 625.795634647 c 0
 140.803477576 653.795604219 l 1
 196.803416719 653.878163049 l 1
 196.844696134 625.878193478 l 0
 196.937320651 563.050664186 196.953125 526.499607607 196.953125 455.26171875 c 0
 196.953125 311.64403818 196.758162327 179.509487259 195.806963644 40.2930689615 c 0
 195.615657606 12.2937225049 l 1
66.4611970443 629.846916664 m 1
 73.739352093 685.371942185 l 1
 101.501864853 681.732864661 l 0
 124.175102358 678.760883352 149.398643942 674.014804876 166.855475169 673.8284834 c 0
 185.215054062 673.632526654 199.043234853 659.916965728 202.997838892 655.102568154 c 0
 285.728908965 554.384453502 370.220469422 466.829344161 459.546169192 381.049731752 c 1
 532.805230974 308.546499774 605.478704636 236.122814996 679.289796618 154.230543507 c 0
 686.458192209 146.277318834 695.12141499 136.592322003 701.510875772 129.188990457 c 1
 701.707304631 322.433539713 703.696499544 464.817966829 709.508621344 645.466800916 c 0
 710.40901601 673.452320198 l 1
 766.380054573 671.651530865 l 1
 765.479659906 643.666011584 l 0
 759.371115887 453.803962362 757.495117188 305.589515799 757.495117188 96.8984375 c 0
 757.495117188 77.6288820228 761.553534686 51.275604557 765.44074773 31.9973418934 c 0
 808.929355142 -183.680262377 l 1
 712.806674653 14.2301169722 l 0
 693.216654566 54.5647007277 666.876506099 84.3591394882 637.692625257 116.738206493 c 0
 565.329079268 197.024447963 492.926156029 269.225655896 420.453830808 340.950268248 c 1
 331.27706857 426.586855705 245.014420711 515.890481921 161.035304937 617.963438728 c 1
 138.862341152 618.868760551 112.764419329 623.777544739 94.2237098047 626.20783914 c 0
 66.4611970443 629.846916664 l 1
622.84588522 636.830594206 m 1
 632.595242643 691.975403842 l 1
 660.167647461 687.100725131 l 0
 697.485319471 680.503126463 728.483604184 678.141601562 761.30859375 678.141601562 c 0
 774.415155612 678.141601562 787.649946738 678.534078112 801.102717503 679.203455414 c 0
 829.068120298 680.594946151 l 1
 831.851101771 624.664140559 l 1
 803.885698975 623.272649823 l 0
 789.698856029 622.566746865 775.532408953 622.141601562 761.30859375 622.141601562 c 0
 725.716843757 622.141601562 690.764030278 624.822967812 650.418290039 631.955915494 c 0
 622.84588522 636.830594206 l 1
EndSplineSet
Fore
SplineSet
71 684 m 1xd8
 92 684 138 676 166 674 c 0
 185.949173997 672.575059 197 662 202 656 c 0
 363 459 523 332 701 129 c 1xd8
 703 253 705 326 705 463 c 3
 705 513 708 563 708 610 c 3
 708 630 709 621 624 637 c 1
 633 691 l 1xb4
 680 681 720 678 761 678 c 3
 782 678 804 679 827 681 c 1
 831 625 l 1
 766 619 765 630 765 616 c 0xd4
 759 435 757 295 757 97 c 0
 757 70 767 26 773 3 c 1
 722 -7 l 1
 706 36 676 74 644 110 c 0
 496 276 344 404 198 573 c 1
 198 562 197 82 196 71 c 1
 198 46 197 66 285 45 c 1
 274 -10 l 1
 243 -1 213 0 186 0 c 3
 151 0 117 -2 79 -8 c 1
 72 46 l 1
 142 61 140 46 140 70 c 0
 142 197 141 323 141 455 c 3
 141 517 141 549 141 604 c 1
 141 619 142 619 68 629 c 1
 71 684 l 1xd8
EndSplineSet
Validated: 33
Position2: "cpsp-1" dx=0 dy=0 dh=50 dv=100
Substitution2: "c2pc-1" n.pcap
Substitution2: "c2sc-1" n.smcp
EndChar

StartChar: O
Encoding: 79 79 40
Width: 819
VWidth: 1159
Flags: W
HStem: -15 56<293.35 522.401> 634 56<299.12 515.308>
VStem: 46 56<221.25 442.054> 712 56<223.429 440.074>
AnchorPoint: "Bottom" 418 -15 basechar 0
AnchorPoint: "Top" 413 679 basechar 0
LayerCount: 2
Back
SplineSet
405.073242188 633.0859375 m 4
 245.158968273 633.0859375 101.8671875 500.597766702 101.8671875 330.774414062 c 4
 101.8671875 139.042765034 263.838169324 39.720703125 414.392578125 39.720703125 c 4
 572.511998339 39.720703125 711.916992188 164.576753569 711.916992188 328.946289062 c 4
 711.916992188 507.162460222 565.206770935 633.0859375 405.073242188 633.0859375 c 4
EndSplineSet
Fore
SplineSet
405 634 m 0
 245 634 102 502 102 332 c 0
 102 140 263 41 414 41 c 0
 572 41 712 166 712 330 c 0
 712 508 565 634 405 634 c 0
405 690 m 3
 594 690 768 541 768 330 c 3
 768 132 601 -15 414 -15 c 3
 242 -15 46 101 46 332 c 3
 46 534 215 690 405 690 c 3
EndSplineSet
Validated: 1
Position2: "cpsp-1" dx=0 dy=0 dh=50 dv=100
Substitution2: "c2pc-1" o.pcap
Substitution2: "c2sc-1" o.smcp
EndChar

StartChar: P
Encoding: 80 80 41
Width: 671
VWidth: 1159
Flags: W
HStem: -10 51<89.5294 131.301> -6 54<188.034 264.296> 198 56<188.991 426.406> 630 56<190.021 436.029>
VStem: 132 56<57.9564 218 270.468 620.01> 556 56<363.894 522.164>
AnchorPoint: "Bottom" 233 -15 basechar 0
AnchorPoint: "Top" 329 679 basechar 0
LayerCount: 2
Back
SplineSet
121.119618766 -1.35050334729 m 1
 98.5245538211 49.8887690925 l 1
 125.94251294 61.9793109255 149.932730263 61.1826171875 163.465820312 61.1826171875 c 0
 187.593852999 61.1826171875 214.229909345 60.544742658 245.961526945 54.6408739754 c 1
 235.718160555 -0.414311475363 l 1
 208.760964934 4.60124572081 186.686638554 5.1826171875 163.465820312 5.1826171875 c 0
 148.329965824 5.1826171875 137.158515052 5.72219472169 121.119618766 -1.35050334729 c 1
187.757983698 49.2231752364 m 1
 131.761547552 49.8549497636 l 1
 132.212322327 89.8087303652 132.439453125 124.549865706 132.439453125 178.797851562 c 0
 132.439453125 347.171494053 132.501586285 559.178157715 131.717358968 633.980879849 c 1
 187.714281657 634.567948276 l 1
 188.506588619 558.994557452 188.439453125 347.259164781 188.439453125 178.797851562 c 0
 188.439453125 124.405248636 188.210542741 89.3351020545 187.757983698 49.2231752364 c 1
88.3149615738 621.98391643 m 1
 93.8621627623 677.708494122 l 1
 110.281287287 676.074023466 126.083147808 675.2578125 152.318359375 675.2578125 c 0
 227.56224776 675.2578125 256.509322287 686.2578125 329.748046875 686.2578125 c 0
 495.150386255 686.2578125 612.4569 571.623072245 612.4569 445.97915 c 0
 612.4569 345.046576239 530.526904054 198.130859375 292.662109375 198.130859375 c 0
 277.325197581 198.130859375 255.813088752 202.729770574 243.339265246 205.311019684 c 1
 158.43753155 225.779896991 l 1
 171.56246845 280.220103009 l 1
 255.568659765 259.967131154 l 1
 262.933468433 258.463635354 290.531311036 254.130859375 292.662109375 254.130859375 c 0
 502.954154941 254.130859375 556.4569 375.468058265 556.4569 445.97915 c 0
 556.4569 534.91091385 470.178727236 630.2578125 329.748046875 630.2578125 c 0
 264.563109029 630.2578125 234.480364386 619.2578125 152.318359375 619.2578125 c 0
 124.994187287 619.2578125 106.612782273 620.162427655 88.3149615738 621.98391643 c 1
EndSplineSet
Fore
SplineSet
298 254 m 3x3c
 463 254 556 340 556 447 c 3
 556 519 503 585 421 615 c 0
 400 623 360 630 331 630 c 0
 267 631 188 618 188 615 c 0
 188 544 188 389 188 276 c 1
 207 270 278 254 298 254 c 3x3c
74 681 m 1
 101 677 116 675 152 675 c 1
 227 675 257 686 330 686 c 1
 495 686 612 572 612 446 c 1
 612 345 531 198 293 198 c 1
 263 198 210 212 188 218 c 1
 188 158 188 101 188 73 c 0
 188 45 192 69 273 48 c 1
 263 -6 l 1x7c
 222 4 192 0 161 0 c 3
 142 0 121 6 92 -10 c 1
 74 41 l 1xbc
 133 64 132 48 132 72 c 0
 132 104 132 136 132 179 c 3
 132 341 132 546 132 616 c 0
 132 623 127 616 67 625 c 1
 74 681 l 1
EndSplineSet
Validated: 33
Position2: "cpsp-1" dx=0 dy=0 dh=50 dv=100
Substitution2: "c2pc-1" p.pcap
Substitution2: "c2sc-1" p.smcp
EndChar

StartChar: Q
Encoding: 81 81 42
Width: 801
VWidth: 1361
Flags: W
HStem: -157 56<641.005 792.424> 635 56<274.532 502.526>
VStem: 42 56<229.157 461.619> 689 56<236.681 457.195>
AnchorPoint: "Bottom" 321 -15 basechar 0
AnchorPoint: "Top" 394 679 basechar 0
LayerCount: 2
Back
SplineSet
744.892221387 356.77445 m 0
 744.892221387 149.814141436 581.986896399 -11.9345703125 410.390625 -11.9345703125 c 0
 195.781738353 -11.9345703125 42.166015625 135.8038238 42.166015625 347.860351562 c 0
 42.166015625 547.865456026 194.597249054 693.0859375 389.2421875 693.0859375 c 0
 584.942216295 693.0859375 744.892221387 547.569333887 744.892221387 356.77445 c 0
688.892221387 356.77445 m 0
 688.892221387 513.799058946 557.480736487 637.0859375 389.2421875 637.0859375 c 0
 223.881885979 637.0859375 98.166015625 516.963254551 98.166015625 347.860351562 c 0
 98.166015625 166.44147233 223.876869279 44.0654296875 410.390625 44.0654296875 c 0
 547.092078034 44.0654296875 688.892221387 178.142468613 688.892221387 356.77445 c 0
760.048805949 -94.4445289492 m 1
 778.613680627 -147.277713864 l 1
 763.079581694 -152.736188502 744.87690023 -156.842773438 724 -156.842773438 c 0
 621.064689095 -156.842773438 532.513550098 -90.1133173403 455.86298123 8.85495990177 c 1
 500.13701877 43.1450400982 l 1
 572.614585769 -50.4352170419 647.293061827 -100.842773438 724 -100.842773438 c 0
 737.661057193 -100.842773438 748.946507526 -98.3457281518 760.048805949 -94.4445289492 c 1
EndSplineSet
Fore
SplineSet
390 635 m 3
 220 635 98 512 98 348 c 3
 98 145 245 44 411 44 c 3
 544 44 689 174 689 354 c 3
 689 524 545 635 390 635 c 3
524 12 m 1
 593 -62 658 -101 724 -101 c 3
 751 -101 774 -89 786 -83 c 1
 804 -136 l 1
 789 -145 760 -157 724 -157 c 3
 628 -157 543 -98 468 -6 c 1
 215 -42 42 125 42 347 c 3
 42 547 194 691 389 691 c 3
 585 691 745 547 745 356 c 3
 745 200 647 61 524 12 c 1
EndSplineSet
Validated: 33
Position2: "cpsp-1" dx=0 dy=0 dh=50 dv=100
Substitution2: "salt-1" Q.alt
Substitution2: "c2pc-1" q.pcap
Substitution2: "c2sc-1" q.smcp
EndChar

StartChar: R
Encoding: 82 82 43
Width: 800
VWidth: 1159
Flags: HMW
AnchorPoint: "Bottom" 360 -15 basechar 0
AnchorPoint: "Top" 341 679 basechar 0
LayerCount: 2
Back
SplineSet
119.957487755 56.7676556964 m 1
 128.708122344 1.45557388511 l 1
 124.31361735 0.760342280339 118.722803807 -0.229680280778 114.822982855 -0.970444505308 c 1
 104.372733787 54.0458466676 l 1
 108.875896071 54.9012145315 114.758447094 55.9451427199 119.957487755 56.7676556964 c 1
282.882323097 53.4928172072 m 5
 272.070405289 -1.45354239316 l 5
 243.500077279 4.16830481231 219.677355744 6.4423828125 191.40234375 6.4423828125 c 4
 182.429599502 6.4423828125 172.745458201 6.08956011845 163.305918757 5.43180764099 c 4
 132.089752054 3.25664738987 l 5
 135.333984375 81.65625 l 4
 139.868105174 191.22709255 141.381364282 262.654350646 141.381364282 339.421918861 c 4
 141.381364282 420.585394382 139.65677738 499.169032363 137.86059308 603.566933179 c 5
 136.618277596 614.391199968 126.529674681 616.946677712 98.8514453773 617.916589842 c 5
 100.553710957 673.88989247 l 5
 128.357979726 673.17301944 150.093515011 672.602539062 178.936523438 672.602539062 c 4
 239.608266073 672.602539062 262.970837387 693.171875 334.538085938 693.171875 c 4
 464.935421752 693.171875 592.161132812 608.645944388 592.161132812 484.75390625 c 4
 592.161132812 388.00991322 532.994362194 332.059969196 479.63291752 298.64618189 c 4
 456.361433145 284.074892828 l 5
 426.642473105 331.538388422 l 5
 449.91395748 346.109677485 l 4
 496.407981556 375.223233929 536.161132812 414.037632595 536.161132812 484.75390625 c 4
 536.161132812 565.03186401 446.543327827 637.171875 334.538085938 637.171875 c 4
 282.607549137 637.171875 258.764225199 619.447630545 192.416580576 616.858950884 c 5
 192.823091315 614.625828109 193.226971266 612.290749346 193.495122086 609.954357306 c 4
 193.805403504 607.25354448 l 5
 193.852290498 604.532145164 l 4
 195.642926871 500.290761017 197.381364282 421.416162046 197.381364282 339.421918861 c 4
 197.381364282 261.882428623 195.83865485 189.357236019 191.286099662 79.3409109575 c 4
 191.055879587 73.7774492057 191.619930527 67.7005502807 191.40234375 62.4423828125 c 5
 222.80785698 62.4423828125 251.220651877 59.7229549152 282.882323097 53.4928172072 c 5
751.205945172 27.958559085 m 1
 744.462244679 -27.6339089629 l 1
 589.175776697 -8.79672710353 474.439687115 148.807127235 412.93491527 269.478488774 c 1
 389.252753044 264.179559473 l 1
 388.150164744 264.023476007 l 0
 366.869137803 261.010913264 351.867454197 259.368164062 331.716796875 259.368164062 c 0
 296.192601317 259.368164062 270.327098919 262.672576341 241.784435411 263.453848589 c 0
 212.751232286 264.248770464 l 1
 214.283923964 320.227792036 l 1
 243.317127089 319.432870161 l 0
 275.354541706 318.555939284 300.076929933 315.368164062 331.716796875 315.368164062 c 0
 348.65124994 315.368164062 358.851596844 316.450789969 379.203164216 319.315642941 c 1
 443.191836593 333.633231334 l 1
 462.096467496 296.34762658 l 0
 522.214872259 177.775510138 629.698211329 42.6981774784 751.205945172 27.958559085 c 1
EndSplineSet
Fore
SplineSet
198 320 m 1
 224 319 308 316 336 316 c 3
 458 316 538 399 538 484 c 3
 538 556 456 635 336 635 c 3
 308 635 192 616 193 608 c 0
 194 588 198 397 198 320 c 1
72 675 m 1
 115 674 141 673 179 673 c 1
 239 673 265 691 335 691 c 3
 465 691 592 609 592 485 c 3
 592 384 527 325 465 290 c 1
 584 83 682 29 781 25 c 1
 770 -29 l 1
 614 -25 477 131 414 269 c 1
 384 263 359 259 331 259 c 1
 296 259 233 263 197 264 c 1
 196 200 192 121 192 64 c 0
 192 48 222 71 308 48 c 1
 300 -8 l 1
 265 2 228 2 191 2 c 3
 157 2 122 2 87 -7 c 1
 75 47 l 1
 127 61 135 52 135 62 c 1
 140 172 141 262 141 339 c 3
 141 420 140 499 138 603 c 1
 136 618 124 617 72 619 c 1
 72 675 l 1
EndSplineSet
Validated: 33
Position2: "cpsp-1" dx=0 dy=0 dh=50 dv=100
Substitution2: "salt-1" R.alt
Substitution2: "c2pc-1" r.pcap
Substitution2: "c2sc-1" r.smcp
EndChar

StartChar: S
Encoding: 83 83 44
Width: 588
VWidth: 1159
Flags: W
HStem: -12 54<205.695 406.862> 1 21G<78 133.5> 631 56<224.155 416.54>
VStem: 57 53<106.81 188.321> 78 55<7 33.3435> 95 56<450.974 569.682> 468 50<654.973 667.24> 479 56<106.768 242.204>
AnchorPoint: "Bottom" 315 -15 basechar 0
AnchorPoint: "Top" 321 679 basechar 0
LayerCount: 2
Back
SplineSet
134.947656291 31.8389713037 m 1
 78.9629972608 33.1496784626 l 1
 79.9353174532 74.6807054934 75.7738994961 92.4541802514 62.9722313632 158.062785347 c 1
 117.935706235 168.78735667 l 1
 130.379435239 105.013191171 136.053944727 79.0922272678 134.947656291 31.8389713037 c 1
455.269697247 652.068012153 m 1
 509.672406297 638.788507344 l 1
 505.042960055 619.822859107 505.132556583 609.475510896 507.732421875 596.448242188 c 0
 510.236125119 583.902817231 511.958820108 574.421391992 512.480254738 566.382816998 c 1
 456.597698984 562.757908381 l 1
 456.467741723 564.7613641 455.055900767 574.261699079 452.815378254 585.488391826 c 0
 448.695734995 606.130884297 449.258485098 627.44162508 455.269697247 652.068012153 c 1
102.140377991 50.2958125383 m 1
 126.982409083 100.48419258 l 1
 175.033437342 76.7000987919 l 0
 218.31751124 55.2755318174 267.496911093 43.6025390625 299.72265625 43.6025390625 c 0
 448.106813274 43.6025390625 478.7105 124.227813264 478.7105 179.718327929 c 0
 478.7105 222.514951199 466.505575659 280.191976361 303.659067205 322.97843171 c 1
 274.539212318 331.150577706 94.892578125 370.515952653 94.892578125 509.580078125 c 0
 94.892578125 597.400239219 182.116058657 687 316.080078125 687 c 0
 379.35774872 687 419.180417669 673.336838595 443.022381153 659.380659296 c 0
 460.653878604 649.059850781 454.371085858 648.737079036 482.70747527 638.263376095 c 1
 463.29252473 585.736623905 l 1
 431.736381832 597.40041289 421.553392811 607.059067367 414.732484773 611.051767701 c 0
 400.668671664 619.284189394 371.406924404 631 316.080078125 631 c 0
 205.9378571 631 150.892578125 559.170570329 150.892578125 509.580078125 c 0
 150.892578125 426.332334206 276.838252749 388.668809043 318.340932795 377.02156829 c 1
 493.80710643 330.919409424 534.7105 250.732582818 534.7105 179.718327929 c 0
 534.7105 97.2553076488 477.10357107 -12.3974609375 299.72265625 -12.3974609375 c 0
 255.82175991 -12.3974609375 200.759900855 1.48154016688 150.19140625 26.51171875 c 0
 102.140377991 50.2958125383 l 1
EndSplineSet
Fore
SplineSet
57 187 m 1x70
 110 197 l 1
 124 139 126 116 131 106 c 0
 141 86 242 42 301 42 c 3
 440 42 479 119 479 180 c 3xb1
 479 283 348 307 267 332 c 0
 242 340 95 383 95 508 c 3
 95 596 181 687 316 687 c 3
 379 687 424 668 443 657 c 0
 462 645 452 652 468 681 c 1
 518 665 l 1xa6
 506 632 504 614 508 596 c 0
 517 551 512 532 461 537 c 1
 457 563 460 569 454 580 c 0
 446 595 398 631 315 631 c 3
 233 631 151 584 151 508 c 3
 151 445 204 410 361 364 c 0
 483 328 535 252 535 180 c 3
 535 97 478 -12 300 -12 c 7xa5
 252 -12 190 5 135 34 c 1
 135 24 134 18 133 1 c 1
 78 7 l 1x69
 81 78 77 80 57 187 c 1x70
EndSplineSet
Validated: 33
Position2: "cpsp-1" dx=0 dy=0 dh=50 dv=100
Substitution2: "c2pc-1" s.pcap
Substitution2: "c2sc-1" s.smcp
EndChar

StartChar: T
Encoding: 84 84 45
Width: 726
VWidth: 1159
Flags: HMW
AnchorPoint: "Bottom" 368 -15 basechar 0
AnchorPoint: "Top" 368 679 basechar 0
LayerCount: 2
Back
SplineSet
334.952582659 664.952502223 m 1
 390.952502223 665.047417341 l 1
 392.047417341 19.0474977772 l 1
 336.047497777 18.9525826593 l 1
 334.952582659 664.952502223 l 1
489.261476941 51.1578165394 m 1
 479.770121227 -4.03198475316 l 1
 452.175220581 0.713693103705 l 0
 453.160752747 0.544204608817 452.175220581 1.7136931037 452.175220581 0.713693103705 c 1
 423.830440894 5.58833262649 392.457107752 7.771484375 359.611328125 7.771484375 c 0
 331.744958207 7.771484375 301.665972401 2.41485271139 280.316534253 -5.88869245841 c 1
 280.316534253 -6.88869245841 281.248524385 -5.52620881322 280.316534253 -5.88869245841 c 0
 254.220810544 -16.0382345237 l 1
 233.921726414 36.1532128931 l 1
 260.017450122 46.3027549584 l 0
 289.526069683 57.7796919029 325.062537334 63.771484375 359.611328125 63.771484375 c 0
 394.9136283 63.771484375 429.313121082 61.4675324033 461.666576294 55.9034943963 c 0
 489.261476941 51.1578165394 l 1
60.1915115368 561.016450014 m 1
 11.0164500142 587.808488463 l 1
 24.4124692387 612.396019224 l 0
 36.5149971939 634.609430044 48.9116792863 659.779649987 60.2801157653 681.150183399 c 0
 77.6396058519 713.782776596 l 1
 104.352525906 688.235605774 l 0
 109.936124369 682.895675006 112.806943646 680.104856943 113.45943245 679.672966467 c 1
 252.147714524 680.000807474 393.324629934 677.56640625 535.299804688 677.56640625 c 0
 573.255880641 677.56640625 611.014100278 677.714095322 648.351173697 678.171725183 c 0
 658.075787506 678.290917001 666.825730337 682.83993228 672.343120739 687.682577305 c 0
 777.458605911 779.943038182 l 1
 715.961534076 654.327083703 l 0
 705.16829562 632.280457578 695.170966748 608.107231166 691.632650771 586.479312953 c 0
 687.111963723 558.846662182 l 1
 631.846662182 567.888036277 l 1
 636.367349229 595.520687047 l 0
 637.883617249 604.78885895 639.71439174 612.429396312 642.583141949 622.099877159 c 1
 607.900277953 621.71039536 571.116688222 621.56640625 535.299804688 621.56640625 c 0
 392.961800186 621.56640625 249.635462137 624.007874109 113.532772725 623.672936348 c 0
 106.884895859 623.656576458 102.852001451 624.198036149 95.1131248974 626.707540938 c 1
 88.9905703483 614.780334947 80.8550779604 598.943095726 73.5875307613 585.603980776 c 0
 60.1915115368 561.016450014 l 1
EndSplineSet
Fore
SplineSet
120 680 m 0
 255 680 396 678 535 678 c 3
 573 678 610 678 647 678 c 0
 665 678 672 691 680 700 c 1
 723 671 l 1
 706 637 694 613 687 559 c 1
 633 569 l 1
 633 578 638 609 643 622 c 1
 610 622 468 623 391 623 c 1
 391 472 392 302 392 148 c 3
 392 118 392 85 392 65 c 0
 392 44 393 65 492 45 c 1
 482 -11 l 1
 450 -2 408 0 365 0 c 3
 325 0 282 0 255 -15 c 1
 237 38 l 1
 331 74 336 35 336 79 c 0
 336 164 335 392 335 526 c 3
 335 567 335 600 335 623 c 1
 273 623 188 624 113 624 c 3
 87 624 93 623 61 562 c 1
 12 588 l 1
 32 621 57 678 75 707 c 1
 92 695 109 680 120 680 c 0
EndSplineSet
Validated: 33
Position2: "cpsp-1" dx=0 dy=0 dh=50 dv=100
Substitution2: "c2pc-1" t.pcap
Substitution2: "c2sc-1" t.smcp
EndChar

StartChar: space
Encoding: 44 44 46
Width: 217
VWidth: 1159
Flags: W
HStem: -134.937 253.586
VStem: 111 62<-40.2243 25.2953>
LayerCount: 2
Back
SplineSet
91.0898671534 59.4292914634 m 1
 138.910132847 88.5707085366 l 1
 147.594966155 74.3191354146 153.434871564 67.3516285402 157.218931255 65.1209865879 c 0
 167.732219082 58.9235735456 l 1
 170.348841609 47.0034042556 l 0
 182.690837394 -9.22124320952 150.638221486 -66.1943494739 95.2082268272 -116.108034824 c 1
 57.7351325478 -74.4935276763 l 1
 101.275739988 -35.2860156947 117.741149243 -0.135390214409 116.856248466 25.6418867194 c 1
 105.307978056 36.328843575 97.8832475112 48.281540726 91.0898671534 59.4292914634 c 1
EndSplineSet
Fore
SplineSet
69.203125 -134.936523438 m 1
 38 -89 l 1
 70.6865793319 -68.4829014141 111 -21.1593858547 111 2 c 3
 111 16.4242412967 74.0914949398 33.2015893526 58.6025390625 45.1181640625 c 0
 55.2935990606 47.8185373681 52.1298828125 53.3634436421 52.1298828125 58.859375 c 3
 52.1298828125 65.9563616316 56.7592846171 70.172452713 60.6025390625 74.236328125 c 0
 68.6510434137 82.7468546597 81.9118091553 95.474481423 92.0341796875 110.00390625 c 0
 95.1078043243 114.41571848 103.995289911 118.649414062 108.690429688 118.649414062 c 3
 115.358697161 118.649414062 120.715663874 114.141726471 124.25 110.00390625 c 0
 134.585186104 97.9039982272 151.117947602 80.4607188546 160.633789062 71.30078125 c 0
 170.283751123 62.0117393166 173 32.5785169298 173 21 c 3
 173 -32.6081091468 127.146796039 -96.8223654533 69.203125 -134.936523438 c 1
EndSplineSet
Validated: 1
Position2: "cpsp-1" dx=0 dy=0 dh=7 dv=14
EndChar

StartChar: period
Encoding: 46 46 48
Width: 217
VWidth: 1159
Flags: W
HStem: 0.443359 118.316<82.1145 135.791>
VStem: 51.6797 115.64<30.0707 86.4186>
LayerCount: 2
Back
SplineSet
186.857308105 39.9046066406 m 4
 151.957056836 20.1471091796 143.172421826 11.7709362793 125.978268505 -19.0950825684 c 4
 122.921513818 -24.6787967285 116.601462988 -28.5570455566 109.505437012 -28.5570455566 c 7
 102.408518505 -28.5570455566 94.0188503906 -24.5020759278 90.6666685059 -19.0950825684 c 4
 74.8996695312 5.86953256836 65.2053890137 21.7902556153 32.1535659179 41.4495748535 c 4
 26.6760627441 44.6491342285 21.6798418946 53.2774748535 21.6798418946 60.3743933594 c 7
 21.6798418946 67.4704193359 26.8956249512 72.1955203125 32.1535659179 75.7503063477 c 4
 61.679898291 96.0817001465 74.1945713867 106.224922901 90.6666685059 137.115040039 c 4
 93.6154271484 142.756768604 102.408518505 147.759971534 109.505437012 147.759971534 c 7
 116.601462988 147.759971534 122.796559716 142.626459326 125.978268505 137.115040039 c 4
 140.320790722 112.718966066 153.927761523 93.5040755372 186.857308105 74.2062306641 c 4
 192.358909571 71.0388023437 196.319271094 65.9263436523 196.319271094 58.8294251465 c 7
 196.319271094 51.7325066406 192.416031446 42.9890297363 186.857308105 39.9046066406 c 4
EndSplineSet
Fore
SplineSet
157.857421875 39.904296875 m 0
 145.066065004 29.8583858313 135.158634242 20.0450913937 125.978515625 9.9052734375 c 0
 121.657835476 5.10718213194 116.03258134 0.443359375 108.505859375 0.443359375 c 3
 101.785622506 0.443359375 94.4476794941 4.89936655391 90.6669921875 9.9052734375 c 0
 82.9836697292 20.1724493455 72.4112254199 31.1399818705 62.1533203125 41.44921875 c 0
 57.7176244382 45.866343536 51.6796875 52.6521160088 51.6796875 59.3740234375 c 3
 51.6796875 66.9315814938 57.5328641927 71.2079094114 62.1533203125 75.75 c 0
 72.0176055484 85.5580944699 82.795028112 97.2341494606 90.6669921875 108.115234375 c 0
 94.3842008527 113.19516709 101.785622506 118.759765625 108.505859375 118.759765625 c 3
 116.03258134 118.759765625 121.647174316 112.911313669 125.978515625 108.115234375 c 0
 135.316858737 97.7213923945 147.147969825 83.9173299514 157.857421875 74.2060546875 c 0
 162.649191882 69.8832795728 167.319335938 65.3876221908 167.319335938 57.8291015625 c 3
 167.319335938 51.1071941338 162.785900266 43.7958242921 157.857421875 39.904296875 c 0
EndSplineSet
Validated: 1
Position2: "cpsp-1" dx=0 dy=0 dh=7 dv=14
EndChar

StartChar: dotlessi
Encoding: 305 305 50
Width: 263
VWidth: 1159
Flags: HMW
AnchorPoint: "Bottom" 135 -15 basechar 0
AnchorPoint: "Ogonek" 189 18 basechar 0
AnchorPoint: "Top" 145 537 basechar 0
LayerCount: 2
Back
SplineSet
164.066115425 15.0662719115 m 1
 108.066271911 14.9338845745 l 1
 106.933884575 493.933728089 l 1
 162.933728089 494.066115425 l 1
 164.066115425 15.0662719115 l 1
57.644373619 404.805924174 m 1
 38.9983069861 457.610509194 l 1
 65.4005994961 466.93354251 l 0
 85.7883775136 474.132763321 96.9103707259 480.115080588 113.489027387 500.168816771 c 0
 131.329719158 521.749125321 l 1
 174.490336259 486.067741779 l 1
 156.649644488 464.487433229 l 0
 133.907004721 436.977671291 109.941517089 423.272805818 84.0466661289 414.12895749 c 1
 85.0466661289 414.12895749 83.1037271107 413.795992014 84.0466661289 414.12895749 c 0
 57.644373619 404.805924174 l 1
237.671944969 44.2165943201 m 1
 228.104289633 -10.9600309063 l 1
 200.515977019 -6.17620323817 l 0
 201.501273898 -6.34705422632 200.515977019 -5.17620323817 200.515977019 -6.17620323817 c 1
 177.332753027 -2.15622021398 155.359097284 1 133 1 c 0
 104.003463211 1 83.6888014829 -2.37047070185 57.7769002669 -5.73557824535 c 1
 57.7769002669 -4.73557824535 58.7685727042 -5.60679246573 57.7769002669 -5.73557824535 c 0
 30.0100720215 -9.34158007472 l 1
 22.7980683628 46.192076416 l 1
 50.5648966081 49.7980782453 l 0
 74.9970795069 52.9710188293 99.4946892757 57 133 57 c 0
 160.608229725 57 186.008700324 53.1750276472 210.083632356 49.0004219882 c 0
 237.671944969 44.2165943201 l 1
EndSplineSet
Fore
SplineSet
163 212 m 3
 163 168.306569343 163.375 106.5625 164 65 c 1
 164 57 164.822265625 54.0615234375 182 52 c 0
 199.353515625 49.9169921875 216.666992188 45.875 234 45 c 1
 229 -11 l 1
 194.522460938 -5.9228515625 155.840820312 0 118 0 c 1
 84.8837890625 0 65.2216796875 -6 29 -10 c 1
 24 45 l 1
 43.205078125 47.125 71.51171875 51.724609375 89 54 c 0
 109.254882812 56.6357421875 108 57.322265625 108 80 c 0
 108 107.748046875 108 177.050420168 108 208 c 3
 108 231.493804316 108 324.491422963 108 404 c 0
 108 413.055385138 107.625 421 105 421 c 1
 97.96875 421 79.65625 411 60 406 c 1
 43 460 l 1
 81.0597014925 472.090909091 98.8208955226 478.136363637 128 517 c 1
 172 498 l 1
 162 483 163 441.396078054 163 421 c 0
 163 376.666826071 163 231.000382571 163 212 c 3
EndSplineSet
Validated: 33
Substitution2: "case-1" I
Substitution2: "pcap-1" i.pcap
Substitution2: "smcp-1" i.smcp
EndChar

StartChar: uniFB01
Encoding: 64257 64257 51
Width: 537
VWidth: 1159
Flags: W
HStem: -9 62<160.585 252.446 438.197 503.463> 441 57<8 103 160 379.75> 497 20G<390.328 429.5> 692 57<239.521 393.946>
VStem: 103 56<55.4503 441 498 615.956> 382 55<53.6652 438.582>
LayerCount: 2
Back
SplineSet
312 435 m 4
 265.34178499 436.333333333 222.882352941 437.666666667 177 439 c 5
 176 394.292207792 170 324.162337662 170 304 c 4
 170 232.601036269 177.207328392 133.970758796 185 92 c 4
 188.872453669 71.1432480337 199.016265951 65.2846686174 219 64 c 4
 234.555555556 63 252.444444444 62 268 61 c 5
 263 -8 l 5
 221.980263158 -3 164.743421053 1 118 1 c 4
 87.2956521739 1 38.9130434783 -4 11 -7 c 5
 9 59 l 5
 21.16 60 35.3561221283 60.1614929676 47 62 c 4
 66 65 73.247949137 69.0798483843 75 82 c 4
 82.5 137.30726257 87 213.631284916 87 280 c 4
 87 306.761363636 87 387.9375 85 437 c 5
 61 436 35 434 8 433 c 5
 8 503 l 5
 33 502 60 500 82 499 c 5
 80 534 79 545 79 558 c 4
 79 614 123.769612161 658.999144288 178 697 c 4
 212.25 721 272.758333333 749 315 749 c 4
 367.196428571 749 427.857142857 733 473 696 c 5
 479.405956187 662.9025597 441.96709363 626.404092479 417 612 c 5
 369.795454545 646 321.068181818 670 283 670 c 4
 195.390243902 670 193.318800847 639.020118044 184 556 c 4
 183.211243717 548.973061582 181 529 180 498 c 5
 222.293333333 498.2 259.76107631 498.72173149 302 499 c 4
 363.907304594 499.444257658 392.626865672 504.727272727 440 517 c 5
 484 485 l 5
 478 468 469.622009466 441.071896956 466 421 c 4
 458 376.666826071 455 231.000382571 455 212 c 4
 455 171 463 114.319206503 463 75 c 4
 463 67 473.087515515 64.3221949246 481 62 c 4
 496.332985102 57.5 511.667014898 56.75 527 56 c 5
 522 -10 l 5
 481.620909203 -4.9228515625 436.318636196 1 392 1 c 4
 361.860566192 1 343.96535886 -5.00043402778 311 -9 c 5
 305 59 l 5
 316.522939254 59.5 332.920959221 61.7690879424 344 63 c 4
 355 65.888671875 362.027694639 76.3600303106 363 89 c 4
 365 115 366 179 366 208 c 4
 366 232.670089628 368.304906512 330.462410965 360 414 c 4
 357.873526683 435.389819834 338.509947389 434.18183059 312 435 c 4
EndSplineSet
Fore
SplineSet
334 442 m 0xbc
 274.862745098 442 219.137254902 442 160 441 c 1
 159.857142857 395.62987013 159 324.461038961 159 304 c 3
 159 229.233160621 159 124 159 81 c 0
 159 54.787109375 160.122070312 56.4931640625 193 53 c 0
 213.310546875 50.841796875 236.682617188 49 257 47 c 1
 252 -9 l 1
 214.091796875 -4 161.197265625 0 118 0 c 1
 87.2958984375 0 38.9130859375 -5 11 -8 c 1
 9 46 l 1
 30.1201171875 49 53.53515625 53.6962890625 75 55 c 0
 103 56.7001953125 103 56.1533203125 103 73 c 0
 103 130.541992188 103 210.831681104 103 280 c 3
 103 307.443181818 103 390.6875 103 441 c 1
 73.3896103896 441 41.3116883117 441 8 441 c 1
 8 498 l 1
 40.0947265625 499.301757812 74.7567587721 498.006403327 103 498 c 1
 102.333333333 533.593220339 102 544.779661017 102 558 c 3
 102 606 133.231270424 661.185016339 178 697 c 0
 208 721 261 749 298 749 c 3
 352.839285714 749 416.571428571 733 464 696 c 1
 467.431762243 677.875211264 447.37522873 657.887955405 434 650 c 1
 387.147727272 674.620689655 355.619533947 692 301 692 c 3
 276.668949879 692 169.981433883 656.477269717 159 556 c 0
 158.239479661 549.041436297 159 529 159 498 c 1
 219.666666667 498 274.5 498 334 498 c 1xdc
 378.447761194 498.03030303 378.656716418 504.045454546 402 517 c 1
 446 485 l 1
 436 470 437 441.396078054 437 421 c 0
 437 376.666826071 437 231.000382571 437 212 c 3
 437 168.306569343 437.375 106.5625 438 65 c 1
 438 57 438.822265625 54.0615234375 456 52 c 0
 473.353515625 49.9169921875 490.666992188 45.875 508 45 c 1
 503 -11 l 1
 468.522460938 -5.9228515625 429.840820312 0 392 0 c 1
 358.883789062 0 339.221679688 -6 303 -10 c 1
 298 45 l 1
 317.205078125 47.125 345.51171875 51.724609375 363 54 c 0
 383.254882812 56.6357421875 382 57.322265625 382 80 c 0
 382 107.748046875 382 177.050420168 382 208 c 3
 382 231.493804316 382 324.491422963 382 404 c 0
 382 437.863852169 360.347589237 442 334 442 c 0xbc
EndSplineSet
Validated: 33
LCarets2: 1 298
Ligature2: "liga-1" f i
EndChar

StartChar: uni0237
Encoding: 567 567 52
Width: 242
VWidth: 1159
Flags: HMW
AnchorPoint: "Top" 145 537 basechar 0
LayerCount: 2
Back
SplineSet
54.161210353 390.840437009 m 1
 34.7671948214 443.37492246 l 1
 61.0344375467 453.071930225 l 0
 79.230912858 459.789474364 94.1300230215 471.147301578 113.819991563 497.390196241 c 0
 163.333647493 563.382259873 l 1
 164.27444196 475.341003065 l 1
 163.856058102 459.433432695 163.529639661 446.853289245 163.326225481 431.881313905 c 1
 162.669123662 388.430848543 162 278.046487545 162 257 c 0
 162 77 l 0
 162 11.1886391722 147.993027968 -28.7000809445 122.944842931 -58.3274835297 c 0
 97.7099600077 -88.1757154265 63.4816211501 -109.411111997 40.8635791015 -128.113761651 c 1
 33.5913386895 -134.173900783 23.8524641284 -146.739956584 19.9788411318 -156.94039411 c 0
 10.0384470222 -183.116500866 l 1
 -42.3137664915 -163.235712647 l 1
 -32.3733723818 -137.05960589 l 0
 -32.0183583065 -136.124744935 -33.3733723818 -137.05960589 -32.3733723818 -137.05960589 c 1
 -24.1007132491 -115.27515688 -9.72165758049 -97.3723378835 5.09540527352 -85.0249102236 c 1
 31.9378020185 -62.8291807644 62.8236981769 -42.7020196772 80.1801570687 -22.1725164703 c 0
 95.2634526699 -4.33174795021 106 18.1023199374 106 77 c 0
 106 257 l 0
 106 276.209282147 106.503773251 361.818726991 107.086963988 413.661857802 c 1
 98.7667891793 408.492017169 89.6780552252 403.952095668 80.4284530783 400.537444775 c 0
 54.161210353 390.840437009 l 1
EndSplineSet
Fore
SplineSet
-36 -175 m 1
 -31 -121.715447154 -12.3447333145 -92.7793884811 34 -62 c 0
 59.9411764706 -44.7714285714 85.0696859121 -24.8257852198 97 5 c 0
 105 25 106 57.8372093023 106 147 c 3
 106 274.245278149 107 354.958554333 107 387 c 0
 107 406.652002021 103.0625 408 100 408 c 3
 94.7586206897 408 72.4827586207 396.333333333 62 394 c 1
 42 447 l 1
 76.7368421053 456.276923077 95.0526315789 468.646153846 126 514 c 1
 171 498 l 1
 164.647460938 481 163 447.09890484 163 428 c 0
 163 388 162 275.027756377 162 257 c 3
 162 183.757155227 162 92 162 57 c 3
 162 4 143.904313364 -31.024225997 123 -57 c 0
 98.857142857 -87 63.3732071672 -110.188994027 42 -128 c 0
 30 -138 17 -156 18 -175 c 1
 -36 -175 l 1
EndSplineSet
Validated: 33
EndChar

StartChar: U
Encoding: 85 85 53
Width: 824
VWidth: 1159
Flags: W
HStem: -13 55<298.075 541.885> 628 54<57.7455 116.573 178.548 270.259 584 668.375 723.037 784.204>
VStem: 121 57<147.388 619.077> 669 54<164.764 621.028>
AnchorPoint: "Bottom" 428 -15 basechar 0
AnchorPoint: "Top" 428 679 basechar 0
LayerCount: 2
Back
SplineSet
667.571628588 621.028366078 m 1
 647.369711189 621.934785933 627.38454454 623.630140126 608.288985091 625.914103167 c 1
 614.93957623 681.517786836 l 1
 642.476714499 678.224151672 670.645377562 676.318359375 699.787109375 676.318359375 c 0
 719.920810082 676.318359375 738.874770057 677.267671005 754.502227532 679.316131809 c 1
 767.185535802 625.054517488 l 1
 754.482513984 620.719091424 733.869334149 618.797011363 723.650509414 613.221717914 c 1
 724.15877502 587.517044791 727.598972777 468.65695108 723.864257812 262.171875 c 0
 722.443931034 183.64478912 696.903532336 124.021254433 655.376718475 77.8825909859 c 1
 601.797919647 15.0014882314 522.257600538 -13.3974609375 427.2265625 -13.3974609375 c 0
 310.807782061 -13.3974609375 230.405489523 20.8842813682 180.654417032 78.3014973531 c 1
 140.473999869 122.330494236 123.89153748 177.472766324 121.457238842 246.470640249 c 0
 120.165113478 283.094701713 122.614815443 575.357694661 118.526953682 613.571250721 c 1
 115.675328302 621.60065937 111.601689722 623.803828406 93.9824174068 625.645920844 c 0
 89.8231623529 626.080770374 85.322052904 626.388895605 80.5142805058 626.857832036 c 1
 85.8140202062 682.606148396 l 1
 100.097267337 681.283689001 115.490502855 680.325669594 131.676530982 679.717927644 c 0
 146.211590662 679.172175132 161.387139427 678.908203125 176.989257812 678.908203125 c 0
 204.974840313 678.908203125 233.470885421 679.989061278 258.048844373 682.093863435 c 1
 262.827071423 626.298088091 l 1
 236.247410822 624.021864623 206.411691982 622.908203125 176.989257812 622.908203125 c 0
 176.251385938 622.908203125 174.848641629 622.909796827 173.780019712 622.911445445 c 1
 179.982478975 580.196444121 176.171190815 283.909999924 177.422418813 248.445135312 c 0
 179.603215783 186.632524499 193.408049869 147.091359885 222.477509667 115.554241848 c 1
 259.972321934 71.9446989704 321.085085576 42.6025390625 427.2265625 42.6025390625 c 0
 511.878849106 42.6025390625 572.997451563 67.1422544791 613.226549867 114.765149203 c 1
 647.425883202 152.499506158 666.658442044 196.011079969 667.873415568 263.184586623 c 0
 671.844653749 482.746568102 667.660149264 605.355051093 667.571628588 621.028366078 c 1
EndSplineSet
Fore
SplineSet
58 683 m 5
 86 678 131 676 177 676 c 7
 210 676 245 678 270 682 c 5
 277 628 l 5
 200 614 174 624 175 610 c 4
 176 595 178 401 178 267 c 0
 178 202 183 154 228 110 c 0
 264 74 316 42 428 42 c 3
 488 42 557 57 607 108 c 0
 642 144 665 184 667 262 c 0
 669 352 670 517 669 610 c 0
 669 624 644 618 582 631 c 1
 584 686 l 1
 611 681 659 676 700 676 c 3
 736 676 769 679 784 687 c 1
 789 633 l 1
 725 611 723 634 723 604 c 0
 723 591 728 474 724 262 c 0
 723 183 695 126 655 78 c 0
 603 16 522 -13 427 -13 c 3
 311 -13 233 22 181 78 c 0
 141 121 125 178 121 246 c 0
 119 283 121 595 117 610 c 4
 114 622 103 622 51 627 c 5
 58 683 l 5
EndSplineSet
Validated: 33
Position2: "cpsp-1" dx=0 dy=0 dh=50 dv=100
Substitution2: "c2pc-1" u.pcap
Substitution2: "c2sc-1" u.smcp
EndChar

StartChar: V
Encoding: 86 86 54
Width: 827
VWidth: 1159
Flags: W
HStem: -10 21G<391.5 451> 620 53<112 164> 624 58<619 657.173> 630 55<42.6909 93.8921 158.872 206 723.469 779.964>
AnchorPoint: "Bottom" 421 -15 basechar 0
AnchorPoint: "Top" 422 679 basechar 0
LayerCount: 2
Back
SplineSet
614.427002725 627.755206889 m 1
 622.630206889 683.151122275 l 1
 650.328164582 679.049520193 l 0
 668.181136875 676.405795008 688.042301482 676.23046875 709.366210938 676.23046875 c 0
 723.057317106 676.23046875 737.03299184 677.842673214 747.803873105 680.666485969 c 0
 774.888527136 687.767296907 l 1
 789.090149012 633.597988843 l 1
 762.005494981 626.497177905 l 0
 745.275225577 622.11098638 727.184453218 620.23046875 709.366210938 620.23046875 c 0
 687.92810243 620.23046875 665.359109289 620.213017799 642.124960418 623.653604807 c 0
 614.427002725 627.755206889 l 1
695.395818084 678.151688376 m 1
 744.151688376 650.604181916 l 1
 730.377935146 626.22624677 l 0
 701.106954128 574.420027726 477.672038323 92.950216213 448.727295135 -6.27190206484 c 0
 424.356529459 -89.8144983396 l 1
 395.438733191 -7.73489873669 l 0
 339.331630145 151.518196148 130.321744309 552.326843191 86.0439398349 625.504925617 c 0
 71.548865452 649.460985782 l 1
 119.460985782 678.451134548 l 1
 133.956060165 654.495074383 l 0
 176.067482514 584.897379278 340.557324988 271.320170848 420.853459795 80.7538332608 c 1
 488.718029141 250.960674024 652.801650296 602.764984214 681.622064854 653.77375323 c 0
 695.395818084 678.151688376 l 1
31.0165849398 638.960131958 m 1
 49.1608742132 691.939229409 l 1
 75.6504229389 682.867084772 l 0
 74.7043676273 683.191089938 74.6504229389 682.867084772 75.6504229389 682.867084772 c 1
 90.9637066765 677.622589052 100.020161878 676.552734375 109.428710938 676.552734375 c 0
 131.835170363 676.552734375 152.585363959 677.683960235 176.669788568 682.009293887 c 0
 204.228887142 686.958645944 l 1
 214.127591256 631.840448795 l 1
 186.568492682 626.891096738 l 0
 158.528033801 621.855296947 133.754549226 620.552734375 109.428710938 620.552734375 c 0
 94.3158153409 620.552734375 77.4907264073 623.043660989 57.5061336655 629.887987321 c 1
 56.5061336655 629.887987321 56.5600783539 630.211992486 57.5061336655 629.887987321 c 0
 31.0165849398 638.960131958 l 1
EndSplineSet
Fore
SplineSet
205 681 m 1xc0
 215 625 l 1
 196 624 176 621 164 620 c 0xc0
 156 620 157 613 160 605 c 1
 166 595 348 257 421 81 c 1
 493 264 654 595 658 605 c 1
 662 612 665 615 657 618 c 0
 649 621 627 621 617 624 c 1
 619 682 l 1xa0
 644 673 675 673 707 673 c 3xc0
 735 673 758 678 779 686 c 1
 788 629 l 1
 731 613 731 624 720 603 c 1
 699 567 538 221 473 59 c 0
 463 35 457 14 451 -9 c 1
 395 -10 l 1
 388 18 385 21 371 55 c 0
 326 169 206 400 100 597 c 0
 82 630 94 612 32 630 c 1
 44 685 l 1x90
 72 675 94 673 112 673 c 3
 139 673 165 678 205 681 c 1xc0
EndSplineSet
Validated: 1
Position2: "cpsp-1" dx=0 dy=0 dh=50 dv=100
Substitution2: "c2pc-1" v.pcap
Substitution2: "c2sc-1" v.smcp
EndChar

StartChar: W
Encoding: 87 87 55
Width: 1100
VWidth: 1159
Flags: W
HStem: -8 20G<370 421 730 774> 631 55<435.236 497.426 828 919.269> 635 55<43.75 80.4346 164.124 275.727 563.904 650.818 1018.87 1058.85>
AnchorPoint: "Bottom" 566 -15 basechar 0
AnchorPoint: "Top" 561 679 basechar 0
LayerCount: 2
Back
SplineSet
851.841978092 624.286041354 m 1
 858.001585848 679.946253645 l 1
 877.505066636 677.787911329 897.822833166 676.803710938 920.990234375 676.803710938 c 0
 955.092984253 676.803710938 994.789377151 679.699096353 1030.72359873 685.089749647 c 0
 1212.82836759 712.408100482 l 1
 1047.07477447 632.195506086 l 0
 1013.23702952 615.820516804 1010.96358612 617.716129646 976.455770555 527.985973753 c 1
 871.28834564 267.856552443 842.107715148 179.573645444 789.686199496 46.5863377943 c 1
 782.734302859 27.527480931 779.996271931 19.853640254 775.751343249 9.8837217179 c 0
 771.348756722 -0.456482399913 l 1
 730.698923484 -17.8778395019 l 1
 721.32597993 11.4855033442 l 0
 716.065909437 27.9641316856 711.956007002 39.0586376543 702.784560107 65.9770653289 c 1
 653.690500914 197.338338428 606.424239976 303.472893242 545.024859224 457.024060795 c 0
 522.270648981 513.929122485 484.558775311 594.31920912 476.992300584 607.139815509 c 1
 476.339792832 607.897597558 471.73812359 614.046107491 471.263483362 614.926287389 c 0
 463.421637372 629.468323245 467.519096378 622.975112858 455.368286222 625.535051726 c 1
 464.610013465 680.718168411 l 1
 488.432762392 677.743474479 513.938935839 676.338867188 539.646484375 676.338867188 c 0
 567.551499373 676.338867188 596.335107447 678.323910012 621.386982802 682.39448934 c 1
 630.368409408 627.119413798 l 1
 601.554733044 622.437594425 570.167430167 620.338867188 539.646484375 620.338867188 c 0
 537.383082364 620.338867188 537.156173563 620.33759266 533.3504605 620.364254969 c 1
 548.775291821 589.768202931 577.12348849 527.579185451 597.022015776 477.815782955 c 0
 655.828635689 330.74874357 702.482738722 225.389769346 750.124329179 99.2048479292 c 1
 794.781814493 214.473028484 828.045968247 310.304121877 924.359154096 548.532768432 c 1
 936.685278649 580.584205467 946.169050292 603.371555336 956.167838063 621.658145767 c 1
 944.520603863 621.12228575 932.290082413 620.803710938 920.990234375 620.803710938 c 0
 896.243549466 620.803710938 873.744471505 621.862213583 851.841978092 624.286041354 c 1
522.555475857 401.68658167 m 1
 573.444524143 378.31341833 l 1
 489.312698715 195.13801908 426.023481396 47.5801383307 422.475465585 35.663394278 c 0
 422.105708413 34.4214884312 l 1
 421.622831638 33.2190407114 l 0
 417.309772028 22.4787670874 415.214205879 15.4314063793 413.332737355 10.1717294071 c 0
 387.741799561 -61.3681685487 l 1
 360.551450778 9.58274036211 l 0
 351.178025448 34.0418987246 345.415701801 48.8513770493 320.44366111 109.726736027 c 1
 224.800669436 345.451732645 130.079684082 541.945720252 124.955979072 553.403231663 c 1
 117.834537539 570.49853817 97.7851927047 608.552671482 84.9551651139 617.836825856 c 1
 71.2134373874 627.42683871 73.5806133183 625.925293158 61.1719652725 628.526177467 c 1
 72.5142048592 683.365121102 l 1
 99.3012362401 677.899404404 127.951042104 675.833984375 159.579101562 675.833984375 c 0
 190.276662007 675.833984375 223.399364659 680.272380596 246.664145892 684.271451683 c 1
 256.151060473 629.080886804 l 1
 231.035892951 624.763745831 195.424887715 619.833984375 159.579101562 619.833984375 c 0
 157.742234842 619.833984375 157.512625155 619.83317057 154.344594529 619.851224435 c 1
 163.781443014 604.010440092 172.09210378 585.829495343 176.336939443 575.68855792 c 1
 182.383736004 562.547392188 277.538388992 364.420142067 372.29462014 130.880685848 c 1
 377.87002222 117.289301497 382.296039773 106.464161963 386.477950627 96.1870605244 c 1
 411.275854598 154.962948895 461.034967048 267.741505525 522.555475857 401.68658167 c 1
EndSplineSet
Fore
SplineSet
1058 690 m 1xa0
 1067 637 l 1
 1011 620 1015 617 976 528 c 1
 874 270 848 181 795 47 c 0
 784 20 785 19 774 -6 c 1
 733 -9 l 1
 727 13 723 22 708 66 c 0
 673 171 628 279 590 383 c 1
 507 209 436 44 433 36 c 0
 426 15 425 11 417 -8 c 1
 377 -8 l 1
 363 30 361 36 330 110 c 0
 229 347 130 543 126 552 c 0
 118 568 102 605 81 621 c 0
 69 630 53 630 32 638 c 1
 45 692 l 1
 71 681 115 676 160 676 c 3
 204 676 248 685 275 690 c 1
 283 635 l 1xa0
 182 612 163 627 163 613 c 3
 163 606 164 603 170 590 c 1
 175 579 310 306 396 96 c 1
 405 117 557 442 561 456 c 1
 521 562 504 600 500 608 c 1
 485 625 462 626 430 631 c 1
 436 686 l 1xc0
 461 680 503 676 540 676 c 3
 579 676 620 681 650 689 c 1
 659 635 l 1
 645 629 611 624 597 623 c 0
 559 620 562 615 566 603 c 1
 599 518 748 119 755 100 c 1
 811 256 889 458 941 590 c 0
 960 639 940 608 826 627 c 1
 828 684 l 1
 852 679 884 676 921 676 c 3
 964 676 1012 681 1058 690 c 1xa0
EndSplineSet
Validated: 33
Position2: "cpsp-1" dx=0 dy=0 dh=50 dv=100
Substitution2: "c2pc-1" w.pcap
Substitution2: "c2sc-1" w.smcp
EndChar

StartChar: X
Encoding: 88 88 56
Width: 801
VWidth: 1159
Flags: W
HStem: -11 56<71.569 156.84 536.245 578.816 649.944 729.982> -7 60<222.821 269.636> 621 56<70 170.99 233.794 271.12 606.143 691.12>
AnchorPoint: "Bottom" 400 -15 basechar 0
AnchorPoint: "Top" 398 679 basechar 0
LayerCount: 2
Fore
SplineSet
70 677 m 1x60
 116 675 152 673 179 673 c 3
 207 673 230 675 271 682 c 1
 277 627 l 1
 263 624 250 623 233 621 c 0
 232 621 229 616 236 606 c 1
 240 602 393 402 396 400 c 1
 415 428 518 572 548 615 c 0
 549 616 548 619 547 619 c 1
 539 620 518 622 510 624 c 1
 518 680 l 1
 544 675 568 673 593 673 c 3
 624 673 656 676 691 683 c 1
 697 627 l 1
 617 614 621 620 603 595 c 0
 595 584 572 549 431 353 c 1
 457 320 635 87 652 63 c 1
 662 51 658 60 740 45 c 1
 729 -11 l 1xa0
 701 -4 668 0 633 0 c 3
 599 0 563 -5 537 -13 c 1
 529 42 l 1
 543 45 560 48 569 50 c 0
 586 54 584 60 578 68 c 0
 479 198 413 285 397 306 c 1
 336 218 262 117 223 63 c 1
 219 56 227 54 232 53 c 0
 243 51 263 50 274 48 c 1
 269 -7 l 1
 234 -3 205 0 177 0 c 3
 144 0 111 -2 72 -9 c 1
 67 47 l 1
 148 58 147 54 155 64 c 0
 162 73 198 121 362 352 c 1
 187 580 171 599 161 612 c 0
 154 620 147 615 69 621 c 1
 70 677 l 1x60
EndSplineSet
Validated: 1
Position2: "cpsp-1" dx=0 dy=0 dh=50 dv=100
Substitution2: "c2pc-1" x.pcap
Substitution2: "c2sc-1" x.smcp
EndChar

StartChar: Y
Encoding: 89 89 57
Width: 736
VWidth: 1159
Flags: W
HStem: -15 54<271.056 360.469 417.703 508.05> 628 54<49.5556 124.998 194.747 235.491 515.709 551.343 622.354 688.769>
VStem: 361 55<54.3129 286.214>
AnchorPoint: "Bottom" 393 -15 basechar 0
AnchorPoint: "Top" 386 679 basechar 0
LayerCount: 2
Back
SplineSet
594.085346087 674.336661798 m 1
 642.336661798 645.914653913 l 1
 398.914653913 232.663338202 l 1
 350.663338202 261.085346087 l 1
 594.085346087 674.336661798 l 1
106.170986264 644.765802747 m 1
 152.765802747 675.829013736 l 1
 417 279.477717856 l 1
 417 19 l 1
 361 19 l 1
 361 262.522282144 l 1
 121.702591759 621.468394506 l 1
 122.702591759 621.468394506 121.147891562 622.3004448 121.702591759 621.468394506 c 0
 106.170986264 644.765802747 l 1
509.880868107 631.587127852 m 1
 518.819549727 686.869131893 l 1
 546.460551747 682.399791083 l 0
 564.118877201 679.544573515 586.123168675 677.391601562 608.3828125 677.391601562 c 0
 625.356878464 677.391601562 643.704826405 679.406204162 658.577492428 682.160366044 c 0
 686.109400343 687.25880174 l 1
 696.306271735 632.19498591 l 1
 668.77436382 627.096550214 l 0
 650.76494659 623.761515971 629.61551735 621.391601562 608.3828125 621.391601562 c 0
 582.572363065 621.391601562 557.952166089 623.814362823 537.521870128 627.117787042 c 0
 509.880868107 631.587127852 l 1
517.964686259 48.6755684987 m 1
 510.344513811 -6.80355344695 l 1
 482.604952838 -2.99346722282 l 0
 449.09128888 1.60970402039 419.540631136 4.46484375 388.904296875 4.46484375 c 0
 362.166119884 4.46484375 335.035101247 1.62162427606 307.46396188 -4.97226636579 c 0
 280.231929889 -11.485056371 l 1
 267.206349879 42.9790076106 l 1
 294.43838187 49.4917976158 l 0
 326.573111185 57.1771126146 358.185160687 60.46484375 388.904296875 60.46484375 c 0
 423.072849469 60.46484375 455.453481429 57.2616121138 490.225125287 52.4856547228 c 1
 489.23284741 52.3616199882 491.215823893 52.3495802148 490.225125287 52.4856547228 c 0
 517.964686259 48.6755684987 l 1
43.238579498 632.150259362 m 1
 51.6988571883 687.50749648 l 1
 79.3774757476 683.277357635 l 0
 99.5311462063 680.197260841 122.989113655 677.553710938 144.552734375 677.553710938 c 0
 166.958112315 677.553710938 190.275636777 678.609856464 207.195548558 680.600245179 c 0
 235.003801549 683.871493496 l 1
 241.546298184 628.254987513 l 1
 213.738045192 624.983739196 l 0
 193.448542627 622.596965703 168.692415552 621.553710938 144.552734375 621.553710938 c 0
 118.587319126 621.553710938 92.6948078861 624.591836155 70.9171980573 627.920120517 c 0
 43.238579498 632.150259362 l 1
EndSplineSet
Fore
SplineSet
242 625 m 1
 222 621 210 619 194 618 c 0
 187 617 190 616 197 605 c 1
 279 482 357 366 388 320 c 1
 433 397 552 598 557 608 c 1
 561 613 564 619 552 621 c 0
 538 623 523 624 512 627 c 1
 516 684 l 1
 535 679 571 673 608 673 c 3
 637 673 667 678 688 685 c 1
 698 630 l 1
 629 612 633 624 625 612 c 1
 569 516 484 373 417 259 c 1
 417 218 416 181 416 63 c 0
 416 50 420 60 516 45 c 1
 507 -10 l 1
 466 -4 427 0 389 0 c 3
 351 0 313 -4 273 -15 c 1
 258 39 l 1
 361 64 361 46 361 69 c 1
 361 73 361 254 361 258 c 1
 337 294 228 458 125 611 c 1
 118 622 119 613 44 628 c 1
 50 682 l 1
 75 678 112 673 145 673 c 3
 180 673 213 675 235 681 c 1
 242 625 l 1
EndSplineSet
Validated: 1
Position2: "cpsp-1" dx=0 dy=0 dh=50 dv=100
Substitution2: "c2pc-1" y.pcap
Substitution2: "c2sc-1" y.smcp
EndChar

StartChar: Z
Encoding: 90 90 58
Width: 724
VWidth: 1159
Flags: W
HStem: -4 46<58.5652 78.497> 1 56<310.565 604.116> 619 59<122.945 581>
AnchorPoint: "Bottom" 360 -17 basechar 0
AnchorPoint: "Top" 372 677 basechar 0
LayerCount: 2
Back
SplineSet
90.3148900841 529.063987628 m 1
 37.7464837767 548.365869876 l 1
 47.3974249004 574.650073029 l 0
 64.1010982348 620.142293706 69.67931881 666.569820147 96.7843057071 692.215780571 c 0
 114.963748436 709.416647353 l 1
 134.088774418 693.273681789 l 0
 144.062436839 684.855157852 146.859100362 680.136564355 146.859100362 680.136564355 c 1
 147.088753058 680.053333241 148.306641668 679.627514864 151.54560281 679.551954255 c 0
 199.718732454 678.428139902 479.233798362 673.905736757 645.073766789 675.533807087 c 0
 711.478193196 676.185707092 l 1
 665.587244176 628.18577357 l 0
 603.085353701 562.81151891 300.925773983 209.494861838 153.033396132 60.5049696008 c 1
 272.39164432 62.8286876055 447.741326267 59.127584963 541.567201692 60.0899173108 c 1
 563.74729763 60.5311695542 582.469963913 58.4597032358 596.181957374 54.3238518894 c 1
 606.653183487 77.2863391551 617.542812767 105.417302712 634.161633544 145.973336704 c 0
 644.778519251 171.882442012 l 1
 696.596729868 150.648670598 l 1
 685.979844161 124.73956529 l 0
 685.600669672 123.8142401 685.979844161 123.73956529 685.979844161 124.73956529 c 1
 663.091213435 68.8828894048 650.486578768 34.508283151 633.246793853 3.23900136937 c 0
 617.408650517 -25.4880024365 l 1
 591.525080279 -5.33537670873 l 0
 584.524028854 0.115554819482 577.195286251 4.78762412812 542.411313933 4.09562956417 c 1
 423.148483019 2.872401115 176.225472658 8.7937180185 81.4361870438 1.57689508899 c 0
 -6.10651884089 -5.08820638365 l 1
 61.4134029176 51.0296080514 l 0
 150.439407036 125.021766942 455.305311378 477.68071088 581.641828219 619.196917624 c 1
 417.195778421 618.93547338 192.895073822 622.572090425 150.23955344 623.56718637 c 0
 140.811640275 623.78712691 134.830863108 624.6153862 124.640278533 628.712146087 c 1
 118.384435659 611.359780477 110.433626019 583.857083527 99.9658312078 555.348190782 c 0
 90.3148900841 529.063987628 l 1
EndSplineSet
Fore
SplineSet
42 559 m 1xa0
 68 616 68 673 116 706 c 1
 136 688 143 678 165 678 c 0
 213 678 545 674 642 673 c 0
 652 673 652 671 654 671 c 1
 675 634 l 1
 676 634 669 629 669 628 c 0
 604 554 164 60 155 58 c 1
 294 58 422 57 544 57 c 0
 603 57 585 39 634 140 c 1
 686 118 l 1
 656 47 645 12 620 -24 c 1
 597 -10 597 2 533 1 c 0x60
 406 -1 130 6 61 -4 c 1
 45 42 l 1
 86 63 114 95 145 129 c 1
 287 281 437 453 578 611 c 1
 581 615 l 1
 554 615 160 619 146 619 c 1
 123 618 129 630 96 540 c 1
 42 559 l 1xa0
EndSplineSet
Validated: 33
Position2: "cpsp-1" dx=0 dy=0 dh=50 dv=100
Substitution2: "c2pc-1" z.pcap
Substitution2: "c2sc-1" z.smcp
EndChar

StartChar: parenleft
Encoding: 40 40 59
Width: 351
VWidth: 1515
Flags: W
VStem: 37 57<122.356 415.339>
LayerCount: 2
Back
SplineSet
309.28412365 -113.112505564 m 1
 280.073979802 -160.890821738 l 1
 122.337256338 -64.4556027638 37 80.9914505592 37 271 c 0
 37 461.804570865 129.05185464 613.183746476 278.863287462 699.856295915 c 1
 306.906684083 651.383954256 l 1
 173.667185976 574.299003064 93 442.846315363 93 271 c 0
 93 99.2980690338 166.322939084 -25.7105814236 309.28412365 -113.112505564 c 1
EndSplineSet
Fore
SplineSet
305 714 m 1
 331 665 l 1
 172.640909091 585.85013624 94 447.065395095 94 271 c 3
 94 91.3827992141 173.558902877 -41.7718009103 333 -126 c 1
 308 -177 l 1
 133 -81.5925925926 37 69.8148148148 37 271 c 3
 37 472.269320843 139 629.964871194 305 714 c 1
EndSplineSet
Validated: 1
Position2: "cpsp-1" dx=0 dy=0 dh=50 dv=100
Position2: "'case' vertical ajustments for all-caps-1" dx=0 dy=125 dh=0 dv=0
EndChar

StartChar: zero
Encoding: 48 48 63
Width: 573
VWidth: 1159
Flags: W
HStem: -12 56<203.448 370.333> 452 56<202.64 371.333>
VStem: 51 56<148.89 346.957> 466 56<152.318 351.577>
LayerCount: 2
Fore
SplineSet
285 452 m 3
 153.199959021 452 107 321.679849683 107 260 c 3
 107 132.332346797 170.778916089 44 297 44 c 3
 403.627257107 44 466 155.615268371 466 252 c 3
 466 347.037222272 414.765439742 452 285 452 c 3
285 508 m 3
 456 508 522 364 522 252 c 3
 522 140 449 -12 297 -12 c 3
 134 -12 51 112 51 260 c 3
 51 336 107 508 285 508 c 3
EndSplineSet
Validated: 1
Substitution2: "'zero' Slashed Zero lookup 22-1" zero.alt
Substitution2: "dnom-1" zero.denom
Substitution2: "numr-1" zero.numerator
Substitution2: "lnum-1" zero.proportionallining
Substitution2: "tnum-1" zero.tabulartext
EndChar

StartChar: one
Encoding: 49 49 64
Width: 485
VWidth: 1159
Flags: W
HStem: -0.65625 55.2236<110.567 219.16 274.994 377.154> 442.641 56.4805<117.524 215.781> 456.085 57.9658<278.026 378.812>
VStem: 219.17 55.4951<56.1286 441.611>
LayerCount: 2
Back
SplineSet
219 490 m 1
 275 490 l 1
 275 5 l 1
 219 5 l 1
 219 490 l 1
171.606049201 439.133041586 m 1
 115.635548347 440.950466729 l 1
 116.544260918 468.935717156 l 0
 116.511806898 467.936243926 115.544260918 468.935717156 116.544260918 468.935717156 c 1
 117.506516314 498.569904118 l 1
 145.177065172 497.993130496 l 0
 207.991333325 496.683810138 296.020292731 501.345282052 347.151225596 508.257860273 c 1
 347.151225596 509.257860273 346.160240865 508.123885415 347.151225596 508.257860273 c 0
 374.898798069 512.009156297 l 1
 382.401390117 456.514011351 l 1
 354.653817644 452.762715327 l 0
 306.226168429 446.215603931 234.664674701 441.9671798 171.691725431 441.771577479 c 1
 171.606049201 439.133041586 l 1
378.940504718 56.2899990373 m 1
 378.615209232 0.290943841292 l 1
 350.615681634 0.453591584281 l 0
 351.615664763 0.447782736317 350.615681634 -0.546408415719 350.615681634 0.453591584281 c 1
 290.725140795 0.801492500103 219.003307629 -0.11021808407 135.121783555 -0.524230739671 c 1
 135.121783555 0.475769260329 136.121771375 -0.519295116274 135.121783555 -0.524230739671 c 0
 107.122124602 -0.662428194795 l 1
 106.845729692 55.3368897105 l 1
 134.845388645 55.4750871656 l 0
 135.845376465 55.480022789 133.845388645 55.4750871656 134.845388645 55.4750871656 c 0
 218.486960104 55.887915491 290.238789448 56.8052625087 350.94097712 56.4526467803 c 0
 378.940504718 56.2899990373 l 1
EndSplineSet
Fore
SplineSet
117.524414062 499.12109375 m 1xd0
 189.672128854 494.438329348 335.915068994 502.450452993 378.8125 514.05078125 c 1
 378.984375 456.084960938 l 1xb0
 279.418776472 443.990840139 275.068992804 447.247071612 275 436 c 0
 274.733828721 392.609280205 274.665039062 315.566540401 274.665039062 242.504882812 c 3
 274.665039062 154.380145774 275 109 275 64 c 0
 275 54.0571083082 276.637268993 56.3847580449 380.9296875 55.734375 c 1
 377.154296875 -0.65625 l 1
 305.5123858 -0.0986328125 219.193846814 -0.0283203125 110.567382812 -0.65625 c 1
 103.021484375 54.5673828125 l 1
 213.20814952 55.0972679011 219.15598476 55.2718884676 219.157226562 61.8779296875 c 0
 219.161946491 86.9866293169 219.169921875 120.802152339 219.169921875 242.504882812 c 3
 219.169921875 354.803384813 218.938728186 379.071003237 218.547851562 433.208984375 c 0
 218.449289288 446.860254987 218.547851562 439.208984375 115.690429688 442.640625 c 1
 117.524414062 499.12109375 l 1xd0
EndSplineSet
Validated: 33
Substitution2: "dnom-1" one.denom
Substitution2: "numr-1" one.numerator
Substitution2: "tnum-1" one.tabulartext
Substitution2: "lnum-1" one.proportionallining
EndChar

StartChar: two
Encoding: 50 50 65
Width: 623
VWidth: 1159
Flags: W
HStem: -6.54492 15.6328G<102.214 121.188 487.648 502.273> 0.992188 56.0078<209.515 461.959> 460 55.7314<222.445 351.814>
VStem: 389 56.0273<285.472 422.155>
LayerCount: 2
Back
SplineSet
127.31302511 347.867126428 m 1
 84.6212886939 384.108203147 l 1
 102.741827054 405.454071355 l 0
 142.078604141 451.792521283 205.115138582 515.731445312 289.674804688 515.731445312 c 0
 395.527997738 515.731445312 445.02734375 426.168714326 445.02734375 357.551757812 c 0
 445.02734375 219.258722331 302.987549605 127.027852457 209.177575509 57.2022650375 c 1
 253.405157999 57.6368318384 297.096310536 56.9921875 334.098632812 56.9921875 c 0
 352.281751419 56.9921875 408.073251706 56.2095885361 452.95016016 52.3739171893 c 1
 465.902574112 89.7011706709 480.843734425 115.08798958 494.775463384 133.978797939 c 0
 511.394456309 156.513417397 l 1
 556.463695226 123.275431546 l 1
 539.8447023 100.740812087 l 0
 527.352963133 83.8025662043 510.494501988 54.0688874688 500.032419617 14.8775984185 c 0
 493.701266032 -8.83910169632 l 1
 469.36004056 -5.66575763262 l 0
 427.124040178 -0.15948757088 354.031001247 0.9921875 334.098632812 0.9921875 c 0
 267.997292756 0.9921875 172.401132218 2.75816795588 128.091913097 -2.43740293737 c 0
 42.9000691503 -12.4267521864 l 1
 105.790699436 45.9016799511 l 0
 205.284852233 138.17834999 389.02734375 230.866741094 389.02734375 357.551757812 c 0
 389.02734375 404.244982226 357.224167769 459.731445312 289.674804688 459.731445312 c 0
 235.105024456 459.731445312 183.479703341 414.031082896 145.43356347 369.212994636 c 0
 127.31302511 347.867126428 l 1
EndSplineSet
Fore
SplineSet
87.302734375 386.836914062 m 1xb0
 123.980253671 431.68583749 193.160491339 515.731445312 289.674804688 515.731445312 c 3
 395.63878765 515.731445312 445.02734375 426.194600354 445.02734375 357.551757812 c 3
 445.02734375 209.282665454 275 107 208 57 c 1
 353 60 439.196762174 53 453 53 c 1
 464 86 487 128 512 157 c 1
 558.072265625 121.48828125 l 1
 558.072265625 121.48828125 510.359938424 80.9584353012 494.185546875 -11.912109375 c 1
 481.110902269 -1.23708173675 359.538779624 0.9921875 334.098632812 0.9921875 c 1x70
 254.951826748 0.9921875 134.602097773 3.76627430396 107.774414062 -6.544921875 c 1
 94 43 l 1
 200.279461279 125.725806452 389 239.894194726 389 356 c 3
 389 420.007812023 343.012498047 460 291 460 c 3
 243.023458173 460 183 426.429203652 126.244140625 342.372070312 c 1
 87.302734375 386.836914062 l 1xb0
EndSplineSet
Validated: 33
Substitution2: "dnom-1" two.denom
Substitution2: "numr-1" two.numerator
Substitution2: "tnum-1" two.tabulartext
Substitution2: "lnum-1" two.proportionallining
EndChar

StartChar: three
Encoding: 51 51 66
Width: 490
VWidth: 1159
Flags: W
HStem: -177.1 50.4707<114.763 152.925> 451 56.3849<189.422 308.062>
VStem: 327 55.7904<316.75 431.793> 362 55.7402<22.7073 138.902>
LayerCount: 2
Back
SplineSet
127.686306015 136.171160719 m 1
 102.859846142 186.367245129 l 1
 127.957888347 198.780475066 l 0
 232.683813562 250.57682553 326.790039063 298.861996058 326.790039063 381.367400524 c 0
 326.790320316 418.335403396 301.59061603 451.384854834 249.019701513 451.384854834 c 0
 217.458557329 451.384854834 159.640693551 417.404206234 131.818387256 386.271764761 c 1
 130.818387256 386.271764761 132.484742564 387.017399124 131.818387256 386.271764761 c 0
 113.160438628 365.394002597 l 1
 71.4049142993 402.709899853 l 1
 90.0628629277 423.587662018 l 0
 125.401526405 463.130712863 190.145174446 507.384854834 249.019701513 507.384854834 c 0
 330.916294846 507.384854834 382.79054824 448.293715722 382.790039062 381.366974476 c 0
 382.790039062 253.053756515 247.632121279 195.495110079 152.784348221 148.584390655 c 0
 127.686306015 136.171160719 l 1
220.611001817 226.348227571 m 1
 249.376160553 274.395762814 l 1
 306.267578125 240.3359375 l 0
 349.099052616 214.693536565 417.740234375 165.550480743 417.740234375 68.4609375 c 0
 417.740234375 -47.0097144082 243.351287273 -134.464125036 141.571625044 -169.539368571 c 0
 115.099483372 -178.662181476 l 1
 96.8538575623 -125.717898132 l 1
 123.325999234 -116.595085227 l 0
 228.739748836 -80.2674647748 361.740234375 7.16050642672 361.740234375 68.4609375 c 0
 361.740234375 134.852765403 317.50661062 168.338642816 277.50241939 192.288402257 c 0
 220.611001817 226.348227571 l 1
EndSplineSet
Fore
SplineSet
94.6611328125 -126.62890625 m 1xd0
 285.506703206 -64.0326507413 362 31.434684041 362 67 c 3xd0
 362 148.841987731 301.91156152 176.509341174 258 204 c 1
 236.565445487 189.453839233 173.313763288 157.766244473 130.74609375 138.388671875 c 1
 99.5302734375 183.491210938 l 1
 213.531214749 242.849221469 327 290.228463028 327 380 c 3
 327 419.838329136 300.415509972 451 249 451 c 3
 211 451 149 409 111.177351855 364.872159278 c 1
 73.9510619628 402.511373926 l 1
 99.8139851562 444.115723535 179.711400684 507.384854834 249.019701513 507.384854834 c 3
 331.194224707 507.384854834 382.790434278 448.02138086 382.790434278 381.367524072 c 3xe0
 382.790434278 301.370550389 331.700831769 259.865392815 308.267578125 238.3359375 c 1
 350.402888731 212.948357017 417.740234375 164.483687679 417.740234375 68.4609375 c 3
 417.740234375 -55.4290682166 213.870190824 -148.784580583 118 -177.099609375 c 1
 94.6611328125 -126.62890625 l 1xd0
EndSplineSet
Validated: 1
Substitution2: "dnom-1" three.denom
Substitution2: "numr-1" three.numerator
Substitution2: "tnum-1" three.tabulartext
Substitution2: "lnum-1" three.proportionallining
EndChar

StartChar: four
Encoding: 52 52 67
Width: 641
VWidth: 1159
Flags: W
HStem: -8.63477 21G<542.871 564.186> 1.04492 56.9551<166.187 386.952 442.193 528.352> 487.018 20G<391.723 438.875>
VStem: 386.952 55.2412<-118.833 1.04492 58.3945 369.356>
LayerCount: 2
Back
SplineSet
542.485467425 123.337342951 m 1
 595.727164299 105.978722212 l 1
 587.047853929 79.3578737746 l 0
 580.760016437 60.0720593765 573.111111652 36.3810322432 566.485418638 15.3130372921 c 0
 559.288087976 -7.57261794944 l 1
 535.569529053 -3.96918248606 l 0
 504.822279109 0.702084904791 469.582925039 1.99816681726 442.19584324 2.14389483575 c 1
 442.153478707 -38.4398130412 442.553374279 -72.9784135564 443.358621308 -101.070776895 c 0
 443.669271115 -111.908304941 l 1
 436.600343395 -120.128936203 l 0
 425.095961506 -133.507667061 411.576912568 -151.636348344 407.878694295 -157.589229637 c 0
 393.10294122 -181.373197369 l 1
 345.535005756 -151.82169122 l 1
 360.31075883 -128.037723488 l 0
 366.039153593 -118.816944317 375.917886405 -105.650031741 387.10344943 -92.0041457899 c 1
 386.491046058 -65.8835367065 386.15190562 -32.5000503086 386.196645992 2.77873770111 c 1
 387.014272194 58.3919166345 l 1
 442.44484065 58.1429900165 l 0
 465.101787737 58.0412425986 491.730750506 57.2951128214 520.135817332 54.3996716727 c 1
 524.402047264 67.742682697 529.701276712 84.1261626997 533.806157055 96.7164945137 c 0
 542.485467425 123.337342951 l 1
89.0648821872 -10.1721618351 m 0
 87.5628125922 -12.0160713889 86.0520339456 -13.8674301497 84.720368817 -15.4957077629 c 1
 40.8786034682 19.3363459196 l 1
 41.9561638722 20.7327431395 44.0037142327 23.3558247548 46.4686852487 26.2049378527 c 0
 53.3307176186 34.6369377731 61.4104461794 44.6356528711 70.3030652946 55.7094628044 c 0
 158.713592471 165.805415567 340.136874472 398.555680879 391.586588479 482.697816897 c 1
 444.054086806 568.747032038 l 1
 443.598039416 458.304985479 l 1
 441.172228128 403.264665121 441.423835106 334.228683679 440.897706982 224.267536572 c 0
 440.555941763 152.838365867 441.61635647 159.50328605 442.187592421 78.2374150654 c 1
 442.572997053 21.9076182989 l 1
 417.086751988 21.044921875 l 1
 417.086751988 1.044921875 l 1
 389.086751988 1.044921875 l 0
 390.086751988 1.044921875 389.086751988 2.044921875 389.086751988 1.044921875 c 1
 360.952148438 1.044921875 l 0
 195.604383822 1.044921875 133.444692805 6.55338276928 108.698140125 0.545334163104 c 0
 102.438461939 -0.974410881252 98.6717287675 -2.69816215188 94.1005216117 -5.76049377771 c 0
 92.3948675656 -6.90314125567 90.6208066884 -8.52010360328 89.0648821872 -10.1721618351 c 0
386.331279294 57.044921875 m 1
 386.18893899 77.8490320643 l 1
 385.625487527 158.007456593 384.551991198 152.14666509 384.898347978 224.535475189 c 0
 385.187906728 285.053457145 385.239051344 332.858807415 385.646018565 374.271300964 c 1
 318.720862257 280.968238962 216.582749483 149.601647292 145.226401772 59.7894692608 c 1
 187.047564226 60.2944034741 250.029767546 57.044921875 360.952148438 57.044921875 c 0
 386.331279294 57.044921875 l 1
EndSplineSet
Fore
SplineSet
387 58 m 1x70
 387 183.401696596 387 287.229212254 385 372 c 1
 385 372 242.042769499 183.244324327 149 62 c 1
 218.438288161 58 331.29122292 58 387 58 c 1x70
452.108398438 479.17578125 m 1
 445.583710595 445.235382494 441.176816405 412.531690608 440.897460938 223.267578125 c 0
 440.790559004 142.514832277 441.624277934 151.745944 442.193359375 58.39453125 c 1
 510.603511633 57.5474495138 519.912142922 52.6197732537 540.87890625 102.48046875 c 1
 540.87890625 102.48046875 582.503169428 85.833466249 586.077148438 83.841796875 c 1
 586.077148438 83.841796875 569.31202648 28.2548375472 559.060546875 -8.634765625 c 1xb0
 526.680623236 -0.279416755379 477.008571188 1.98720714906 442.193359375 2.1435546875 c 1
 441.879536218 -52.6467287029 445.937300856 -101.347767211 452.4140625 -119.715820312 c 1
 428.05115661 -125.654259315 417.213907021 -160.214622629 406 -177.099609375 c 1
 406 -177.099609375 362.132420985 -142.959655092 360.409179688 -138.801757812 c 1
 384.772511591 -101.554242458 386.767413651 -112.792873042 386.952148438 1.044921875 c 1
 48.0365836743 1.044921875 115.05407971 8.4529602769 71.1083984375 -28.75390625 c 1
 71.1083984375 -28.75390625 33.0614862113 4.56362320729 30.505859375 7.71484375 c 1
 49.5357212401 27.4549496647 378.318852538 439.777186778 405.127050536 507.017878183 c 1
 452.108398438 479.17578125 l 1
EndSplineSet
Validated: 33
Substitution2: "dnom-1" four.denom
Substitution2: "numr-1" four.numerator
Substitution2: "tnum-1" four.tabulartext
Substitution2: "lnum-1" four.proportionallining
EndChar

StartChar: five
Encoding: 53 53 68
Width: 488
VWidth: 1159
Flags: W
HStem: -177.1 56.0996<69 148.492> 441 58.0391<159 327.303> 550.239 20G<380.351 385.02>
VStem: 102.699 55.3008<296.135 440.907> 332 56.4707<37.8056 183.278>
LayerCount: 2
Back
SplineSet
75.2332332265 -177.131290565 m 1
 63.64422465 -122.34356493 l 1
 91.0380874674 -116.549060642 l 0
 219.876250224 -89.2964861673 332.470703125 7.7018199051 332.470703125 115.732421875 c 0
 332.470703125 122.235891143 332.089157563 128.432472003 331.358196451 134.325415421 c 0
 322.461011698 206.053726922 258.342227571 250.754433388 131.31788243 234.97528386 c 0
 97.5195780088 230.776809161 l 1
 99.9368226896 264.74899631 l 0
 104.24939411 325.358286119 105.59747773 404.066060581 103.737383593 468.939855904 c 0
 102.87715817 498.941610638 l 1
 132.866336114 497.71912089 l 0
 263.766474159 492.383060091 291.114881786 495.706857459 320.098632812 497.995117188 c 0
 341.796270245 499.708140113 360.319431199 522.826730778 371.9140216 542.668283738 c 0
 386.040906781 566.843293874 l 1
 434.390927053 538.589523512 l 1
 420.264041872 514.414513376 l 0
 408.567908431 494.399192174 380.035292265 446.552846493 324.506103804 442.168831269 c 0
 297.020535046 439.998852648 269.128387555 436.904188674 160.342748842 440.63883887 c 1
 160.986443904 392.427993527 160.180076498 341.36777362 157.770680223 293.477796741 c 1
 287.234471815 299.716741092 383.200892181 239.452959843 388.260380897 125.312248091 c 0
 388.400735066 122.145895587 388.470703125 118.952307491 388.470703125 115.732421875 c 0
 388.470703125 -31.8588400659 245.254360486 -141.167463281 102.627096044 -171.336786277 c 0
 75.2332332265 -177.131290565 l 1
EndSplineSet
Fore
SplineSet
102.69921875 499.0390625 m 1
 256.250991516 491.950717209 290.179491259 495.633008616 320.098632812 497.995117188 c 0
 351.400280649 500.466374277 375.683163167 548.040321315 385.01953125 570.239257812 c 1
 385.01953125 570.239257812 430.492422805 539.563581069 433.568359375 537.970703125 c 1
 406 487 380 452 340.788085938 444.579101562 c 0
 300.025370945 436.864712321 263.984511647 439.450901791 159 441 c 1
 159 441 160.551971652 312.591524058 158 293 c 1
 303.010590156 300.67372575 388.470703125 225.634570821 388.470703125 115.732421875 c 3
 388.470703125 -42.1917056676 223.587635937 -158.058646834 69 -177.099609375 c 1
 69 -177.099609375 69.169940491 -124.20382482 68 -121 c 1
 203 -101 332 -0.0173899895142 332 115 c 3
 332 152.729955134 316 269 97.517578125 230.197265625 c 1
 104.558112047 306.95389291 106.481063422 409.757969157 102.69921875 499.0390625 c 1
EndSplineSet
Validated: 33
Substitution2: "dnom-1" five.denom
Substitution2: "numr-1" five.numerator
Substitution2: "tnum-1" five.tabulartext
Substitution2: "lnum-1" five.proportionallining
EndChar

StartChar: six
Encoding: 54 54 69
Width: 603
VWidth: 1159
Flags: W
HStem: -14.0537 56<228.543 388.434> 364.665 56<272.65 404.167> 656.785 20G<281.436 391.891>
VStem: 86.6972 56<142.03 375.123> 471.259 56<123.938 289.178>
LayerCount: 2
Back
SplineSet
384.50390625 676.78515625 m 5
 404 624 l 5
 215.879054014 523.540110514 142.697210693 402.695695489 142.697210693 243.2464 c 7
 142.697210693 158.965839674 188.097108553 41.9462890625 306.094726562 41.9462890625 c 7
 399.585066965 41.9462890625 471.25895 116.380400809 471.25895 197.19295 c 7
 471.25895 296.967187461 410.983989853 364.6649 340.65616538 364.6649 c 7
 308.001403285 364.6649 291.323382868 351.491672578 273.340820312 328.267578125 c 5
 236 370 l 5
 259.091925588 398.769706863 294.738793564 420.6649 340.65616538 420.6649 c 7
 451.377766314 420.6649 527.25895 317.15653757 527.25895 197.19295 c 7
 527.25895 83.5442871556 429.117813409 -14.0537109375 306.094726562 -14.0537109375 c 7
 140.049576265 -14.0537109375 86.6972106934 148.401635974 86.6972106934 243.2464 c 7
 86.6972106934 429.875601966 178.368542246 570.111394591 384.50390625 676.78515625 c 5
EndSplineSet
Fore
SplineSet
384.50390625 676.78515625 m 1
 404 624 l 1
 215.879054014 523.540110514 142.697210693 402.695695489 142.697210693 243.2464 c 3
 142.697210693 158.965839674 188.097108553 41.9462890625 306.094726562 41.9462890625 c 3
 399.585066965 41.9462890625 471.25895 116.380400809 471.25895 197.19295 c 3
 471.25895 296.967187461 410.983989853 364.6649 340.65616538 364.6649 c 3
 307.605694113 364.6649 286.193356761 355.110957389 266.340820312 338.267578125 c 1
 236 380 l 1
 259.091925588 403.091277247 294.738793564 420.6649 340.65616538 420.6649 c 3
 451.377766314 420.6649 527.25895 317.15653757 527.25895 197.19295 c 3
 527.25895 83.5442871556 429.117813409 -14.0537109375 306.094726562 -14.0537109375 c 3
 140.049576265 -14.0537109375 86.6972106934 148.401635974 86.6972106934 243.2464 c 3
 86.6972106934 429.875601966 178.368542246 570.111394591 384.50390625 676.78515625 c 1
EndSplineSet
Validated: 1
Substitution2: "dnom-1" six.denom
Substitution2: "numr-1" six.numerator
Substitution2: "tnum-1" six.tabulartext
Substitution2: "lnum-1" six.proportionallining
EndChar

StartChar: seven
Encoding: 55 55 70
Width: 575
VWidth: 1159
Flags: W
HStem: 443.44 56.5371<147.462 455.003>
VStem: 146.306 63.4287<-172.181 -134.759>
LayerCount: 2
Back
SplineSet
108.02122578 346.450006958 m 1
 56.9899293265 369.510943241 l 1
 68.5203974683 395.026591468 l 0
 80.6986794087 421.975779843 100.142069844 466.564644293 111.362823648 498.043024323 c 0
 122.354887988 528.879845505 l 1
 174.338568485 500.609331178 l 1
 178.778494159 499.950065122 190.647056773 500.32843751 206.180291867 499.97824674 c 0
 308.850706004 497.663582013 446.753779619 498.621631218 498.904483373 500.042349955 c 0
 517.951067218 500.56122768 l 1
 525.423738257 483.034083651 l 0
 527.318975353 478.588806536 529.047524582 474.675527758 530.363735937 471.860897914 c 0
 536.497451329 458.744358285 l 1
 529.339081599 446.157705864 l 0
 480.483203444 360.253794756 258.783583867 -61.2406288491 216.384031078 -155.757765674 c 0
 204.923758812 -181.305019139 l 1
 153.829251883 -158.384474606 l 1
 165.289524149 -132.837221141 l 0
 206.180517916 -41.6829660003 392.407187903 313.162818517 463.708735748 443.337152625 c 1
 398.482600869 442.384841565 290.151170745 442.070926334 204.918114269 443.992472585 c 0
 188.173911295 444.369964157 174.377908539 440.196771954 152.559231862 448.921286357 c 1
 141.532070427 421.444714204 128.610406972 392.011583307 119.551693922 371.965655185 c 0
 108.02122578 346.450006958 l 1
EndSplineSet
Fore
SplineSet
164.084960938 507.116210938 m 1
 164.773353625 506.083524826 179.768187553 500.226525802 191.2109375 499.977539062 c 0
 318.490609551 497.208016819 495.168729343 499.028236942 518.037109375 500.927734375 c 1
 518.037109375 500.927734375 533.863423524 461.865052506 537 459 c 1
 510.729229441 418.15433796 219.77948355 -133.950263333 209.734375 -172.337890625 c 1
 209.734375 -172.337890625 147.581649112 -172.113512824 146.305664062 -172.180664062 c 1
 241.909627645 29.1979242778 334 200 455 428 c 0
 464.62041548 446.127725037 464.438598549 442.652755149 443.267578125 442.545898438 c 0
 358.3265608 442.117174758 345.600301818 443.440429688 282.171875 443.440429688 c 3
 148.838866541 443.440429688 156 455 108.012695312 344.680664062 c 1
 108.012695312 344.680664062 61.6439525394 369.028074234 57.427734375 370.1484375 c 1
 57.427734375 370.1484375 113.49002002 485.047802777 122.692382812 526.783203125 c 1
 164.084960938 507.116210938 l 1
EndSplineSet
Validated: 33
Substitution2: "dnom-1" seven.denom
Substitution2: "numr-1" seven.numerator
Substitution2: "tnum-1" seven.tabulartext
Substitution2: "lnum-1" seven.proportionallining
EndChar

